%TF.GenerationSoftware,KiCad,Pcbnew,(6.0.2)*%
%TF.CreationDate,2022-03-17T17:29:19-05:00*%
%TF.ProjectId,alarm-PIC16F1619,616c6172-6d2d-4504-9943-313646313631,rev?*%
%TF.SameCoordinates,Original*%
%TF.FileFunction,Copper,L1,Top*%
%TF.FilePolarity,Positive*%
%FSLAX46Y46*%
G04 Gerber Fmt 4.6, Leading zero omitted, Abs format (unit mm)*
G04 Created by KiCad (PCBNEW (6.0.2)) date 2022-03-17 17:29:19*
%MOMM*%
%LPD*%
G01*
G04 APERTURE LIST*
G04 Aperture macros list*
%AMRoundRect*
0 Rectangle with rounded corners*
0 $1 Rounding radius*
0 $2 $3 $4 $5 $6 $7 $8 $9 X,Y pos of 4 corners*
0 Add a 4 corners polygon primitive as box body*
4,1,4,$2,$3,$4,$5,$6,$7,$8,$9,$2,$3,0*
0 Add four circle primitives for the rounded corners*
1,1,$1+$1,$2,$3*
1,1,$1+$1,$4,$5*
1,1,$1+$1,$6,$7*
1,1,$1+$1,$8,$9*
0 Add four rect primitives between the rounded corners*
20,1,$1+$1,$2,$3,$4,$5,0*
20,1,$1+$1,$4,$5,$6,$7,0*
20,1,$1+$1,$6,$7,$8,$9,0*
20,1,$1+$1,$8,$9,$2,$3,0*%
G04 Aperture macros list end*
%TA.AperFunction,NonConductor*%
%ADD10C,0.500000*%
%TD*%
%TA.AperFunction,ComponentPad*%
%ADD11R,1.700000X1.700000*%
%TD*%
%TA.AperFunction,ComponentPad*%
%ADD12O,1.700000X1.700000*%
%TD*%
%TA.AperFunction,ComponentPad*%
%ADD13R,1.600000X1.600000*%
%TD*%
%TA.AperFunction,ComponentPad*%
%ADD14O,1.600000X1.600000*%
%TD*%
%TA.AperFunction,ComponentPad*%
%ADD15C,1.400000*%
%TD*%
%TA.AperFunction,ComponentPad*%
%ADD16O,1.400000X1.400000*%
%TD*%
%TA.AperFunction,ComponentPad*%
%ADD17C,1.600000*%
%TD*%
%TA.AperFunction,ComponentPad*%
%ADD18O,2.000000X2.000000*%
%TD*%
%TA.AperFunction,ComponentPad*%
%ADD19R,2.000000X2.000000*%
%TD*%
%TA.AperFunction,ComponentPad*%
%ADD20R,2.000000X1.905000*%
%TD*%
%TA.AperFunction,ComponentPad*%
%ADD21O,2.000000X1.905000*%
%TD*%
%TA.AperFunction,ComponentPad*%
%ADD22RoundRect,0.250000X0.750000X-0.600000X0.750000X0.600000X-0.750000X0.600000X-0.750000X-0.600000X0*%
%TD*%
%TA.AperFunction,ComponentPad*%
%ADD23O,2.000000X1.700000*%
%TD*%
%TA.AperFunction,Conductor*%
%ADD24C,0.750000*%
%TD*%
G04 APERTURE END LIST*
D10*
X92710000Y-12700000D02*
X12700000Y-12700000D01*
X92710000Y-60325000D02*
X92710000Y-12700000D01*
X12700000Y-60325000D02*
X92710000Y-60325000D01*
X12700000Y-12700000D02*
X12700000Y-60325000D01*
D11*
%TO.P,DACInputs_+5v2,1,Pin_1*%
%TO.N,+5V*%
X71130000Y-20115000D03*
D12*
%TO.P,DACInputs_+5v2,2,Pin_2*%
X73670000Y-20115000D03*
%TO.P,DACInputs_+5v2,3,Pin_3*%
X76210000Y-20115000D03*
%TO.P,DACInputs_+5v2,4,Pin_4*%
X78750000Y-20115000D03*
%TD*%
D11*
%TO.P,DACInputs2,1,Pin_1*%
%TO.N,Net-(DACInputs2-Pad1)*%
X71130000Y-24765000D03*
D12*
%TO.P,DACInputs2,2,Pin_2*%
%TO.N,Net-(DACInputs2-Pad2)*%
X73670000Y-24765000D03*
%TO.P,DACInputs2,3,Pin_3*%
%TO.N,Net-(DACInputs2-Pad3)*%
X76210000Y-24765000D03*
%TO.P,DACInputs2,4,Pin_4*%
%TO.N,Net-(DACInputs2-Pad4)*%
X78750000Y-24765000D03*
%TD*%
D13*
%TO.P,U5,1*%
%TO.N,Net-(DACInputs2-Pad1)*%
X60325000Y-31115000D03*
D14*
%TO.P,U5,2*%
%TO.N,+5V*%
X57785000Y-31115000D03*
%TO.P,U5,3*%
%TO.N,Net-(U5-Pad3)*%
X55245000Y-31115000D03*
%TO.P,U5,4*%
%TO.N,Net-(DACInputs2-Pad2)*%
X52705000Y-31115000D03*
%TO.P,U5,5*%
%TO.N,+5V*%
X50165000Y-31115000D03*
%TO.P,U5,6*%
%TO.N,Net-(U5-Pad6)*%
X47625000Y-31115000D03*
%TO.P,U5,7,GND*%
%TO.N,GND*%
X45085000Y-31115000D03*
%TO.P,U5,8*%
%TO.N,Net-(U5-Pad8)*%
X45085000Y-38735000D03*
%TO.P,U5,9*%
%TO.N,Net-(DACInputs2-Pad3)*%
X47625000Y-38735000D03*
%TO.P,U5,10*%
%TO.N,+5V*%
X50165000Y-38735000D03*
%TO.P,U5,11*%
%TO.N,Net-(U5-Pad11)*%
X52705000Y-38735000D03*
%TO.P,U5,12*%
%TO.N,Net-(DACInputs2-Pad4)*%
X55245000Y-38735000D03*
%TO.P,U5,13*%
%TO.N,+5V*%
X57785000Y-38735000D03*
%TO.P,U5,14,VCC*%
X60325000Y-38735000D03*
%TD*%
D15*
%TO.P,r_pd_b11,1*%
%TO.N,Net-(DACInputs2-Pad4)*%
X55880000Y-42545000D03*
D16*
%TO.P,r_pd_b11,2*%
%TO.N,GND*%
X55880000Y-45085000D03*
%TD*%
D15*
%TO.P,r_pd_b10,1*%
%TO.N,Net-(DACInputs2-Pad3)*%
X48895000Y-45085000D03*
D16*
%TO.P,r_pd_b10,2*%
%TO.N,GND*%
X51435000Y-45085000D03*
%TD*%
%TO.P,r_pd_b9,2*%
%TO.N,GND*%
X52705000Y-26035000D03*
D15*
%TO.P,r_pd_b9,1*%
%TO.N,Net-(DACInputs2-Pad2)*%
X55245000Y-26035000D03*
%TD*%
%TO.P,r_pd_b8,1*%
%TO.N,Net-(DACInputs2-Pad1)*%
X71120000Y-31115000D03*
D16*
%TO.P,r_pd_b8,2*%
%TO.N,GND*%
X73660000Y-31115000D03*
%TD*%
D15*
%TO.P,r26,1*%
%TO.N,AN0*%
X43180000Y-52705000D03*
D16*
%TO.P,r26,2*%
%TO.N,Net-(U5-Pad11)*%
X45720000Y-52705000D03*
%TD*%
D15*
%TO.P,r25,1*%
%TO.N,Net-(r23-Pad2)*%
X40640000Y-48895000D03*
D16*
%TO.P,r25,2*%
%TO.N,AN0*%
X43180000Y-48895000D03*
%TD*%
D15*
%TO.P,r24,1*%
%TO.N,Net-(r23-Pad2)*%
X40640000Y-45085000D03*
D16*
%TO.P,r24,2*%
%TO.N,Net-(U5-Pad8)*%
X43180000Y-45085000D03*
%TD*%
D15*
%TO.P,r23,1*%
%TO.N,Net-(r21-Pad2)*%
X36830000Y-52705000D03*
D16*
%TO.P,r23,2*%
%TO.N,Net-(r23-Pad2)*%
X39370000Y-52705000D03*
%TD*%
D15*
%TO.P,r22,1*%
%TO.N,Net-(r21-Pad2)*%
X37465000Y-48260000D03*
D16*
%TO.P,r22,2*%
%TO.N,Net-(U5-Pad6)*%
X37465000Y-45720000D03*
%TD*%
D15*
%TO.P,r21,1*%
%TO.N,Net-(r19-Pad2)*%
X66675000Y-41960000D03*
D16*
%TO.P,r21,2*%
%TO.N,Net-(r21-Pad2)*%
X66675000Y-44500000D03*
%TD*%
D15*
%TO.P,r20,1*%
%TO.N,Net-(r19-Pad2)*%
X66675000Y-36145000D03*
D16*
%TO.P,r20,2*%
%TO.N,Net-(U5-Pad3)*%
X66675000Y-33605000D03*
%TD*%
D15*
%TO.P,r19,1*%
%TO.N,Net-(r18-Pad1)*%
X48945000Y-56515000D03*
D16*
%TO.P,r19,2*%
%TO.N,Net-(r19-Pad2)*%
X51485000Y-56515000D03*
%TD*%
D15*
%TO.P,r18,1*%
%TO.N,Net-(r18-Pad1)*%
X48895000Y-52705000D03*
D16*
%TO.P,r18,2*%
%TO.N,GND*%
X51435000Y-52705000D03*
%TD*%
D13*
%TO.P,U2,1,VDD*%
%TO.N,+5V*%
X42870000Y-22850000D03*
D14*
%TO.P,U2,2,RA5*%
%TO.N,unconnected-(U2-Pad2)*%
X45410000Y-22850000D03*
%TO.P,U2,3,RA4*%
%TO.N,unconnected-(U2-Pad3)*%
X47950000Y-22850000D03*
%TO.P,U2,4,RA3/~{MCLR}/VPP*%
%TO.N,unconnected-(U2-Pad4)*%
X50490000Y-22850000D03*
%TO.P,U2,5,RC5*%
%TO.N,unconnected-(U2-Pad5)*%
X53030000Y-22850000D03*
%TO.P,U2,6,RC4*%
%TO.N,unconnected-(U2-Pad6)*%
X55570000Y-22850000D03*
%TO.P,U2,7,RC3*%
%TO.N,unconnected-(U2-Pad7)*%
X58110000Y-22850000D03*
%TO.P,U2,8,RC6*%
%TO.N,unconnected-(U2-Pad8)*%
X60650000Y-22850000D03*
%TO.P,U2,9,RC7*%
%TO.N,unconnected-(U2-Pad9)*%
X63190000Y-22850000D03*
%TO.P,U2,10,RB7*%
%TO.N,unconnected-(U2-Pad10)*%
X63190000Y-15230000D03*
%TO.P,U2,11,RB6*%
%TO.N,unconnected-(U2-Pad11)*%
X60650000Y-15230000D03*
%TO.P,U2,12,RB5*%
%TO.N,unconnected-(U2-Pad12)*%
X58110000Y-15230000D03*
%TO.P,U2,13,RB4*%
%TO.N,unconnected-(U2-Pad13)*%
X55570000Y-15230000D03*
%TO.P,U2,14,RC2*%
%TO.N,unconnected-(U2-Pad14)*%
X53030000Y-15230000D03*
%TO.P,U2,15,RC1*%
%TO.N,unconnected-(U2-Pad15)*%
X50490000Y-15230000D03*
%TO.P,U2,16,RC0*%
%TO.N,Net-(LS1-Pad1)*%
X47950000Y-15230000D03*
%TO.P,U2,17,RA2*%
%TO.N,unconnected-(U2-Pad17)*%
X45410000Y-15230000D03*
%TO.P,U2,18,RA1/ICSPCLK*%
%TO.N,unconnected-(U2-Pad18)*%
X42870000Y-15230000D03*
%TD*%
D13*
%TO.P,RegIn1,1*%
%TO.N,Net-(RegIn1-Pad1)*%
X31750000Y-38872349D03*
D17*
%TO.P,RegIn1,2*%
%TO.N,GND*%
X31750000Y-43872349D03*
%TD*%
D18*
%TO.P,LS1,2,2*%
%TO.N,GND*%
X21710000Y-17632829D03*
D19*
%TO.P,LS1,1,1*%
%TO.N,Net-(LS1-Pad1)*%
X36710000Y-17632829D03*
%TD*%
D20*
%TO.P,U1,1,IN*%
%TO.N,Net-(RegIn1-Pad1)*%
X21590000Y-31252349D03*
D21*
%TO.P,U1,2,GND*%
%TO.N,GND*%
X21590000Y-28712349D03*
%TO.P,U1,3,OUT*%
%TO.N,+5V*%
X21590000Y-26172349D03*
%TD*%
D13*
%TO.P,RegOut1,1*%
%TO.N,+5V*%
X31750000Y-26172349D03*
D17*
%TO.P,RegOut1,2*%
%TO.N,GND*%
X31750000Y-31172349D03*
%TD*%
D22*
%TO.P,BattIn1,1,Pin_1*%
%TO.N,GND*%
X21590000Y-41412349D03*
D23*
%TO.P,BattIn1,2,Pin_2*%
%TO.N,Net-(RegIn1-Pad1)*%
X21590000Y-38912349D03*
%TD*%
D24*
%TO.N,Net-(U5-Pad6)*%
X38735000Y-40005000D02*
X47625000Y-31115000D01*
X37465000Y-45720000D02*
X38735000Y-44450000D01*
X38735000Y-44450000D02*
X38735000Y-40005000D01*
%TO.N,Net-(DACInputs2-Pad4)*%
X62865000Y-39370000D02*
X59690000Y-42545000D01*
X59690000Y-42545000D02*
X55880000Y-42545000D01*
X78750000Y-30470000D02*
X69850000Y-39370000D01*
X78750000Y-24765000D02*
X78750000Y-30470000D01*
X69850000Y-39370000D02*
X62865000Y-39370000D01*
%TO.N,Net-(DACInputs2-Pad2)*%
X67129511Y-23040489D02*
X64135000Y-26035000D01*
X64135000Y-26035000D02*
X55245000Y-26035000D01*
X73147570Y-23040489D02*
X67129511Y-23040489D01*
X73670000Y-23562919D02*
X73147570Y-23040489D01*
X73670000Y-24765000D02*
X73670000Y-23562919D01*
X55245000Y-27305000D02*
X52705000Y-29845000D01*
X52705000Y-29845000D02*
X52705000Y-31115000D01*
X55245000Y-26035000D02*
X55245000Y-27305000D01*
%TO.N,Net-(r21-Pad2)*%
X64085000Y-44500000D02*
X57785000Y-50800000D01*
X66675000Y-44500000D02*
X64085000Y-44500000D01*
%TO.N,Net-(r19-Pad2)*%
X69900000Y-41960000D02*
X66675000Y-41960000D01*
X71120000Y-43180000D02*
X69900000Y-41960000D01*
X71120000Y-44450000D02*
X71120000Y-43180000D01*
%TO.N,Net-(U5-Pad3)*%
X66675000Y-33605000D02*
X57735000Y-33605000D01*
X57735000Y-33605000D02*
X55245000Y-31115000D01*
%TO.N,Net-(DACInputs2-Pad1)*%
X71120000Y-31115000D02*
X60325000Y-31115000D01*
%TO.N,+5V*%
X52070000Y-36830000D02*
X50165000Y-38735000D01*
X57150000Y-36830000D02*
X52070000Y-36830000D01*
X57785000Y-37465000D02*
X57150000Y-36830000D01*
X57785000Y-38735000D02*
X57785000Y-37465000D01*
%TO.N,Net-(DACInputs2-Pad3)*%
X51435000Y-34925000D02*
X47625000Y-38735000D01*
X60325000Y-34925000D02*
X51435000Y-34925000D01*
X63119511Y-37719511D02*
X60325000Y-34925000D01*
X69282185Y-37719511D02*
X63119511Y-37719511D01*
X76210000Y-30791696D02*
X69282185Y-37719511D01*
X76210000Y-24765000D02*
X76210000Y-30791696D01*
%TO.N,+5V*%
X45605000Y-20115000D02*
X42870000Y-22850000D01*
X71130000Y-20115000D02*
X45605000Y-20115000D01*
%TO.N,Net-(DACInputs2-Pad1)*%
X71120000Y-24775000D02*
X71130000Y-24765000D01*
X71120000Y-31115000D02*
X71120000Y-24775000D01*
%TO.N,Net-(U5-Pad11)*%
X52705000Y-40005000D02*
X52705000Y-38735000D01*
X53340000Y-40640000D02*
X52705000Y-40005000D01*
X45720000Y-49530000D02*
X47625000Y-47625000D01*
X45720000Y-52705000D02*
X45720000Y-49530000D01*
X47625000Y-47625000D02*
X53340000Y-47625000D01*
X53340000Y-47625000D02*
X53340000Y-40640000D01*
%TO.N,Net-(r21-Pad2)*%
X39370000Y-55245000D02*
X36830000Y-52705000D01*
X45406696Y-55245000D02*
X39370000Y-55245000D01*
X47294511Y-53357185D02*
X45406696Y-55245000D01*
X47294511Y-51765489D02*
X47294511Y-53357185D01*
X48260000Y-50800000D02*
X47294511Y-51765489D01*
X57785000Y-50800000D02*
X48260000Y-50800000D01*
%TO.N,Net-(U5-Pad8)*%
X43180000Y-40640000D02*
X45085000Y-38735000D01*
X43180000Y-45085000D02*
X43180000Y-40640000D01*
%TO.N,AN0*%
X43180000Y-48895000D02*
X43180000Y-52705000D01*
%TO.N,Net-(r23-Pad2)*%
X40640000Y-48895000D02*
X40640000Y-45085000D01*
X40640000Y-51435000D02*
X40640000Y-48895000D01*
X39370000Y-52705000D02*
X40640000Y-51435000D01*
%TO.N,Net-(r21-Pad2)*%
X35560000Y-51435000D02*
X36830000Y-52705000D01*
X35560000Y-50165000D02*
X35560000Y-51435000D01*
X37465000Y-48260000D02*
X35560000Y-50165000D01*
%TO.N,Net-(r19-Pad2)*%
X59055000Y-56515000D02*
X71120000Y-44450000D01*
X51485000Y-56515000D02*
X59055000Y-56515000D01*
%TO.N,Net-(r18-Pad1)*%
X48895000Y-56465000D02*
X48945000Y-56515000D01*
X48895000Y-52705000D02*
X48895000Y-56465000D01*
%TO.N,+5V*%
X60325000Y-38735000D02*
X57785000Y-38735000D01*
X76210000Y-20115000D02*
X78750000Y-20115000D01*
X73670000Y-20115000D02*
X76210000Y-20115000D01*
X71130000Y-20115000D02*
X73670000Y-20115000D01*
%TO.N,Net-(DACInputs2-Pad3)*%
X47625000Y-43815000D02*
X47625000Y-38735000D01*
X48895000Y-45085000D02*
X47625000Y-43815000D01*
%TO.N,Net-(DACInputs2-Pad4)*%
X55245000Y-40005000D02*
X55245000Y-38735000D01*
X55880000Y-40640000D02*
X55245000Y-40005000D01*
X55880000Y-42545000D02*
X55880000Y-40640000D01*
%TO.N,+5V*%
X42870000Y-24455000D02*
X42870000Y-22850000D01*
X44450000Y-26035000D02*
X42870000Y-24455000D01*
X46355000Y-26035000D02*
X44450000Y-26035000D01*
X50165000Y-31115000D02*
X50165000Y-29845000D01*
X50165000Y-29845000D02*
X46355000Y-26035000D01*
X40005000Y-22860000D02*
X40015000Y-22850000D01*
X36692651Y-26172349D02*
X40015000Y-22850000D01*
%TO.N,Net-(RegIn1-Pad1)*%
X31710000Y-38912349D02*
X31750000Y-38872349D01*
X21590000Y-38912349D02*
X31710000Y-38912349D01*
%TO.N,Net-(LS1-Pad1)*%
X36710000Y-17632829D02*
X45547171Y-17632829D01*
X45547171Y-17632829D02*
X47950000Y-15230000D01*
%TO.N,+5V*%
X31750000Y-26172349D02*
X36692651Y-26172349D01*
X40015000Y-22850000D02*
X42870000Y-22850000D01*
X31750000Y-26172349D02*
X21590000Y-26172349D01*
%TO.N,Net-(RegIn1-Pad1)*%
X21590000Y-31252349D02*
X21590000Y-38912349D01*
%TD*%
%TA.AperFunction,Conductor*%
%TO.N,GND*%
G36*
X91894121Y-13478002D02*
G01*
X91940614Y-13531658D01*
X91952000Y-13584000D01*
X91952000Y-59441000D01*
X91931998Y-59509121D01*
X91878342Y-59555614D01*
X91826000Y-59567000D01*
X13584000Y-59567000D01*
X13515879Y-59546998D01*
X13469386Y-59493342D01*
X13458000Y-59441000D01*
X13458000Y-44958411D01*
X31028493Y-44958411D01*
X31037789Y-44970426D01*
X31088994Y-45006280D01*
X31098489Y-45011763D01*
X31295947Y-45103839D01*
X31306239Y-45107585D01*
X31516688Y-45163974D01*
X31527481Y-45165877D01*
X31744525Y-45184866D01*
X31755475Y-45184866D01*
X31972519Y-45165877D01*
X31983312Y-45163974D01*
X32193761Y-45107585D01*
X32204053Y-45103839D01*
X32401511Y-45011763D01*
X32411006Y-45006280D01*
X32463048Y-44969840D01*
X32471424Y-44959361D01*
X32464356Y-44945915D01*
X31762812Y-44244371D01*
X31748868Y-44236757D01*
X31747035Y-44236888D01*
X31740420Y-44241139D01*
X31034923Y-44946636D01*
X31028493Y-44958411D01*
X13458000Y-44958411D01*
X13458000Y-43877824D01*
X30437483Y-43877824D01*
X30456472Y-44094868D01*
X30458375Y-44105661D01*
X30514764Y-44316110D01*
X30518510Y-44326402D01*
X30610586Y-44523860D01*
X30616069Y-44533355D01*
X30652509Y-44585397D01*
X30662988Y-44593773D01*
X30676434Y-44586705D01*
X31377978Y-43885161D01*
X31384356Y-43873481D01*
X32114408Y-43873481D01*
X32114539Y-43875314D01*
X32118790Y-43881929D01*
X32824287Y-44587426D01*
X32836062Y-44593856D01*
X32848077Y-44584560D01*
X32883931Y-44533355D01*
X32889414Y-44523860D01*
X32981490Y-44326402D01*
X32985236Y-44316110D01*
X33041625Y-44105661D01*
X33043528Y-44094868D01*
X33062517Y-43877824D01*
X33062517Y-43866874D01*
X33043528Y-43649830D01*
X33041625Y-43639037D01*
X32985236Y-43428588D01*
X32981490Y-43418296D01*
X32889414Y-43220838D01*
X32883931Y-43211343D01*
X32847491Y-43159301D01*
X32837012Y-43150925D01*
X32823566Y-43157993D01*
X32122022Y-43859537D01*
X32114408Y-43873481D01*
X31384356Y-43873481D01*
X31385592Y-43871217D01*
X31385461Y-43869384D01*
X31381210Y-43862769D01*
X30675713Y-43157272D01*
X30663938Y-43150842D01*
X30651923Y-43160138D01*
X30616069Y-43211343D01*
X30610586Y-43220838D01*
X30518510Y-43418296D01*
X30514764Y-43428588D01*
X30458375Y-43639037D01*
X30456472Y-43649830D01*
X30437483Y-43866874D01*
X30437483Y-43877824D01*
X13458000Y-43877824D01*
X13458000Y-42785337D01*
X31028576Y-42785337D01*
X31035644Y-42798783D01*
X31737188Y-43500327D01*
X31751132Y-43507941D01*
X31752965Y-43507810D01*
X31759580Y-43503559D01*
X32465077Y-42798062D01*
X32471507Y-42786287D01*
X32462211Y-42774272D01*
X32411006Y-42738418D01*
X32401511Y-42732935D01*
X32204053Y-42640859D01*
X32193761Y-42637113D01*
X31983312Y-42580724D01*
X31972519Y-42578821D01*
X31755475Y-42559832D01*
X31744525Y-42559832D01*
X31527481Y-42578821D01*
X31516688Y-42580724D01*
X31306239Y-42637113D01*
X31295947Y-42640859D01*
X31098489Y-42732935D01*
X31088994Y-42738418D01*
X31036952Y-42774858D01*
X31028576Y-42785337D01*
X13458000Y-42785337D01*
X13458000Y-42059444D01*
X20082001Y-42059444D01*
X20082338Y-42065963D01*
X20092257Y-42161555D01*
X20095149Y-42174949D01*
X20146588Y-42329133D01*
X20152761Y-42342311D01*
X20238063Y-42480156D01*
X20247099Y-42491557D01*
X20361829Y-42606088D01*
X20373240Y-42615100D01*
X20511243Y-42700165D01*
X20524424Y-42706312D01*
X20678710Y-42757487D01*
X20692086Y-42760354D01*
X20786438Y-42770021D01*
X20792854Y-42770349D01*
X21317885Y-42770349D01*
X21333124Y-42765874D01*
X21334329Y-42764484D01*
X21336000Y-42756801D01*
X21336000Y-42752233D01*
X21844000Y-42752233D01*
X21848475Y-42767472D01*
X21849865Y-42768677D01*
X21857548Y-42770348D01*
X22387095Y-42770348D01*
X22393614Y-42770011D01*
X22489206Y-42760092D01*
X22502600Y-42757200D01*
X22656784Y-42705761D01*
X22669962Y-42699588D01*
X22807807Y-42614286D01*
X22819208Y-42605250D01*
X22933739Y-42490520D01*
X22942751Y-42479109D01*
X23027816Y-42341106D01*
X23033963Y-42327925D01*
X23085138Y-42173639D01*
X23088005Y-42160263D01*
X23097672Y-42065911D01*
X23098000Y-42059495D01*
X23098000Y-41684464D01*
X23093525Y-41669225D01*
X23092135Y-41668020D01*
X23084452Y-41666349D01*
X21862115Y-41666349D01*
X21846876Y-41670824D01*
X21845671Y-41672214D01*
X21844000Y-41679897D01*
X21844000Y-42752233D01*
X21336000Y-42752233D01*
X21336000Y-41684464D01*
X21331525Y-41669225D01*
X21330135Y-41668020D01*
X21322452Y-41666349D01*
X20100116Y-41666349D01*
X20084877Y-41670824D01*
X20083672Y-41672214D01*
X20082001Y-41679897D01*
X20082001Y-42059444D01*
X13458000Y-42059444D01*
X13458000Y-38848123D01*
X20078102Y-38848123D01*
X20086751Y-39078507D01*
X20134093Y-39304140D01*
X20136051Y-39309099D01*
X20136052Y-39309101D01*
X20212641Y-39503034D01*
X20218776Y-39518570D01*
X20221543Y-39523129D01*
X20221544Y-39523132D01*
X20279415Y-39618500D01*
X20338377Y-39715666D01*
X20341874Y-39719696D01*
X20474577Y-39872623D01*
X20489477Y-39889794D01*
X20493608Y-39893181D01*
X20525529Y-39919355D01*
X20565524Y-39978015D01*
X20567455Y-40048985D01*
X20530710Y-40109733D01*
X20511941Y-40123933D01*
X20372193Y-40210412D01*
X20360792Y-40219448D01*
X20246262Y-40334177D01*
X20237249Y-40345589D01*
X20152184Y-40483592D01*
X20146037Y-40496773D01*
X20094862Y-40651059D01*
X20091995Y-40664435D01*
X20082328Y-40758787D01*
X20082000Y-40765204D01*
X20082000Y-41140234D01*
X20086475Y-41155473D01*
X20087865Y-41156678D01*
X20095548Y-41158349D01*
X23079884Y-41158349D01*
X23095123Y-41153874D01*
X23096328Y-41152484D01*
X23097999Y-41144801D01*
X23097999Y-40765254D01*
X23097662Y-40758735D01*
X23087743Y-40663143D01*
X23084851Y-40649749D01*
X23033412Y-40495565D01*
X23027239Y-40482387D01*
X22941937Y-40344542D01*
X22932901Y-40333141D01*
X22818171Y-40218610D01*
X22806757Y-40209596D01*
X22667287Y-40123626D01*
X22619793Y-40070854D01*
X22608369Y-40000783D01*
X22636643Y-39935659D01*
X22646431Y-39925196D01*
X22745511Y-39830679D01*
X22808607Y-39798132D01*
X22832482Y-39795849D01*
X30365870Y-39795849D01*
X30433991Y-39815851D01*
X30480484Y-39869507D01*
X30483852Y-39877620D01*
X30489686Y-39893181D01*
X30499385Y-39919054D01*
X30586739Y-40035610D01*
X30703295Y-40122964D01*
X30839684Y-40174094D01*
X30901866Y-40180849D01*
X32598134Y-40180849D01*
X32660316Y-40174094D01*
X32796705Y-40122964D01*
X32913261Y-40035610D01*
X33000615Y-39919054D01*
X33051745Y-39782665D01*
X33058500Y-39720483D01*
X33058500Y-38024215D01*
X33051745Y-37962033D01*
X33000615Y-37825644D01*
X32913261Y-37709088D01*
X32796705Y-37621734D01*
X32660316Y-37570604D01*
X32598134Y-37563849D01*
X30901866Y-37563849D01*
X30839684Y-37570604D01*
X30703295Y-37621734D01*
X30586739Y-37709088D01*
X30499385Y-37825644D01*
X30474997Y-37890700D01*
X30453861Y-37947079D01*
X30411219Y-38003843D01*
X30344658Y-38028543D01*
X30335879Y-38028849D01*
X22829532Y-38028849D01*
X22761411Y-38008847D01*
X22734366Y-37985429D01*
X22694023Y-37938937D01*
X22694021Y-37938935D01*
X22690523Y-37934904D01*
X22519609Y-37794763D01*
X22479614Y-37736103D01*
X22473500Y-37697329D01*
X22473500Y-32839349D01*
X22493502Y-32771228D01*
X22547158Y-32724735D01*
X22599500Y-32713349D01*
X22638134Y-32713349D01*
X22700316Y-32706594D01*
X22836705Y-32655464D01*
X22953261Y-32568110D01*
X23040615Y-32451554D01*
X23091745Y-32315165D01*
X23092711Y-32306280D01*
X23097910Y-32258411D01*
X31028493Y-32258411D01*
X31037789Y-32270426D01*
X31088994Y-32306280D01*
X31098489Y-32311763D01*
X31295947Y-32403839D01*
X31306239Y-32407585D01*
X31516688Y-32463974D01*
X31527481Y-32465877D01*
X31744525Y-32484866D01*
X31755475Y-32484866D01*
X31972519Y-32465877D01*
X31983312Y-32463974D01*
X32193761Y-32407585D01*
X32204053Y-32403839D01*
X32401511Y-32311763D01*
X32411006Y-32306280D01*
X32463048Y-32269840D01*
X32471424Y-32259361D01*
X32464356Y-32245915D01*
X31762812Y-31544371D01*
X31748868Y-31536757D01*
X31747035Y-31536888D01*
X31740420Y-31541139D01*
X31034923Y-32246636D01*
X31028493Y-32258411D01*
X23097910Y-32258411D01*
X23098131Y-32256380D01*
X23098131Y-32256379D01*
X23098500Y-32252983D01*
X23098500Y-31177824D01*
X30437483Y-31177824D01*
X30456472Y-31394868D01*
X30458375Y-31405661D01*
X30514764Y-31616110D01*
X30518510Y-31626402D01*
X30610586Y-31823860D01*
X30616069Y-31833355D01*
X30652509Y-31885397D01*
X30662988Y-31893773D01*
X30676434Y-31886705D01*
X31377978Y-31185161D01*
X31384356Y-31173481D01*
X32114408Y-31173481D01*
X32114539Y-31175314D01*
X32118790Y-31181929D01*
X32824287Y-31887426D01*
X32836062Y-31893856D01*
X32848077Y-31884560D01*
X32883931Y-31833355D01*
X32889414Y-31823860D01*
X32981490Y-31626402D01*
X32985236Y-31616110D01*
X33041625Y-31405661D01*
X33043528Y-31394868D01*
X33062517Y-31177824D01*
X33062517Y-31166874D01*
X33043528Y-30949830D01*
X33041625Y-30939037D01*
X33016027Y-30843503D01*
X43803606Y-30843503D01*
X43803942Y-30857599D01*
X43811884Y-30861000D01*
X44812885Y-30861000D01*
X44828124Y-30856525D01*
X44829329Y-30855135D01*
X44831000Y-30847452D01*
X44831000Y-29847033D01*
X44827027Y-29833502D01*
X44818478Y-29832273D01*
X44641239Y-29879764D01*
X44630947Y-29883510D01*
X44433489Y-29975586D01*
X44423993Y-29981069D01*
X44245533Y-30106028D01*
X44237125Y-30113084D01*
X44083084Y-30267125D01*
X44076028Y-30275533D01*
X43951069Y-30453993D01*
X43945586Y-30463489D01*
X43853510Y-30660947D01*
X43849764Y-30671239D01*
X43803606Y-30843503D01*
X33016027Y-30843503D01*
X32985236Y-30728588D01*
X32981490Y-30718296D01*
X32889414Y-30520838D01*
X32883931Y-30511343D01*
X32847491Y-30459301D01*
X32837012Y-30450925D01*
X32823566Y-30457993D01*
X32122022Y-31159537D01*
X32114408Y-31173481D01*
X31384356Y-31173481D01*
X31385592Y-31171217D01*
X31385461Y-31169384D01*
X31381210Y-31162769D01*
X30675713Y-30457272D01*
X30663938Y-30450842D01*
X30651923Y-30460138D01*
X30616069Y-30511343D01*
X30610586Y-30520838D01*
X30518510Y-30718296D01*
X30514764Y-30728588D01*
X30458375Y-30939037D01*
X30456472Y-30949830D01*
X30437483Y-31166874D01*
X30437483Y-31177824D01*
X23098500Y-31177824D01*
X23098500Y-30251715D01*
X23091745Y-30189533D01*
X23052684Y-30085337D01*
X31028576Y-30085337D01*
X31035644Y-30098783D01*
X31737188Y-30800327D01*
X31751132Y-30807941D01*
X31752965Y-30807810D01*
X31759580Y-30803559D01*
X32465077Y-30098062D01*
X32471507Y-30086287D01*
X32462211Y-30074272D01*
X32411006Y-30038418D01*
X32401511Y-30032935D01*
X32204053Y-29940859D01*
X32193761Y-29937113D01*
X31983312Y-29880724D01*
X31972519Y-29878821D01*
X31755475Y-29859832D01*
X31744525Y-29859832D01*
X31527481Y-29878821D01*
X31516688Y-29880724D01*
X31306239Y-29937113D01*
X31295947Y-29940859D01*
X31098489Y-30032935D01*
X31088994Y-30038418D01*
X31036952Y-30074858D01*
X31028576Y-30085337D01*
X23052684Y-30085337D01*
X23040615Y-30053144D01*
X22953261Y-29936588D01*
X22836705Y-29849234D01*
X22816317Y-29841591D01*
X22759553Y-29798948D01*
X22734854Y-29732387D01*
X22750062Y-29663038D01*
X22761666Y-29645517D01*
X22854945Y-29527405D01*
X22860650Y-29518818D01*
X22971714Y-29317627D01*
X22975944Y-29308215D01*
X23052659Y-29091581D01*
X23055293Y-29081610D01*
X23072647Y-28984186D01*
X23071187Y-28970889D01*
X23056630Y-28966349D01*
X20121904Y-28966349D01*
X20108560Y-28970267D01*
X20106573Y-28984543D01*
X20116110Y-29046864D01*
X20118499Y-29056892D01*
X20189898Y-29275337D01*
X20193895Y-29284846D01*
X20300011Y-29488693D01*
X20305500Y-29497410D01*
X20418902Y-29648448D01*
X20443807Y-29714933D01*
X20428814Y-29784329D01*
X20378684Y-29834602D01*
X20362375Y-29842081D01*
X20343295Y-29849234D01*
X20226739Y-29936588D01*
X20139385Y-30053144D01*
X20088255Y-30189533D01*
X20081500Y-30251715D01*
X20081500Y-32252983D01*
X20081869Y-32256379D01*
X20081869Y-32256380D01*
X20087290Y-32306280D01*
X20088255Y-32315165D01*
X20139385Y-32451554D01*
X20226739Y-32568110D01*
X20343295Y-32655464D01*
X20479684Y-32706594D01*
X20541866Y-32713349D01*
X20580500Y-32713349D01*
X20648621Y-32733351D01*
X20695114Y-32787007D01*
X20706500Y-32839349D01*
X20706500Y-37701384D01*
X20686498Y-37769505D01*
X20650867Y-37805904D01*
X20585681Y-37849790D01*
X20418865Y-38008925D01*
X20281246Y-38193891D01*
X20176760Y-38399400D01*
X20175178Y-38404494D01*
X20175177Y-38404497D01*
X20145198Y-38501046D01*
X20108393Y-38619576D01*
X20107692Y-38624865D01*
X20079784Y-38835436D01*
X20078102Y-38848123D01*
X13458000Y-38848123D01*
X13458000Y-26274612D01*
X20080064Y-26274612D01*
X20116404Y-26512093D01*
X20146295Y-26603546D01*
X20189434Y-26735532D01*
X20189437Y-26735538D01*
X20191042Y-26740450D01*
X20193429Y-26745036D01*
X20193431Y-26745040D01*
X20283820Y-26918673D01*
X20301975Y-26953549D01*
X20305085Y-26957691D01*
X20414755Y-27103757D01*
X20446223Y-27145669D01*
X20619912Y-27311650D01*
X20657351Y-27337189D01*
X20702352Y-27392100D01*
X20710523Y-27462624D01*
X20679269Y-27526371D01*
X20654790Y-27547065D01*
X20652674Y-27548434D01*
X20644502Y-27554727D01*
X20474520Y-27709399D01*
X20467494Y-27716932D01*
X20325055Y-27897293D01*
X20319350Y-27905880D01*
X20208286Y-28107071D01*
X20204056Y-28116483D01*
X20127341Y-28333117D01*
X20124707Y-28343088D01*
X20107353Y-28440512D01*
X20108813Y-28453809D01*
X20123370Y-28458349D01*
X23058096Y-28458349D01*
X23071440Y-28454431D01*
X23073427Y-28440155D01*
X23063890Y-28377834D01*
X23061501Y-28367806D01*
X22990102Y-28149361D01*
X22986105Y-28139852D01*
X22879989Y-27936005D01*
X22874495Y-27927280D01*
X22736507Y-27743497D01*
X22729664Y-27735790D01*
X22563509Y-27577010D01*
X22555502Y-27570526D01*
X22522644Y-27548112D01*
X22477641Y-27493201D01*
X22469468Y-27422677D01*
X22500722Y-27358929D01*
X22525204Y-27338233D01*
X22527635Y-27336660D01*
X22531977Y-27333851D01*
X22709670Y-27172163D01*
X22712869Y-27168112D01*
X22712873Y-27168108D01*
X22763694Y-27103757D01*
X22821611Y-27062694D01*
X22862576Y-27055849D01*
X30350874Y-27055849D01*
X30418995Y-27075851D01*
X30465488Y-27129507D01*
X30468856Y-27137619D01*
X30499385Y-27219054D01*
X30586739Y-27335610D01*
X30703295Y-27422964D01*
X30839684Y-27474094D01*
X30901866Y-27480849D01*
X32598134Y-27480849D01*
X32660316Y-27474094D01*
X32796705Y-27422964D01*
X32913261Y-27335610D01*
X33000615Y-27219054D01*
X33031144Y-27137619D01*
X33073786Y-27080855D01*
X33140348Y-27056155D01*
X33149126Y-27055849D01*
X36613194Y-27055849D01*
X36632906Y-27057400D01*
X36646158Y-27059499D01*
X36652745Y-27059154D01*
X36652749Y-27059154D01*
X36712501Y-27056022D01*
X36719096Y-27055849D01*
X36738957Y-27055849D01*
X36758720Y-27053772D01*
X36765279Y-27053256D01*
X36781078Y-27052428D01*
X36825028Y-27050125D01*
X36825032Y-27050124D01*
X36831622Y-27049779D01*
X36844580Y-27046307D01*
X36864023Y-27042704D01*
X36864446Y-27042660D01*
X36877353Y-27041303D01*
X36940545Y-27020771D01*
X36946847Y-27018905D01*
X37004636Y-27003420D01*
X37011014Y-27001711D01*
X37016893Y-26998715D01*
X37016902Y-26998712D01*
X37022968Y-26995621D01*
X37041230Y-26988057D01*
X37047694Y-26985957D01*
X37047702Y-26985954D01*
X37053982Y-26983913D01*
X37059701Y-26980611D01*
X37059706Y-26980609D01*
X37111518Y-26950695D01*
X37117288Y-26947562D01*
X37176490Y-26917396D01*
X37186910Y-26908958D01*
X37203203Y-26897760D01*
X37203554Y-26897558D01*
X37214820Y-26891053D01*
X37219726Y-26886636D01*
X37219731Y-26886632D01*
X37264189Y-26846602D01*
X37269205Y-26842318D01*
X37282060Y-26831908D01*
X37282063Y-26831905D01*
X37284637Y-26829821D01*
X37298682Y-26815776D01*
X37303467Y-26811235D01*
X37347925Y-26771205D01*
X37347926Y-26771204D01*
X37352836Y-26766783D01*
X37360726Y-26755923D01*
X37373563Y-26740895D01*
X40344053Y-23770405D01*
X40406365Y-23736379D01*
X40433148Y-23733500D01*
X41470874Y-23733500D01*
X41538995Y-23753502D01*
X41585488Y-23807158D01*
X41588856Y-23815270D01*
X41605384Y-23859357D01*
X41619385Y-23896705D01*
X41706739Y-24013261D01*
X41823295Y-24100615D01*
X41831703Y-24103767D01*
X41904730Y-24131144D01*
X41961494Y-24173786D01*
X41986194Y-24240348D01*
X41986500Y-24249126D01*
X41986500Y-24375543D01*
X41984949Y-24395255D01*
X41982850Y-24408507D01*
X41983195Y-24415094D01*
X41983195Y-24415098D01*
X41986327Y-24474850D01*
X41986500Y-24481445D01*
X41986500Y-24501306D01*
X41986844Y-24504577D01*
X41988576Y-24521059D01*
X41989093Y-24527628D01*
X41992570Y-24593971D01*
X41996042Y-24606929D01*
X41999645Y-24626372D01*
X42001046Y-24639702D01*
X42021578Y-24702894D01*
X42023444Y-24709196D01*
X42040638Y-24773363D01*
X42043634Y-24779242D01*
X42043637Y-24779251D01*
X42046728Y-24785317D01*
X42054292Y-24803579D01*
X42056392Y-24810043D01*
X42056395Y-24810051D01*
X42058436Y-24816331D01*
X42061738Y-24822050D01*
X42061740Y-24822055D01*
X42091654Y-24873867D01*
X42094787Y-24879637D01*
X42124953Y-24938839D01*
X42129109Y-24943971D01*
X42133391Y-24949259D01*
X42144589Y-24965552D01*
X42151296Y-24977169D01*
X42155713Y-24982075D01*
X42155717Y-24982080D01*
X42195747Y-25026538D01*
X42200031Y-25031554D01*
X42210441Y-25044409D01*
X42212528Y-25046986D01*
X42226573Y-25061031D01*
X42231114Y-25065816D01*
X42275566Y-25115185D01*
X42286426Y-25123075D01*
X42301454Y-25135912D01*
X43769088Y-26603546D01*
X43781925Y-26618574D01*
X43789815Y-26629434D01*
X43794725Y-26633855D01*
X43794726Y-26633856D01*
X43839184Y-26673886D01*
X43843969Y-26678427D01*
X43858014Y-26692472D01*
X43873458Y-26704979D01*
X43878464Y-26709255D01*
X43922919Y-26749282D01*
X43922923Y-26749285D01*
X43927831Y-26753704D01*
X43939451Y-26760413D01*
X43955737Y-26771607D01*
X43956964Y-26772601D01*
X43966160Y-26780047D01*
X44025351Y-26810206D01*
X44031135Y-26813347D01*
X44082951Y-26843263D01*
X44082953Y-26843264D01*
X44088669Y-26846564D01*
X44094945Y-26848603D01*
X44094949Y-26848605D01*
X44101421Y-26850708D01*
X44119683Y-26858272D01*
X44125752Y-26861364D01*
X44125756Y-26861366D01*
X44131637Y-26864362D01*
X44138008Y-26866069D01*
X44138013Y-26866071D01*
X44195803Y-26881555D01*
X44202122Y-26883427D01*
X44265298Y-26903954D01*
X44271869Y-26904645D01*
X44271870Y-26904645D01*
X44278635Y-26905356D01*
X44298069Y-26908958D01*
X44304639Y-26910718D01*
X44304646Y-26910719D01*
X44311028Y-26912429D01*
X44317626Y-26912775D01*
X44317627Y-26912775D01*
X44377346Y-26915905D01*
X44383922Y-26916422D01*
X44403694Y-26918500D01*
X44423574Y-26918500D01*
X44430168Y-26918673D01*
X44489901Y-26921804D01*
X44489906Y-26921804D01*
X44496493Y-26922149D01*
X44509740Y-26920051D01*
X44529450Y-26918500D01*
X45936852Y-26918500D01*
X46004973Y-26938502D01*
X46025947Y-26955405D01*
X49160927Y-30090385D01*
X49194953Y-30152697D01*
X49189888Y-30223512D01*
X49165278Y-30261805D01*
X49166226Y-30262600D01*
X49162699Y-30266803D01*
X49158802Y-30270700D01*
X49027477Y-30458251D01*
X49025154Y-30463233D01*
X49025151Y-30463238D01*
X49009195Y-30497457D01*
X48962278Y-30550742D01*
X48894001Y-30570203D01*
X48826041Y-30549661D01*
X48780805Y-30497457D01*
X48764849Y-30463238D01*
X48764846Y-30463233D01*
X48762523Y-30458251D01*
X48631198Y-30270700D01*
X48469300Y-30108802D01*
X48464792Y-30105645D01*
X48464789Y-30105643D01*
X48379550Y-30045958D01*
X48281749Y-29977477D01*
X48276767Y-29975154D01*
X48276762Y-29975151D01*
X48079225Y-29883039D01*
X48079224Y-29883039D01*
X48074243Y-29880716D01*
X48068935Y-29879294D01*
X48068933Y-29879293D01*
X47858402Y-29822881D01*
X47858400Y-29822881D01*
X47853087Y-29821457D01*
X47625000Y-29801502D01*
X47396913Y-29821457D01*
X47391600Y-29822881D01*
X47391598Y-29822881D01*
X47181067Y-29879293D01*
X47181065Y-29879294D01*
X47175757Y-29880716D01*
X47170776Y-29883039D01*
X47170775Y-29883039D01*
X46973238Y-29975151D01*
X46973233Y-29975154D01*
X46968251Y-29977477D01*
X46870450Y-30045958D01*
X46785211Y-30105643D01*
X46785208Y-30105645D01*
X46780700Y-30108802D01*
X46618802Y-30270700D01*
X46487477Y-30458251D01*
X46485154Y-30463233D01*
X46485151Y-30463238D01*
X46468919Y-30498049D01*
X46422002Y-30551334D01*
X46353725Y-30570795D01*
X46285765Y-30550253D01*
X46240529Y-30498049D01*
X46224414Y-30463489D01*
X46218931Y-30453993D01*
X46093972Y-30275533D01*
X46086916Y-30267125D01*
X45932875Y-30113084D01*
X45924467Y-30106028D01*
X45746007Y-29981069D01*
X45736511Y-29975586D01*
X45539053Y-29883510D01*
X45528761Y-29879764D01*
X45356497Y-29833606D01*
X45342401Y-29833942D01*
X45339000Y-29841884D01*
X45339000Y-31243000D01*
X45318998Y-31311121D01*
X45265342Y-31357614D01*
X45213000Y-31369000D01*
X43817033Y-31369000D01*
X43803502Y-31372973D01*
X43802273Y-31381522D01*
X43849764Y-31558761D01*
X43853510Y-31569053D01*
X43945586Y-31766511D01*
X43951069Y-31776007D01*
X44076028Y-31954467D01*
X44083084Y-31962875D01*
X44237125Y-32116916D01*
X44245533Y-32123972D01*
X44423993Y-32248931D01*
X44433489Y-32254414D01*
X44630947Y-32346490D01*
X44641239Y-32350236D01*
X44824040Y-32399217D01*
X44884663Y-32436169D01*
X44915684Y-32500029D01*
X44907256Y-32570524D01*
X44880524Y-32610018D01*
X38166454Y-39324088D01*
X38151426Y-39336925D01*
X38140566Y-39344815D01*
X38136145Y-39349725D01*
X38136144Y-39349726D01*
X38096114Y-39394184D01*
X38091573Y-39398969D01*
X38077528Y-39413014D01*
X38075444Y-39415588D01*
X38075441Y-39415591D01*
X38065031Y-39428446D01*
X38060747Y-39433462D01*
X38020717Y-39477920D01*
X38020713Y-39477925D01*
X38016296Y-39482831D01*
X38009791Y-39494097D01*
X38009589Y-39494448D01*
X37998391Y-39510741D01*
X37989953Y-39521161D01*
X37959787Y-39580363D01*
X37956654Y-39586133D01*
X37926740Y-39637945D01*
X37926738Y-39637950D01*
X37923436Y-39643669D01*
X37921395Y-39649949D01*
X37921392Y-39649957D01*
X37919292Y-39656421D01*
X37911728Y-39674683D01*
X37908637Y-39680749D01*
X37908634Y-39680758D01*
X37905638Y-39686637D01*
X37903929Y-39693015D01*
X37888444Y-39750804D01*
X37886578Y-39757106D01*
X37866046Y-39820298D01*
X37865356Y-39826866D01*
X37864645Y-39833628D01*
X37861042Y-39853071D01*
X37857570Y-39866029D01*
X37857225Y-39872619D01*
X37857224Y-39872623D01*
X37854093Y-39932367D01*
X37853577Y-39938931D01*
X37851500Y-39958694D01*
X37851500Y-39978555D01*
X37851327Y-39985150D01*
X37848891Y-40031634D01*
X37847850Y-40051493D01*
X37849949Y-40064744D01*
X37851500Y-40084456D01*
X37851500Y-44031852D01*
X37831498Y-44099973D01*
X37814595Y-44120947D01*
X37457603Y-44477939D01*
X37395291Y-44511965D01*
X37379491Y-44514365D01*
X37254345Y-44525314D01*
X37249032Y-44526738D01*
X37249030Y-44526738D01*
X37055400Y-44578621D01*
X37055398Y-44578622D01*
X37050090Y-44580044D01*
X37045109Y-44582366D01*
X37045108Y-44582367D01*
X36863423Y-44667088D01*
X36863420Y-44667090D01*
X36858442Y-44669411D01*
X36685224Y-44790699D01*
X36535699Y-44940224D01*
X36414411Y-45113442D01*
X36412090Y-45118420D01*
X36412088Y-45118423D01*
X36327367Y-45300108D01*
X36325044Y-45305090D01*
X36323622Y-45310398D01*
X36323621Y-45310400D01*
X36274267Y-45494592D01*
X36270314Y-45509345D01*
X36251884Y-45720000D01*
X36270314Y-45930655D01*
X36271738Y-45935968D01*
X36271738Y-45935970D01*
X36291580Y-46010019D01*
X36325044Y-46134910D01*
X36327366Y-46139891D01*
X36327367Y-46139892D01*
X36392778Y-46280165D01*
X36414411Y-46326558D01*
X36535699Y-46499776D01*
X36685224Y-46649301D01*
X36858442Y-46770589D01*
X36863420Y-46772910D01*
X36863423Y-46772912D01*
X37045108Y-46857633D01*
X37050090Y-46859956D01*
X37055398Y-46861378D01*
X37055400Y-46861379D01*
X37081204Y-46868293D01*
X37141827Y-46905245D01*
X37172848Y-46969106D01*
X37164420Y-47039600D01*
X37119217Y-47094347D01*
X37081204Y-47111707D01*
X37055400Y-47118621D01*
X37055398Y-47118622D01*
X37050090Y-47120044D01*
X37045109Y-47122366D01*
X37045108Y-47122367D01*
X36863423Y-47207088D01*
X36863420Y-47207090D01*
X36858442Y-47209411D01*
X36685224Y-47330699D01*
X36535699Y-47480224D01*
X36414411Y-47653442D01*
X36412090Y-47658420D01*
X36412088Y-47658423D01*
X36327367Y-47840108D01*
X36325044Y-47845090D01*
X36323622Y-47850398D01*
X36323621Y-47850400D01*
X36285668Y-47992043D01*
X36270314Y-48049345D01*
X36262256Y-48141451D01*
X36259365Y-48174490D01*
X36233501Y-48240608D01*
X36222939Y-48252603D01*
X34991454Y-49484088D01*
X34976426Y-49496925D01*
X34965566Y-49504815D01*
X34961145Y-49509725D01*
X34961144Y-49509726D01*
X34921114Y-49554184D01*
X34916573Y-49558969D01*
X34902528Y-49573014D01*
X34900444Y-49575588D01*
X34900441Y-49575591D01*
X34890031Y-49588446D01*
X34885747Y-49593462D01*
X34845717Y-49637920D01*
X34845713Y-49637925D01*
X34841296Y-49642831D01*
X34834791Y-49654097D01*
X34834589Y-49654448D01*
X34823391Y-49670741D01*
X34814953Y-49681161D01*
X34784787Y-49740363D01*
X34781654Y-49746133D01*
X34751740Y-49797945D01*
X34751738Y-49797950D01*
X34748436Y-49803669D01*
X34746395Y-49809949D01*
X34746392Y-49809957D01*
X34744292Y-49816421D01*
X34736728Y-49834683D01*
X34733637Y-49840749D01*
X34733634Y-49840758D01*
X34730638Y-49846637D01*
X34728929Y-49853015D01*
X34713444Y-49910804D01*
X34711578Y-49917106D01*
X34691046Y-49980298D01*
X34690356Y-49986866D01*
X34689645Y-49993628D01*
X34686042Y-50013071D01*
X34682570Y-50026029D01*
X34682225Y-50032619D01*
X34682224Y-50032623D01*
X34680284Y-50069633D01*
X34679442Y-50085717D01*
X34679093Y-50092367D01*
X34678577Y-50098931D01*
X34676500Y-50118694D01*
X34676500Y-50138555D01*
X34676327Y-50145150D01*
X34672850Y-50211493D01*
X34673882Y-50218007D01*
X34674949Y-50224744D01*
X34676500Y-50244456D01*
X34676500Y-51355543D01*
X34674949Y-51375255D01*
X34672850Y-51388507D01*
X34673195Y-51395094D01*
X34673195Y-51395098D01*
X34676327Y-51454850D01*
X34676500Y-51461432D01*
X34676500Y-51481306D01*
X34676844Y-51484577D01*
X34678576Y-51501059D01*
X34679093Y-51507628D01*
X34679673Y-51518704D01*
X34682224Y-51567367D01*
X34682570Y-51573971D01*
X34686042Y-51586929D01*
X34689645Y-51606372D01*
X34691046Y-51619702D01*
X34711578Y-51682894D01*
X34713444Y-51689196D01*
X34718652Y-51708632D01*
X34730638Y-51753363D01*
X34733634Y-51759242D01*
X34733637Y-51759251D01*
X34736728Y-51765317D01*
X34744292Y-51783579D01*
X34746392Y-51790043D01*
X34746395Y-51790051D01*
X34748436Y-51796331D01*
X34751738Y-51802050D01*
X34751740Y-51802055D01*
X34781654Y-51853867D01*
X34784787Y-51859637D01*
X34814953Y-51918839D01*
X34823391Y-51929259D01*
X34834589Y-51945552D01*
X34841296Y-51957169D01*
X34845713Y-51962075D01*
X34845717Y-51962080D01*
X34885747Y-52006538D01*
X34890031Y-52011554D01*
X34900441Y-52024409D01*
X34902528Y-52026986D01*
X34916573Y-52041031D01*
X34921114Y-52045816D01*
X34965566Y-52095185D01*
X34976426Y-52103075D01*
X34991454Y-52115912D01*
X35587939Y-52712397D01*
X35621965Y-52774709D01*
X35624365Y-52790509D01*
X35635314Y-52915655D01*
X35636738Y-52920968D01*
X35636738Y-52920970D01*
X35688575Y-53114426D01*
X35690044Y-53119910D01*
X35779411Y-53311558D01*
X35900699Y-53484776D01*
X36050224Y-53634301D01*
X36223442Y-53755589D01*
X36228420Y-53757910D01*
X36228423Y-53757912D01*
X36410108Y-53842633D01*
X36415090Y-53844956D01*
X36420398Y-53846378D01*
X36420400Y-53846379D01*
X36614030Y-53898262D01*
X36614032Y-53898262D01*
X36619345Y-53899686D01*
X36744490Y-53910635D01*
X36810608Y-53936499D01*
X36822603Y-53947061D01*
X38689088Y-55813546D01*
X38701925Y-55828574D01*
X38709815Y-55839434D01*
X38714725Y-55843855D01*
X38714726Y-55843856D01*
X38759184Y-55883886D01*
X38763969Y-55888427D01*
X38778014Y-55902472D01*
X38793458Y-55914979D01*
X38798464Y-55919255D01*
X38842919Y-55959282D01*
X38842923Y-55959285D01*
X38847831Y-55963704D01*
X38859451Y-55970413D01*
X38875737Y-55981607D01*
X38876964Y-55982601D01*
X38886160Y-55990047D01*
X38945351Y-56020206D01*
X38951135Y-56023347D01*
X39002951Y-56053263D01*
X39002953Y-56053264D01*
X39008669Y-56056564D01*
X39014945Y-56058603D01*
X39014949Y-56058605D01*
X39021421Y-56060708D01*
X39039683Y-56068272D01*
X39045752Y-56071364D01*
X39045756Y-56071366D01*
X39051637Y-56074362D01*
X39058008Y-56076069D01*
X39058013Y-56076071D01*
X39115803Y-56091555D01*
X39122122Y-56093427D01*
X39185298Y-56113954D01*
X39191869Y-56114645D01*
X39191870Y-56114645D01*
X39198635Y-56115356D01*
X39218069Y-56118958D01*
X39224639Y-56120718D01*
X39224646Y-56120719D01*
X39231028Y-56122429D01*
X39237626Y-56122775D01*
X39237627Y-56122775D01*
X39297346Y-56125905D01*
X39303922Y-56126422D01*
X39323694Y-56128500D01*
X39343574Y-56128500D01*
X39350168Y-56128673D01*
X39409901Y-56131804D01*
X39409906Y-56131804D01*
X39416493Y-56132149D01*
X39429740Y-56130051D01*
X39449450Y-56128500D01*
X45327239Y-56128500D01*
X45346951Y-56130051D01*
X45360203Y-56132150D01*
X45366790Y-56131805D01*
X45366794Y-56131805D01*
X45426546Y-56128673D01*
X45433141Y-56128500D01*
X45453002Y-56128500D01*
X45472765Y-56126423D01*
X45479324Y-56125907D01*
X45495123Y-56125079D01*
X45539073Y-56122776D01*
X45539077Y-56122775D01*
X45545667Y-56122430D01*
X45558625Y-56118958D01*
X45578068Y-56115355D01*
X45578491Y-56115311D01*
X45591398Y-56113954D01*
X45654590Y-56093422D01*
X45660892Y-56091556D01*
X45718681Y-56076071D01*
X45725059Y-56074362D01*
X45730938Y-56071366D01*
X45730947Y-56071363D01*
X45737013Y-56068272D01*
X45755275Y-56060708D01*
X45761739Y-56058608D01*
X45761747Y-56058605D01*
X45768027Y-56056564D01*
X45773746Y-56053262D01*
X45773751Y-56053260D01*
X45825563Y-56023346D01*
X45831333Y-56020213D01*
X45890535Y-55990047D01*
X45900958Y-55981607D01*
X45917248Y-55970411D01*
X45917599Y-55970209D01*
X45928865Y-55963704D01*
X45933771Y-55959287D01*
X45933776Y-55959283D01*
X45978234Y-55919253D01*
X45983250Y-55914969D01*
X45996105Y-55904559D01*
X45996108Y-55904556D01*
X45998682Y-55902472D01*
X46012727Y-55888427D01*
X46017512Y-55883886D01*
X46061970Y-55843856D01*
X46061971Y-55843855D01*
X46066881Y-55839434D01*
X46074771Y-55828574D01*
X46087608Y-55813546D01*
X47796405Y-54104748D01*
X47858717Y-54070723D01*
X47929532Y-54075787D01*
X47986368Y-54118334D01*
X48011179Y-54184854D01*
X48011500Y-54193843D01*
X48011500Y-55701494D01*
X47988713Y-55773764D01*
X47894411Y-55908442D01*
X47892090Y-55913420D01*
X47892088Y-55913423D01*
X47808150Y-56093429D01*
X47805044Y-56100090D01*
X47803622Y-56105398D01*
X47803621Y-56105400D01*
X47786521Y-56169217D01*
X47750314Y-56304345D01*
X47731884Y-56515000D01*
X47750314Y-56725655D01*
X47805044Y-56929910D01*
X47807366Y-56934891D01*
X47807367Y-56934892D01*
X47883696Y-57098579D01*
X47894411Y-57121558D01*
X48015699Y-57294776D01*
X48165224Y-57444301D01*
X48338442Y-57565589D01*
X48343420Y-57567910D01*
X48343423Y-57567912D01*
X48525108Y-57652633D01*
X48530090Y-57654956D01*
X48535398Y-57656378D01*
X48535400Y-57656379D01*
X48729030Y-57708262D01*
X48729032Y-57708262D01*
X48734345Y-57709686D01*
X48945000Y-57728116D01*
X49155655Y-57709686D01*
X49160968Y-57708262D01*
X49160970Y-57708262D01*
X49354600Y-57656379D01*
X49354602Y-57656378D01*
X49359910Y-57654956D01*
X49364892Y-57652633D01*
X49546577Y-57567912D01*
X49546580Y-57567910D01*
X49551558Y-57565589D01*
X49724776Y-57444301D01*
X49874301Y-57294776D01*
X49995589Y-57121558D01*
X50006305Y-57098579D01*
X50082633Y-56934892D01*
X50082634Y-56934891D01*
X50084956Y-56929910D01*
X50093293Y-56898796D01*
X50130245Y-56838173D01*
X50194106Y-56807152D01*
X50264600Y-56815580D01*
X50319347Y-56860783D01*
X50336707Y-56898796D01*
X50345044Y-56929910D01*
X50347366Y-56934891D01*
X50347367Y-56934892D01*
X50423696Y-57098579D01*
X50434411Y-57121558D01*
X50555699Y-57294776D01*
X50705224Y-57444301D01*
X50878442Y-57565589D01*
X50883420Y-57567910D01*
X50883423Y-57567912D01*
X51065108Y-57652633D01*
X51070090Y-57654956D01*
X51075398Y-57656378D01*
X51075400Y-57656379D01*
X51269030Y-57708262D01*
X51269032Y-57708262D01*
X51274345Y-57709686D01*
X51485000Y-57728116D01*
X51695655Y-57709686D01*
X51700968Y-57708262D01*
X51700970Y-57708262D01*
X51894600Y-57656379D01*
X51894602Y-57656378D01*
X51899910Y-57654956D01*
X51904892Y-57652633D01*
X52086577Y-57567912D01*
X52086580Y-57567910D01*
X52091558Y-57565589D01*
X52264776Y-57444301D01*
X52273672Y-57435405D01*
X52335984Y-57401379D01*
X52362767Y-57398500D01*
X58975543Y-57398500D01*
X58995255Y-57400051D01*
X59008507Y-57402150D01*
X59015094Y-57401805D01*
X59015098Y-57401805D01*
X59074850Y-57398673D01*
X59081445Y-57398500D01*
X59101306Y-57398500D01*
X59121069Y-57396423D01*
X59127628Y-57395907D01*
X59143427Y-57395079D01*
X59187377Y-57392776D01*
X59187381Y-57392775D01*
X59193971Y-57392430D01*
X59206929Y-57388958D01*
X59226372Y-57385355D01*
X59226795Y-57385311D01*
X59239702Y-57383954D01*
X59302894Y-57363422D01*
X59309196Y-57361556D01*
X59366985Y-57346071D01*
X59373363Y-57344362D01*
X59379242Y-57341366D01*
X59379251Y-57341363D01*
X59385317Y-57338272D01*
X59403579Y-57330708D01*
X59410043Y-57328608D01*
X59410051Y-57328605D01*
X59416331Y-57326564D01*
X59422050Y-57323262D01*
X59422055Y-57323260D01*
X59473867Y-57293346D01*
X59479637Y-57290213D01*
X59538839Y-57260047D01*
X59549259Y-57251609D01*
X59565552Y-57240411D01*
X59565903Y-57240209D01*
X59577169Y-57233704D01*
X59582075Y-57229287D01*
X59582080Y-57229283D01*
X59626538Y-57189253D01*
X59631554Y-57184969D01*
X59644409Y-57174559D01*
X59644412Y-57174556D01*
X59646986Y-57172472D01*
X59661031Y-57158427D01*
X59665816Y-57153886D01*
X59710274Y-57113856D01*
X59710275Y-57113855D01*
X59715185Y-57109434D01*
X59723075Y-57098574D01*
X59735912Y-57083546D01*
X71688542Y-45130915D01*
X71703577Y-45118074D01*
X71709084Y-45114073D01*
X71709090Y-45114068D01*
X71714434Y-45110185D01*
X71758895Y-45060806D01*
X71763436Y-45056021D01*
X71777472Y-45041985D01*
X71789969Y-45026553D01*
X71794253Y-45021538D01*
X71834283Y-44977080D01*
X71834287Y-44977075D01*
X71838704Y-44972169D01*
X71845412Y-44960551D01*
X71856607Y-44944263D01*
X71860890Y-44938974D01*
X71860891Y-44938973D01*
X71865048Y-44933839D01*
X71895214Y-44874634D01*
X71898337Y-44868881D01*
X71931564Y-44811331D01*
X71933606Y-44805047D01*
X71933608Y-44805042D01*
X71935708Y-44798579D01*
X71943272Y-44780317D01*
X71946363Y-44774251D01*
X71946366Y-44774242D01*
X71949362Y-44768363D01*
X71966556Y-44704196D01*
X71968422Y-44697894D01*
X71988954Y-44634702D01*
X71990355Y-44621372D01*
X71993958Y-44601929D01*
X71997430Y-44588971D01*
X71997777Y-44582367D01*
X72000692Y-44526738D01*
X72000907Y-44522628D01*
X72001424Y-44516059D01*
X72003156Y-44499577D01*
X72003500Y-44496306D01*
X72003500Y-44476445D01*
X72003673Y-44469850D01*
X72006805Y-44410098D01*
X72006805Y-44410094D01*
X72007150Y-44403507D01*
X72005051Y-44390253D01*
X72003500Y-44370544D01*
X72003500Y-43259457D01*
X72005051Y-43239745D01*
X72006118Y-43233008D01*
X72007150Y-43226493D01*
X72006001Y-43204559D01*
X72003673Y-43160150D01*
X72003500Y-43153555D01*
X72003500Y-43133694D01*
X72001423Y-43113931D01*
X72000907Y-43107367D01*
X71997776Y-43047629D01*
X71997776Y-43047628D01*
X71997430Y-43041029D01*
X71993959Y-43028074D01*
X71990357Y-43008639D01*
X71989645Y-43001869D01*
X71989644Y-43001865D01*
X71988954Y-42995298D01*
X71968418Y-42932092D01*
X71966567Y-42925845D01*
X71949362Y-42861638D01*
X71946369Y-42855763D01*
X71946366Y-42855756D01*
X71943273Y-42849686D01*
X71935712Y-42831431D01*
X71933607Y-42824955D01*
X71933605Y-42824951D01*
X71931564Y-42818669D01*
X71928265Y-42812954D01*
X71928260Y-42812944D01*
X71898349Y-42761139D01*
X71895214Y-42755367D01*
X71865048Y-42696161D01*
X71856607Y-42685737D01*
X71845412Y-42669449D01*
X71842005Y-42663548D01*
X71842004Y-42663547D01*
X71838704Y-42657831D01*
X71834287Y-42652925D01*
X71834283Y-42652920D01*
X71794253Y-42608462D01*
X71789969Y-42603447D01*
X71779548Y-42590579D01*
X71777472Y-42588015D01*
X71763436Y-42573979D01*
X71758895Y-42569194D01*
X71718856Y-42524726D01*
X71718855Y-42524725D01*
X71714434Y-42519815D01*
X71709094Y-42515935D01*
X71709086Y-42515928D01*
X71703578Y-42511927D01*
X71688543Y-42499086D01*
X70580912Y-41391454D01*
X70568075Y-41376426D01*
X70560185Y-41365566D01*
X70510816Y-41321114D01*
X70506031Y-41316573D01*
X70491986Y-41302528D01*
X70489409Y-41300441D01*
X70476554Y-41290031D01*
X70471538Y-41285747D01*
X70427080Y-41245717D01*
X70427075Y-41245713D01*
X70422169Y-41241296D01*
X70410552Y-41234589D01*
X70394259Y-41223391D01*
X70388971Y-41219109D01*
X70383839Y-41214953D01*
X70324637Y-41184787D01*
X70318867Y-41181654D01*
X70267055Y-41151740D01*
X70267050Y-41151738D01*
X70261331Y-41148436D01*
X70255051Y-41146395D01*
X70255043Y-41146392D01*
X70248579Y-41144292D01*
X70230317Y-41136728D01*
X70224251Y-41133637D01*
X70224242Y-41133634D01*
X70218363Y-41130638D01*
X70207672Y-41127773D01*
X70154196Y-41113444D01*
X70147894Y-41111578D01*
X70084702Y-41091046D01*
X70071372Y-41089645D01*
X70051929Y-41086042D01*
X70038971Y-41082570D01*
X70032381Y-41082225D01*
X70032377Y-41082224D01*
X69988427Y-41079921D01*
X69972628Y-41079093D01*
X69966069Y-41078577D01*
X69946306Y-41076500D01*
X69926445Y-41076500D01*
X69919850Y-41076327D01*
X69860098Y-41073195D01*
X69860094Y-41073195D01*
X69853507Y-41072850D01*
X69840253Y-41074949D01*
X69820544Y-41076500D01*
X67552767Y-41076500D01*
X67484646Y-41056498D01*
X67463672Y-41039595D01*
X67454776Y-41030699D01*
X67281558Y-40909411D01*
X67276580Y-40907090D01*
X67276577Y-40907088D01*
X67094892Y-40822367D01*
X67094891Y-40822366D01*
X67089910Y-40820044D01*
X67084602Y-40818622D01*
X67084600Y-40818621D01*
X66890970Y-40766738D01*
X66890968Y-40766738D01*
X66885655Y-40765314D01*
X66675000Y-40746884D01*
X66464345Y-40765314D01*
X66459032Y-40766738D01*
X66459030Y-40766738D01*
X66265400Y-40818621D01*
X66265398Y-40818622D01*
X66260090Y-40820044D01*
X66255109Y-40822366D01*
X66255108Y-40822367D01*
X66073423Y-40907088D01*
X66073420Y-40907090D01*
X66068442Y-40909411D01*
X65895224Y-41030699D01*
X65745699Y-41180224D01*
X65624411Y-41353442D01*
X65622090Y-41358420D01*
X65622088Y-41358423D01*
X65539516Y-41535500D01*
X65535044Y-41545090D01*
X65533622Y-41550398D01*
X65533621Y-41550400D01*
X65484063Y-41735354D01*
X65480314Y-41749345D01*
X65461884Y-41960000D01*
X65480314Y-42170655D01*
X65481738Y-42175968D01*
X65481738Y-42175970D01*
X65524175Y-42334345D01*
X65535044Y-42374910D01*
X65537366Y-42379891D01*
X65537367Y-42379892D01*
X65621275Y-42559832D01*
X65624411Y-42566558D01*
X65745699Y-42739776D01*
X65895224Y-42889301D01*
X66068442Y-43010589D01*
X66073420Y-43012910D01*
X66073423Y-43012912D01*
X66147874Y-43047629D01*
X66260090Y-43099956D01*
X66265398Y-43101378D01*
X66265400Y-43101379D01*
X66291204Y-43108293D01*
X66351827Y-43145245D01*
X66382848Y-43209106D01*
X66374420Y-43279600D01*
X66329217Y-43334347D01*
X66291204Y-43351707D01*
X66265400Y-43358621D01*
X66265398Y-43358622D01*
X66260090Y-43360044D01*
X66255109Y-43362366D01*
X66255108Y-43362367D01*
X66073423Y-43447088D01*
X66073420Y-43447090D01*
X66068442Y-43449411D01*
X65895224Y-43570699D01*
X65886328Y-43579595D01*
X65824016Y-43613621D01*
X65797233Y-43616500D01*
X64164450Y-43616500D01*
X64144739Y-43614949D01*
X64138009Y-43613883D01*
X64131493Y-43612851D01*
X64124906Y-43613196D01*
X64124901Y-43613196D01*
X64065168Y-43616327D01*
X64058574Y-43616500D01*
X64038694Y-43616500D01*
X64035420Y-43616844D01*
X64035421Y-43616844D01*
X64018920Y-43618578D01*
X64012346Y-43619095D01*
X63952627Y-43622225D01*
X63952626Y-43622225D01*
X63946028Y-43622571D01*
X63939646Y-43624281D01*
X63939639Y-43624282D01*
X63933069Y-43626042D01*
X63913635Y-43629644D01*
X63906870Y-43630355D01*
X63906869Y-43630355D01*
X63900298Y-43631046D01*
X63837122Y-43651573D01*
X63830803Y-43653445D01*
X63773013Y-43668929D01*
X63773008Y-43668931D01*
X63766637Y-43670638D01*
X63760756Y-43673634D01*
X63760752Y-43673636D01*
X63754683Y-43676728D01*
X63736421Y-43684292D01*
X63729949Y-43686395D01*
X63729945Y-43686397D01*
X63723669Y-43688436D01*
X63717953Y-43691736D01*
X63717951Y-43691737D01*
X63666135Y-43721653D01*
X63660351Y-43724794D01*
X63601160Y-43754953D01*
X63596029Y-43759108D01*
X63590737Y-43763393D01*
X63574451Y-43774587D01*
X63562831Y-43781296D01*
X63557923Y-43785715D01*
X63557919Y-43785718D01*
X63513464Y-43825745D01*
X63508458Y-43830021D01*
X63493014Y-43842528D01*
X63478969Y-43856573D01*
X63474184Y-43861114D01*
X63440173Y-43891738D01*
X63424815Y-43905566D01*
X63416925Y-43916426D01*
X63404088Y-43931454D01*
X57455947Y-49879595D01*
X57393635Y-49913621D01*
X57366852Y-49916500D01*
X48339457Y-49916500D01*
X48319745Y-49914949D01*
X48318322Y-49914724D01*
X48306493Y-49912850D01*
X48299906Y-49913195D01*
X48299902Y-49913195D01*
X48240150Y-49916327D01*
X48233555Y-49916500D01*
X48213694Y-49916500D01*
X48193931Y-49918577D01*
X48187372Y-49919093D01*
X48171573Y-49919921D01*
X48127623Y-49922224D01*
X48127619Y-49922225D01*
X48121029Y-49922570D01*
X48108071Y-49926042D01*
X48088628Y-49929645D01*
X48075298Y-49931046D01*
X48012106Y-49951578D01*
X48005804Y-49953444D01*
X47952328Y-49967773D01*
X47941637Y-49970638D01*
X47935758Y-49973634D01*
X47935749Y-49973637D01*
X47929683Y-49976728D01*
X47911421Y-49984292D01*
X47904958Y-49986392D01*
X47904953Y-49986394D01*
X47898669Y-49988436D01*
X47841119Y-50021663D01*
X47835366Y-50024786D01*
X47776161Y-50054952D01*
X47771027Y-50059109D01*
X47771026Y-50059110D01*
X47765737Y-50063393D01*
X47749449Y-50074588D01*
X47737831Y-50081296D01*
X47732925Y-50085713D01*
X47732920Y-50085717D01*
X47688462Y-50125747D01*
X47683447Y-50130031D01*
X47675369Y-50136573D01*
X47668015Y-50142528D01*
X47653979Y-50156564D01*
X47649194Y-50161105D01*
X47599815Y-50205566D01*
X47595934Y-50210908D01*
X47591925Y-50216425D01*
X47579086Y-50231456D01*
X46818595Y-50991947D01*
X46756283Y-51025973D01*
X46685468Y-51020908D01*
X46628632Y-50978361D01*
X46603821Y-50911841D01*
X46603500Y-50902852D01*
X46603500Y-49948148D01*
X46623502Y-49880027D01*
X46640405Y-49859053D01*
X47954052Y-48545405D01*
X48016364Y-48511380D01*
X48043147Y-48508500D01*
X53432860Y-48508500D01*
X53463160Y-48502060D01*
X53471938Y-48500194D01*
X53484963Y-48498131D01*
X53518140Y-48494644D01*
X53518143Y-48494643D01*
X53524702Y-48493954D01*
X53562704Y-48481606D01*
X53575443Y-48478193D01*
X53608067Y-48471259D01*
X53608069Y-48471258D01*
X53614521Y-48469887D01*
X53651022Y-48453636D01*
X53663332Y-48448911D01*
X53695047Y-48438606D01*
X53695048Y-48438605D01*
X53701331Y-48436564D01*
X53707054Y-48433260D01*
X53735939Y-48416584D01*
X53747686Y-48410598D01*
X53759870Y-48405173D01*
X53784183Y-48394348D01*
X53816505Y-48370864D01*
X53827564Y-48363683D01*
X53856451Y-48347005D01*
X53862169Y-48343704D01*
X53891859Y-48316971D01*
X53902108Y-48308671D01*
X53929095Y-48289064D01*
X53934434Y-48285185D01*
X53938850Y-48280281D01*
X53961171Y-48255492D01*
X53970492Y-48246171D01*
X53995281Y-48223850D01*
X53995282Y-48223848D01*
X54000185Y-48219434D01*
X54023672Y-48187107D01*
X54031972Y-48176858D01*
X54054285Y-48152077D01*
X54054286Y-48152076D01*
X54058704Y-48147169D01*
X54078682Y-48112567D01*
X54085864Y-48101507D01*
X54105467Y-48074526D01*
X54105468Y-48074525D01*
X54109348Y-48069184D01*
X54112031Y-48063158D01*
X54112035Y-48063151D01*
X54125600Y-48032682D01*
X54131582Y-48020940D01*
X54151564Y-47986331D01*
X54163914Y-47948320D01*
X54168636Y-47936020D01*
X54182203Y-47905550D01*
X54182204Y-47905547D01*
X54184887Y-47899521D01*
X54193193Y-47860443D01*
X54196607Y-47847701D01*
X54197456Y-47845090D01*
X54208954Y-47809702D01*
X54213131Y-47769963D01*
X54215194Y-47756938D01*
X54222127Y-47724318D01*
X54223500Y-47717860D01*
X54223500Y-45351522D01*
X54700801Y-45351522D01*
X54739092Y-45494423D01*
X54742842Y-45504727D01*
X54827521Y-45686323D01*
X54832998Y-45695811D01*
X54947925Y-45859942D01*
X54954981Y-45868350D01*
X55096650Y-46010019D01*
X55105058Y-46017075D01*
X55269189Y-46132002D01*
X55278677Y-46137479D01*
X55460273Y-46222158D01*
X55470577Y-46225908D01*
X55608503Y-46262866D01*
X55622599Y-46262530D01*
X55626000Y-46254588D01*
X55626000Y-46249439D01*
X56134000Y-46249439D01*
X56137973Y-46262970D01*
X56146522Y-46264199D01*
X56289423Y-46225908D01*
X56299727Y-46222158D01*
X56481323Y-46137479D01*
X56490811Y-46132002D01*
X56654942Y-46017075D01*
X56663350Y-46010019D01*
X56805019Y-45868350D01*
X56812075Y-45859942D01*
X56927002Y-45695811D01*
X56932479Y-45686323D01*
X57017158Y-45504727D01*
X57020908Y-45494423D01*
X57057866Y-45356497D01*
X57057530Y-45342401D01*
X57049588Y-45339000D01*
X56152115Y-45339000D01*
X56136876Y-45343475D01*
X56135671Y-45344865D01*
X56134000Y-45352548D01*
X56134000Y-46249439D01*
X55626000Y-46249439D01*
X55626000Y-45357115D01*
X55621525Y-45341876D01*
X55620135Y-45340671D01*
X55612452Y-45339000D01*
X54715561Y-45339000D01*
X54702030Y-45342973D01*
X54700801Y-45351522D01*
X54223500Y-45351522D01*
X54223500Y-40719456D01*
X54225051Y-40699745D01*
X54226118Y-40693008D01*
X54226118Y-40693007D01*
X54227150Y-40686493D01*
X54226447Y-40673069D01*
X54223673Y-40620150D01*
X54223500Y-40613555D01*
X54223500Y-40593694D01*
X54221423Y-40573931D01*
X54220907Y-40567367D01*
X54217776Y-40507623D01*
X54217775Y-40507619D01*
X54217430Y-40501029D01*
X54213958Y-40488071D01*
X54210354Y-40468618D01*
X54209523Y-40460703D01*
X54222303Y-40390867D01*
X54270810Y-40339025D01*
X54339645Y-40321639D01*
X54406952Y-40344227D01*
X54443953Y-40384546D01*
X54444679Y-40385804D01*
X54466655Y-40423868D01*
X54469787Y-40429637D01*
X54499953Y-40488839D01*
X54504109Y-40493971D01*
X54508391Y-40499259D01*
X54519589Y-40515552D01*
X54526296Y-40527169D01*
X54530713Y-40532075D01*
X54530717Y-40532080D01*
X54570747Y-40576538D01*
X54575031Y-40581554D01*
X54584862Y-40593694D01*
X54587528Y-40596986D01*
X54601573Y-40611031D01*
X54606114Y-40615816D01*
X54650566Y-40665185D01*
X54655911Y-40669068D01*
X54655913Y-40669070D01*
X54661418Y-40673069D01*
X54676455Y-40685912D01*
X54959595Y-40969052D01*
X54993621Y-41031364D01*
X54996500Y-41058147D01*
X54996500Y-41667233D01*
X54976498Y-41735354D01*
X54959595Y-41756328D01*
X54950699Y-41765224D01*
X54829411Y-41938442D01*
X54740044Y-42130090D01*
X54738622Y-42135398D01*
X54738621Y-42135400D01*
X54728375Y-42173639D01*
X54685314Y-42334345D01*
X54666884Y-42545000D01*
X54685314Y-42755655D01*
X54686738Y-42760968D01*
X54686738Y-42760970D01*
X54731758Y-42928985D01*
X54740044Y-42959910D01*
X54742366Y-42964891D01*
X54742367Y-42964892D01*
X54819556Y-43130423D01*
X54829411Y-43151558D01*
X54950699Y-43324776D01*
X55100224Y-43474301D01*
X55273442Y-43595589D01*
X55278420Y-43597910D01*
X55278423Y-43597912D01*
X55395687Y-43652593D01*
X55465090Y-43684956D01*
X55470397Y-43686378D01*
X55470408Y-43686382D01*
X55497171Y-43693553D01*
X55557793Y-43730504D01*
X55588815Y-43794365D01*
X55580386Y-43864860D01*
X55535182Y-43919606D01*
X55497170Y-43936966D01*
X55470574Y-43944092D01*
X55460277Y-43947841D01*
X55278677Y-44032521D01*
X55269189Y-44037998D01*
X55105058Y-44152925D01*
X55096650Y-44159981D01*
X54954981Y-44301650D01*
X54947925Y-44310058D01*
X54832998Y-44474189D01*
X54827521Y-44483677D01*
X54742842Y-44665273D01*
X54739092Y-44675577D01*
X54702134Y-44813503D01*
X54702470Y-44827599D01*
X54710412Y-44831000D01*
X57044439Y-44831000D01*
X57057970Y-44827027D01*
X57059199Y-44818478D01*
X57020908Y-44675577D01*
X57017158Y-44665273D01*
X56932479Y-44483677D01*
X56927002Y-44474189D01*
X56812075Y-44310058D01*
X56805019Y-44301650D01*
X56663350Y-44159981D01*
X56654942Y-44152925D01*
X56490811Y-44037998D01*
X56481323Y-44032521D01*
X56299723Y-43947841D01*
X56289426Y-43944092D01*
X56262830Y-43936966D01*
X56202207Y-43900014D01*
X56171186Y-43836154D01*
X56179614Y-43765659D01*
X56224817Y-43710912D01*
X56262829Y-43693553D01*
X56289592Y-43686382D01*
X56289603Y-43686378D01*
X56294910Y-43684956D01*
X56364313Y-43652593D01*
X56481577Y-43597912D01*
X56481580Y-43597910D01*
X56486558Y-43595589D01*
X56659776Y-43474301D01*
X56668672Y-43465405D01*
X56730984Y-43431379D01*
X56757767Y-43428500D01*
X59610543Y-43428500D01*
X59630255Y-43430051D01*
X59643507Y-43432150D01*
X59650094Y-43431805D01*
X59650098Y-43431805D01*
X59709850Y-43428673D01*
X59716445Y-43428500D01*
X59736306Y-43428500D01*
X59756069Y-43426423D01*
X59762628Y-43425907D01*
X59778427Y-43425079D01*
X59822377Y-43422776D01*
X59822381Y-43422775D01*
X59828971Y-43422430D01*
X59841929Y-43418958D01*
X59861372Y-43415355D01*
X59861795Y-43415311D01*
X59874702Y-43413954D01*
X59937894Y-43393422D01*
X59944196Y-43391556D01*
X60001985Y-43376071D01*
X60008363Y-43374362D01*
X60014242Y-43371366D01*
X60014251Y-43371363D01*
X60020317Y-43368272D01*
X60038579Y-43360708D01*
X60045043Y-43358608D01*
X60045051Y-43358605D01*
X60051331Y-43356564D01*
X60057050Y-43353262D01*
X60057055Y-43353260D01*
X60108867Y-43323346D01*
X60114637Y-43320213D01*
X60173839Y-43290047D01*
X60184259Y-43281609D01*
X60200552Y-43270411D01*
X60200903Y-43270209D01*
X60212169Y-43263704D01*
X60217075Y-43259287D01*
X60217080Y-43259283D01*
X60261538Y-43219253D01*
X60266554Y-43214969D01*
X60279409Y-43204559D01*
X60279412Y-43204556D01*
X60281986Y-43202472D01*
X60296031Y-43188427D01*
X60300816Y-43183886D01*
X60345274Y-43143856D01*
X60345275Y-43143855D01*
X60350185Y-43139434D01*
X60358075Y-43128574D01*
X60370912Y-43113546D01*
X63194053Y-40290405D01*
X63256365Y-40256379D01*
X63283148Y-40253500D01*
X69770543Y-40253500D01*
X69790255Y-40255051D01*
X69803507Y-40257150D01*
X69810094Y-40256805D01*
X69810098Y-40256805D01*
X69869850Y-40253673D01*
X69876445Y-40253500D01*
X69896306Y-40253500D01*
X69916069Y-40251423D01*
X69922628Y-40250907D01*
X69938427Y-40250079D01*
X69982377Y-40247776D01*
X69982381Y-40247775D01*
X69988971Y-40247430D01*
X70001929Y-40243958D01*
X70021372Y-40240355D01*
X70021795Y-40240311D01*
X70034702Y-40238954D01*
X70097894Y-40218422D01*
X70104196Y-40216556D01*
X70161985Y-40201071D01*
X70168363Y-40199362D01*
X70174242Y-40196366D01*
X70174251Y-40196363D01*
X70180317Y-40193272D01*
X70198579Y-40185708D01*
X70205043Y-40183608D01*
X70205051Y-40183605D01*
X70211331Y-40181564D01*
X70217050Y-40178262D01*
X70217055Y-40178260D01*
X70268867Y-40148346D01*
X70274637Y-40145213D01*
X70333839Y-40115047D01*
X70344259Y-40106609D01*
X70360552Y-40095411D01*
X70360903Y-40095209D01*
X70372169Y-40088704D01*
X70377075Y-40084287D01*
X70377080Y-40084283D01*
X70421538Y-40044253D01*
X70426554Y-40039969D01*
X70439409Y-40029559D01*
X70439412Y-40029556D01*
X70441986Y-40027472D01*
X70456031Y-40013427D01*
X70460816Y-40008886D01*
X70505274Y-39968856D01*
X70505275Y-39968855D01*
X70510185Y-39964434D01*
X70518075Y-39953574D01*
X70530912Y-39938546D01*
X79318542Y-31150915D01*
X79333577Y-31138074D01*
X79339084Y-31134073D01*
X79339090Y-31134068D01*
X79344434Y-31130185D01*
X79388895Y-31080806D01*
X79393436Y-31076021D01*
X79407472Y-31061985D01*
X79419969Y-31046553D01*
X79424253Y-31041538D01*
X79464283Y-30997080D01*
X79464287Y-30997075D01*
X79468704Y-30992169D01*
X79475412Y-30980551D01*
X79486607Y-30964263D01*
X79490890Y-30958974D01*
X79490891Y-30958973D01*
X79495048Y-30953839D01*
X79525214Y-30894634D01*
X79528337Y-30888881D01*
X79561564Y-30831331D01*
X79563606Y-30825047D01*
X79563608Y-30825042D01*
X79565708Y-30818579D01*
X79573272Y-30800317D01*
X79576363Y-30794251D01*
X79576366Y-30794242D01*
X79579362Y-30788363D01*
X79596556Y-30724196D01*
X79598422Y-30717894D01*
X79618954Y-30654702D01*
X79620355Y-30641372D01*
X79623958Y-30621929D01*
X79627430Y-30608971D01*
X79630907Y-30542628D01*
X79631424Y-30536059D01*
X79633500Y-30516306D01*
X79633500Y-30496445D01*
X79633673Y-30489850D01*
X79636805Y-30430098D01*
X79636805Y-30430094D01*
X79637150Y-30423507D01*
X79635051Y-30410253D01*
X79633500Y-30390544D01*
X79633500Y-25854866D01*
X79653502Y-25786745D01*
X79670560Y-25765615D01*
X79788096Y-25648489D01*
X79843491Y-25571399D01*
X79915435Y-25471277D01*
X79918453Y-25467077D01*
X79931556Y-25440566D01*
X80015136Y-25271453D01*
X80015137Y-25271451D01*
X80017430Y-25266811D01*
X80082370Y-25053069D01*
X80111529Y-24831590D01*
X80111611Y-24828240D01*
X80113074Y-24768365D01*
X80113074Y-24768361D01*
X80113156Y-24765000D01*
X80094852Y-24542361D01*
X80040431Y-24325702D01*
X79951354Y-24120840D01*
X79866612Y-23989849D01*
X79832822Y-23937617D01*
X79832820Y-23937614D01*
X79830014Y-23933277D01*
X79679670Y-23768051D01*
X79675619Y-23764852D01*
X79675615Y-23764848D01*
X79508414Y-23632800D01*
X79508410Y-23632798D01*
X79504359Y-23629598D01*
X79308789Y-23521638D01*
X79303920Y-23519914D01*
X79303916Y-23519912D01*
X79103087Y-23448795D01*
X79103083Y-23448794D01*
X79098212Y-23447069D01*
X79093119Y-23446162D01*
X79093116Y-23446161D01*
X78883373Y-23408800D01*
X78883367Y-23408799D01*
X78878284Y-23407894D01*
X78804452Y-23406992D01*
X78660081Y-23405228D01*
X78660079Y-23405228D01*
X78654911Y-23405165D01*
X78434091Y-23438955D01*
X78221756Y-23508357D01*
X78191443Y-23524137D01*
X78040293Y-23602821D01*
X78023607Y-23611507D01*
X78019474Y-23614610D01*
X78019471Y-23614612D01*
X77849100Y-23742530D01*
X77844965Y-23745635D01*
X77828424Y-23762944D01*
X77743033Y-23852301D01*
X77690629Y-23907138D01*
X77583201Y-24064621D01*
X77528293Y-24109621D01*
X77457768Y-24117792D01*
X77394021Y-24086538D01*
X77373324Y-24062054D01*
X77292822Y-23937617D01*
X77292820Y-23937614D01*
X77290014Y-23933277D01*
X77139670Y-23768051D01*
X77135619Y-23764852D01*
X77135615Y-23764848D01*
X76968414Y-23632800D01*
X76968410Y-23632798D01*
X76964359Y-23629598D01*
X76768789Y-23521638D01*
X76763920Y-23519914D01*
X76763916Y-23519912D01*
X76563087Y-23448795D01*
X76563083Y-23448794D01*
X76558212Y-23447069D01*
X76553119Y-23446162D01*
X76553116Y-23446161D01*
X76343373Y-23408800D01*
X76343367Y-23408799D01*
X76338284Y-23407894D01*
X76264452Y-23406992D01*
X76120081Y-23405228D01*
X76120079Y-23405228D01*
X76114911Y-23405165D01*
X75894091Y-23438955D01*
X75681756Y-23508357D01*
X75651443Y-23524137D01*
X75500293Y-23602821D01*
X75483607Y-23611507D01*
X75479474Y-23614610D01*
X75479471Y-23614612D01*
X75309100Y-23742530D01*
X75304965Y-23745635D01*
X75288424Y-23762944D01*
X75203033Y-23852301D01*
X75150629Y-23907138D01*
X75043201Y-24064621D01*
X74988293Y-24109621D01*
X74917768Y-24117792D01*
X74854021Y-24086538D01*
X74833324Y-24062054D01*
X74752822Y-23937617D01*
X74752820Y-23937614D01*
X74750014Y-23933277D01*
X74599670Y-23768051D01*
X74595612Y-23764846D01*
X74593572Y-23762944D01*
X74557391Y-23701859D01*
X74553500Y-23670790D01*
X74553500Y-23642376D01*
X74555051Y-23622664D01*
X74556118Y-23615927D01*
X74557150Y-23609412D01*
X74553673Y-23543069D01*
X74553500Y-23536474D01*
X74553500Y-23516613D01*
X74551423Y-23496850D01*
X74550907Y-23490286D01*
X74547776Y-23430542D01*
X74547775Y-23430538D01*
X74547430Y-23423948D01*
X74543958Y-23410990D01*
X74540355Y-23391547D01*
X74539644Y-23384785D01*
X74538954Y-23378217D01*
X74518422Y-23315025D01*
X74516556Y-23308723D01*
X74501071Y-23250934D01*
X74499362Y-23244556D01*
X74496366Y-23238677D01*
X74496363Y-23238668D01*
X74493272Y-23232602D01*
X74485708Y-23214340D01*
X74483608Y-23207877D01*
X74483606Y-23207872D01*
X74481564Y-23201588D01*
X74448337Y-23144038D01*
X74445214Y-23138285D01*
X74415048Y-23079080D01*
X74406607Y-23068656D01*
X74395412Y-23052368D01*
X74392005Y-23046467D01*
X74392004Y-23046466D01*
X74388704Y-23040750D01*
X74384287Y-23035844D01*
X74384283Y-23035839D01*
X74344253Y-22991381D01*
X74339969Y-22986366D01*
X74329548Y-22973498D01*
X74327472Y-22970934D01*
X74313436Y-22956898D01*
X74308895Y-22952113D01*
X74268856Y-22907645D01*
X74268855Y-22907644D01*
X74264434Y-22902734D01*
X74253581Y-22894849D01*
X74238545Y-22882007D01*
X73828478Y-22471939D01*
X73815638Y-22456905D01*
X73811638Y-22451399D01*
X73811635Y-22451396D01*
X73807755Y-22446055D01*
X73758386Y-22401603D01*
X73753601Y-22397062D01*
X73739556Y-22383017D01*
X73736979Y-22380930D01*
X73724124Y-22370520D01*
X73719108Y-22366236D01*
X73674650Y-22326206D01*
X73674645Y-22326202D01*
X73669739Y-22321785D01*
X73658122Y-22315078D01*
X73641829Y-22303880D01*
X73636541Y-22299598D01*
X73631409Y-22295442D01*
X73572207Y-22265276D01*
X73566437Y-22262143D01*
X73514625Y-22232229D01*
X73514620Y-22232227D01*
X73508901Y-22228925D01*
X73502621Y-22226884D01*
X73502613Y-22226881D01*
X73496149Y-22224781D01*
X73477887Y-22217217D01*
X73471821Y-22214126D01*
X73471812Y-22214123D01*
X73465933Y-22211127D01*
X73417832Y-22198238D01*
X73401766Y-22193933D01*
X73395464Y-22192067D01*
X73332272Y-22171535D01*
X73318942Y-22170134D01*
X73299499Y-22166531D01*
X73286541Y-22163059D01*
X73279951Y-22162714D01*
X73279947Y-22162713D01*
X73235997Y-22160410D01*
X73220198Y-22159582D01*
X73213639Y-22159066D01*
X73193876Y-22156989D01*
X73174015Y-22156989D01*
X73167420Y-22156816D01*
X73107668Y-22153684D01*
X73107664Y-22153684D01*
X73101077Y-22153339D01*
X73087823Y-22155438D01*
X73068114Y-22156989D01*
X67208968Y-22156989D01*
X67189256Y-22155438D01*
X67182519Y-22154371D01*
X67182520Y-22154371D01*
X67176004Y-22153339D01*
X67169417Y-22153684D01*
X67169413Y-22153684D01*
X67109661Y-22156816D01*
X67103066Y-22156989D01*
X67083205Y-22156989D01*
X67063442Y-22159066D01*
X67056883Y-22159582D01*
X67041084Y-22160410D01*
X66997134Y-22162713D01*
X66997130Y-22162714D01*
X66990540Y-22163059D01*
X66977582Y-22166531D01*
X66958139Y-22170134D01*
X66944809Y-22171535D01*
X66881617Y-22192067D01*
X66875315Y-22193933D01*
X66859249Y-22198238D01*
X66811148Y-22211127D01*
X66805269Y-22214123D01*
X66805260Y-22214126D01*
X66799194Y-22217217D01*
X66780932Y-22224781D01*
X66774468Y-22226881D01*
X66774460Y-22226884D01*
X66768180Y-22228925D01*
X66762461Y-22232227D01*
X66762456Y-22232229D01*
X66710644Y-22262143D01*
X66704874Y-22265276D01*
X66645672Y-22295442D01*
X66640540Y-22299598D01*
X66635252Y-22303880D01*
X66618959Y-22315078D01*
X66607342Y-22321785D01*
X66602436Y-22326202D01*
X66602431Y-22326206D01*
X66557973Y-22366236D01*
X66552957Y-22370520D01*
X66540102Y-22380930D01*
X66537525Y-22383017D01*
X66523480Y-22397062D01*
X66518695Y-22401603D01*
X66469326Y-22446055D01*
X66461436Y-22456915D01*
X66448599Y-22471943D01*
X63805947Y-25114595D01*
X63743635Y-25148621D01*
X63716852Y-25151500D01*
X56122767Y-25151500D01*
X56054646Y-25131498D01*
X56033672Y-25114595D01*
X56024776Y-25105699D01*
X55851558Y-24984411D01*
X55846580Y-24982090D01*
X55846577Y-24982088D01*
X55664892Y-24897367D01*
X55664891Y-24897366D01*
X55659910Y-24895044D01*
X55654602Y-24893622D01*
X55654600Y-24893621D01*
X55460970Y-24841738D01*
X55460968Y-24841738D01*
X55455655Y-24840314D01*
X55245000Y-24821884D01*
X55034345Y-24840314D01*
X55029032Y-24841738D01*
X55029030Y-24841738D01*
X54835400Y-24893621D01*
X54835398Y-24893622D01*
X54830090Y-24895044D01*
X54825109Y-24897366D01*
X54825108Y-24897367D01*
X54643423Y-24982088D01*
X54643420Y-24982090D01*
X54638442Y-24984411D01*
X54465224Y-25105699D01*
X54315699Y-25255224D01*
X54194411Y-25428442D01*
X54192090Y-25433420D01*
X54192088Y-25433423D01*
X54128360Y-25570088D01*
X54105044Y-25620090D01*
X54103622Y-25625397D01*
X54103618Y-25625408D01*
X54096447Y-25652171D01*
X54059496Y-25712793D01*
X53995635Y-25743815D01*
X53925140Y-25735386D01*
X53870394Y-25690182D01*
X53853034Y-25652170D01*
X53845908Y-25625574D01*
X53842159Y-25615277D01*
X53757479Y-25433677D01*
X53752002Y-25424189D01*
X53637075Y-25260058D01*
X53630019Y-25251650D01*
X53488350Y-25109981D01*
X53479942Y-25102925D01*
X53315811Y-24987998D01*
X53306323Y-24982521D01*
X53124727Y-24897842D01*
X53114423Y-24894092D01*
X52976497Y-24857134D01*
X52962401Y-24857470D01*
X52959000Y-24865412D01*
X52959000Y-27199439D01*
X52962973Y-27212970D01*
X52971522Y-27214199D01*
X53114423Y-27175908D01*
X53124727Y-27172158D01*
X53306323Y-27087479D01*
X53315811Y-27082002D01*
X53479942Y-26967075D01*
X53488350Y-26960019D01*
X53630019Y-26818350D01*
X53637075Y-26809942D01*
X53752002Y-26645811D01*
X53757479Y-26636323D01*
X53842159Y-26454723D01*
X53845908Y-26444426D01*
X53853034Y-26417830D01*
X53889986Y-26357207D01*
X53953846Y-26326186D01*
X54024341Y-26334614D01*
X54079088Y-26379817D01*
X54096447Y-26417829D01*
X54103618Y-26444592D01*
X54103622Y-26444603D01*
X54105044Y-26449910D01*
X54107366Y-26454891D01*
X54107367Y-26454892D01*
X54183696Y-26618579D01*
X54194411Y-26641558D01*
X54241813Y-26709255D01*
X54293479Y-26783042D01*
X54315699Y-26814776D01*
X54319444Y-26818521D01*
X54347884Y-26883501D01*
X54336668Y-26953606D01*
X54311993Y-26988549D01*
X52136454Y-29164088D01*
X52121426Y-29176925D01*
X52110566Y-29184815D01*
X52106145Y-29189725D01*
X52106144Y-29189726D01*
X52066114Y-29234184D01*
X52061573Y-29238969D01*
X52047528Y-29253014D01*
X52045444Y-29255588D01*
X52045441Y-29255591D01*
X52035031Y-29268446D01*
X52030747Y-29273462D01*
X51990717Y-29317920D01*
X51990713Y-29317925D01*
X51986296Y-29322831D01*
X51979791Y-29334097D01*
X51979589Y-29334448D01*
X51968394Y-29350737D01*
X51959953Y-29361161D01*
X51929787Y-29420363D01*
X51926654Y-29426133D01*
X51896740Y-29477945D01*
X51896738Y-29477950D01*
X51893436Y-29483669D01*
X51891395Y-29489949D01*
X51891392Y-29489957D01*
X51889292Y-29496421D01*
X51881728Y-29514683D01*
X51878637Y-29520749D01*
X51878634Y-29520758D01*
X51875638Y-29526637D01*
X51873929Y-29533015D01*
X51858444Y-29590804D01*
X51856578Y-29597106D01*
X51836046Y-29660298D01*
X51835356Y-29666866D01*
X51834645Y-29673628D01*
X51831042Y-29693071D01*
X51827570Y-29706029D01*
X51827225Y-29712619D01*
X51827224Y-29712623D01*
X51824093Y-29772367D01*
X51823577Y-29778931D01*
X51821500Y-29798694D01*
X51821500Y-29818555D01*
X51821327Y-29825150D01*
X51818415Y-29880716D01*
X51817850Y-29891493D01*
X51818882Y-29898007D01*
X51819949Y-29904744D01*
X51821500Y-29924456D01*
X51821500Y-30095812D01*
X51801498Y-30163933D01*
X51784595Y-30184907D01*
X51698802Y-30270700D01*
X51567477Y-30458251D01*
X51565154Y-30463233D01*
X51565151Y-30463238D01*
X51549195Y-30497457D01*
X51502278Y-30550742D01*
X51434001Y-30570203D01*
X51366041Y-30549661D01*
X51320805Y-30497457D01*
X51304849Y-30463238D01*
X51304846Y-30463233D01*
X51302523Y-30458251D01*
X51171198Y-30270700D01*
X51085405Y-30184907D01*
X51051379Y-30122595D01*
X51048500Y-30095812D01*
X51048500Y-29924457D01*
X51050051Y-29904745D01*
X51051118Y-29898008D01*
X51051118Y-29898007D01*
X51052150Y-29891493D01*
X51051586Y-29880716D01*
X51048673Y-29825150D01*
X51048500Y-29818555D01*
X51048500Y-29798694D01*
X51046423Y-29778931D01*
X51045907Y-29772367D01*
X51042776Y-29712623D01*
X51042775Y-29712619D01*
X51042430Y-29706029D01*
X51038958Y-29693071D01*
X51035355Y-29673628D01*
X51034644Y-29666866D01*
X51033954Y-29660298D01*
X51013422Y-29597106D01*
X51011556Y-29590804D01*
X50996071Y-29533015D01*
X50994362Y-29526637D01*
X50991366Y-29520758D01*
X50991363Y-29520749D01*
X50988272Y-29514683D01*
X50980708Y-29496421D01*
X50978608Y-29489958D01*
X50978606Y-29489953D01*
X50976564Y-29483669D01*
X50943337Y-29426119D01*
X50940214Y-29420366D01*
X50910048Y-29361161D01*
X50901607Y-29350737D01*
X50890412Y-29334449D01*
X50887005Y-29328548D01*
X50887004Y-29328547D01*
X50883704Y-29322831D01*
X50879287Y-29317925D01*
X50879283Y-29317920D01*
X50839253Y-29273462D01*
X50834969Y-29268447D01*
X50824548Y-29255579D01*
X50822472Y-29253015D01*
X50808436Y-29238979D01*
X50803895Y-29234194D01*
X50763856Y-29189726D01*
X50763855Y-29189725D01*
X50759434Y-29184815D01*
X50754094Y-29180935D01*
X50754086Y-29180928D01*
X50748578Y-29176927D01*
X50733543Y-29164086D01*
X47870980Y-26301522D01*
X51525801Y-26301522D01*
X51564092Y-26444423D01*
X51567842Y-26454727D01*
X51652521Y-26636323D01*
X51657998Y-26645811D01*
X51772925Y-26809942D01*
X51779981Y-26818350D01*
X51921650Y-26960019D01*
X51930058Y-26967075D01*
X52094189Y-27082002D01*
X52103677Y-27087479D01*
X52285273Y-27172158D01*
X52295577Y-27175908D01*
X52433503Y-27212866D01*
X52447599Y-27212530D01*
X52451000Y-27204588D01*
X52451000Y-26307115D01*
X52446525Y-26291876D01*
X52445135Y-26290671D01*
X52437452Y-26289000D01*
X51540561Y-26289000D01*
X51527030Y-26292973D01*
X51525801Y-26301522D01*
X47870980Y-26301522D01*
X47332961Y-25763503D01*
X51527134Y-25763503D01*
X51527470Y-25777599D01*
X51535412Y-25781000D01*
X52432885Y-25781000D01*
X52448124Y-25776525D01*
X52449329Y-25775135D01*
X52451000Y-25767452D01*
X52451000Y-24870561D01*
X52447027Y-24857030D01*
X52438478Y-24855801D01*
X52295577Y-24894092D01*
X52285273Y-24897842D01*
X52103677Y-24982521D01*
X52094189Y-24987998D01*
X51930058Y-25102925D01*
X51921650Y-25109981D01*
X51779981Y-25251650D01*
X51772925Y-25260058D01*
X51657998Y-25424189D01*
X51652521Y-25433677D01*
X51567842Y-25615273D01*
X51564092Y-25625577D01*
X51527134Y-25763503D01*
X47332961Y-25763503D01*
X47035912Y-25466454D01*
X47023075Y-25451426D01*
X47015185Y-25440566D01*
X46996997Y-25424189D01*
X46965816Y-25396114D01*
X46961031Y-25391573D01*
X46946986Y-25377528D01*
X46944409Y-25375441D01*
X46931554Y-25365031D01*
X46926538Y-25360747D01*
X46882080Y-25320717D01*
X46882075Y-25320713D01*
X46877169Y-25316296D01*
X46865552Y-25309589D01*
X46849259Y-25298391D01*
X46843971Y-25294109D01*
X46838839Y-25289953D01*
X46779637Y-25259787D01*
X46773867Y-25256654D01*
X46722055Y-25226740D01*
X46722050Y-25226738D01*
X46716331Y-25223436D01*
X46710051Y-25221395D01*
X46710043Y-25221392D01*
X46703579Y-25219292D01*
X46685317Y-25211728D01*
X46679251Y-25208637D01*
X46679242Y-25208634D01*
X46673363Y-25205638D01*
X46662672Y-25202773D01*
X46609196Y-25188444D01*
X46602894Y-25186578D01*
X46539702Y-25166046D01*
X46526372Y-25164645D01*
X46506929Y-25161042D01*
X46493971Y-25157570D01*
X46487381Y-25157225D01*
X46487377Y-25157224D01*
X46443427Y-25154921D01*
X46427628Y-25154093D01*
X46421069Y-25153577D01*
X46401306Y-25151500D01*
X46381445Y-25151500D01*
X46374850Y-25151327D01*
X46315098Y-25148195D01*
X46315094Y-25148195D01*
X46308507Y-25147850D01*
X46295253Y-25149949D01*
X46275544Y-25151500D01*
X44868148Y-25151500D01*
X44800027Y-25131498D01*
X44779053Y-25114595D01*
X43932795Y-24268337D01*
X43898769Y-24206025D01*
X43903834Y-24135210D01*
X43946325Y-24078416D01*
X44026081Y-24018642D01*
X44033261Y-24013261D01*
X44120615Y-23896705D01*
X44171745Y-23760316D01*
X44172917Y-23749526D01*
X44173803Y-23747394D01*
X44174425Y-23744778D01*
X44174848Y-23744879D01*
X44200155Y-23683965D01*
X44258517Y-23643537D01*
X44329471Y-23641078D01*
X44390490Y-23677371D01*
X44397489Y-23686031D01*
X44400643Y-23689789D01*
X44403802Y-23694300D01*
X44565700Y-23856198D01*
X44570208Y-23859355D01*
X44570211Y-23859357D01*
X44611542Y-23888297D01*
X44753251Y-23987523D01*
X44758233Y-23989846D01*
X44758238Y-23989849D01*
X44948173Y-24078416D01*
X44960757Y-24084284D01*
X44966065Y-24085706D01*
X44966067Y-24085707D01*
X45176598Y-24142119D01*
X45176600Y-24142119D01*
X45181913Y-24143543D01*
X45410000Y-24163498D01*
X45638087Y-24143543D01*
X45643400Y-24142119D01*
X45643402Y-24142119D01*
X45853933Y-24085707D01*
X45853935Y-24085706D01*
X45859243Y-24084284D01*
X45871827Y-24078416D01*
X46061762Y-23989849D01*
X46061767Y-23989846D01*
X46066749Y-23987523D01*
X46208458Y-23888297D01*
X46249789Y-23859357D01*
X46249792Y-23859355D01*
X46254300Y-23856198D01*
X46416198Y-23694300D01*
X46547523Y-23506749D01*
X46549846Y-23501767D01*
X46549849Y-23501762D01*
X46565805Y-23467543D01*
X46612722Y-23414258D01*
X46680999Y-23394797D01*
X46748959Y-23415339D01*
X46794195Y-23467543D01*
X46810151Y-23501762D01*
X46810154Y-23501767D01*
X46812477Y-23506749D01*
X46943802Y-23694300D01*
X47105700Y-23856198D01*
X47110208Y-23859355D01*
X47110211Y-23859357D01*
X47151542Y-23888297D01*
X47293251Y-23987523D01*
X47298233Y-23989846D01*
X47298238Y-23989849D01*
X47488173Y-24078416D01*
X47500757Y-24084284D01*
X47506065Y-24085706D01*
X47506067Y-24085707D01*
X47716598Y-24142119D01*
X47716600Y-24142119D01*
X47721913Y-24143543D01*
X47950000Y-24163498D01*
X48178087Y-24143543D01*
X48183400Y-24142119D01*
X48183402Y-24142119D01*
X48393933Y-24085707D01*
X48393935Y-24085706D01*
X48399243Y-24084284D01*
X48411827Y-24078416D01*
X48601762Y-23989849D01*
X48601767Y-23989846D01*
X48606749Y-23987523D01*
X48748458Y-23888297D01*
X48789789Y-23859357D01*
X48789792Y-23859355D01*
X48794300Y-23856198D01*
X48956198Y-23694300D01*
X49087523Y-23506749D01*
X49089846Y-23501767D01*
X49089849Y-23501762D01*
X49105805Y-23467543D01*
X49152722Y-23414258D01*
X49220999Y-23394797D01*
X49288959Y-23415339D01*
X49334195Y-23467543D01*
X49350151Y-23501762D01*
X49350154Y-23501767D01*
X49352477Y-23506749D01*
X49483802Y-23694300D01*
X49645700Y-23856198D01*
X49650208Y-23859355D01*
X49650211Y-23859357D01*
X49691542Y-23888297D01*
X49833251Y-23987523D01*
X49838233Y-23989846D01*
X49838238Y-23989849D01*
X50028173Y-24078416D01*
X50040757Y-24084284D01*
X50046065Y-24085706D01*
X50046067Y-24085707D01*
X50256598Y-24142119D01*
X50256600Y-24142119D01*
X50261913Y-24143543D01*
X50490000Y-24163498D01*
X50718087Y-24143543D01*
X50723400Y-24142119D01*
X50723402Y-24142119D01*
X50933933Y-24085707D01*
X50933935Y-24085706D01*
X50939243Y-24084284D01*
X50951827Y-24078416D01*
X51141762Y-23989849D01*
X51141767Y-23989846D01*
X51146749Y-23987523D01*
X51288458Y-23888297D01*
X51329789Y-23859357D01*
X51329792Y-23859355D01*
X51334300Y-23856198D01*
X51496198Y-23694300D01*
X51627523Y-23506749D01*
X51629846Y-23501767D01*
X51629849Y-23501762D01*
X51645805Y-23467543D01*
X51692722Y-23414258D01*
X51760999Y-23394797D01*
X51828959Y-23415339D01*
X51874195Y-23467543D01*
X51890151Y-23501762D01*
X51890154Y-23501767D01*
X51892477Y-23506749D01*
X52023802Y-23694300D01*
X52185700Y-23856198D01*
X52190208Y-23859355D01*
X52190211Y-23859357D01*
X52231542Y-23888297D01*
X52373251Y-23987523D01*
X52378233Y-23989846D01*
X52378238Y-23989849D01*
X52568173Y-24078416D01*
X52580757Y-24084284D01*
X52586065Y-24085706D01*
X52586067Y-24085707D01*
X52796598Y-24142119D01*
X52796600Y-24142119D01*
X52801913Y-24143543D01*
X53030000Y-24163498D01*
X53258087Y-24143543D01*
X53263400Y-24142119D01*
X53263402Y-24142119D01*
X53473933Y-24085707D01*
X53473935Y-24085706D01*
X53479243Y-24084284D01*
X53491827Y-24078416D01*
X53681762Y-23989849D01*
X53681767Y-23989846D01*
X53686749Y-23987523D01*
X53828458Y-23888297D01*
X53869789Y-23859357D01*
X53869792Y-23859355D01*
X53874300Y-23856198D01*
X54036198Y-23694300D01*
X54167523Y-23506749D01*
X54169846Y-23501767D01*
X54169849Y-23501762D01*
X54185805Y-23467543D01*
X54232722Y-23414258D01*
X54300999Y-23394797D01*
X54368959Y-23415339D01*
X54414195Y-23467543D01*
X54430151Y-23501762D01*
X54430154Y-23501767D01*
X54432477Y-23506749D01*
X54563802Y-23694300D01*
X54725700Y-23856198D01*
X54730208Y-23859355D01*
X54730211Y-23859357D01*
X54771542Y-23888297D01*
X54913251Y-23987523D01*
X54918233Y-23989846D01*
X54918238Y-23989849D01*
X55108173Y-24078416D01*
X55120757Y-24084284D01*
X55126065Y-24085706D01*
X55126067Y-24085707D01*
X55336598Y-24142119D01*
X55336600Y-24142119D01*
X55341913Y-24143543D01*
X55570000Y-24163498D01*
X55798087Y-24143543D01*
X55803400Y-24142119D01*
X55803402Y-24142119D01*
X56013933Y-24085707D01*
X56013935Y-24085706D01*
X56019243Y-24084284D01*
X56031827Y-24078416D01*
X56221762Y-23989849D01*
X56221767Y-23989846D01*
X56226749Y-23987523D01*
X56368458Y-23888297D01*
X56409789Y-23859357D01*
X56409792Y-23859355D01*
X56414300Y-23856198D01*
X56576198Y-23694300D01*
X56707523Y-23506749D01*
X56709846Y-23501767D01*
X56709849Y-23501762D01*
X56725805Y-23467543D01*
X56772722Y-23414258D01*
X56840999Y-23394797D01*
X56908959Y-23415339D01*
X56954195Y-23467543D01*
X56970151Y-23501762D01*
X56970154Y-23501767D01*
X56972477Y-23506749D01*
X57103802Y-23694300D01*
X57265700Y-23856198D01*
X57270208Y-23859355D01*
X57270211Y-23859357D01*
X57311542Y-23888297D01*
X57453251Y-23987523D01*
X57458233Y-23989846D01*
X57458238Y-23989849D01*
X57648173Y-24078416D01*
X57660757Y-24084284D01*
X57666065Y-24085706D01*
X57666067Y-24085707D01*
X57876598Y-24142119D01*
X57876600Y-24142119D01*
X57881913Y-24143543D01*
X58110000Y-24163498D01*
X58338087Y-24143543D01*
X58343400Y-24142119D01*
X58343402Y-24142119D01*
X58553933Y-24085707D01*
X58553935Y-24085706D01*
X58559243Y-24084284D01*
X58571827Y-24078416D01*
X58761762Y-23989849D01*
X58761767Y-23989846D01*
X58766749Y-23987523D01*
X58908458Y-23888297D01*
X58949789Y-23859357D01*
X58949792Y-23859355D01*
X58954300Y-23856198D01*
X59116198Y-23694300D01*
X59247523Y-23506749D01*
X59249846Y-23501767D01*
X59249849Y-23501762D01*
X59265805Y-23467543D01*
X59312722Y-23414258D01*
X59380999Y-23394797D01*
X59448959Y-23415339D01*
X59494195Y-23467543D01*
X59510151Y-23501762D01*
X59510154Y-23501767D01*
X59512477Y-23506749D01*
X59643802Y-23694300D01*
X59805700Y-23856198D01*
X59810208Y-23859355D01*
X59810211Y-23859357D01*
X59851542Y-23888297D01*
X59993251Y-23987523D01*
X59998233Y-23989846D01*
X59998238Y-23989849D01*
X60188173Y-24078416D01*
X60200757Y-24084284D01*
X60206065Y-24085706D01*
X60206067Y-24085707D01*
X60416598Y-24142119D01*
X60416600Y-24142119D01*
X60421913Y-24143543D01*
X60650000Y-24163498D01*
X60878087Y-24143543D01*
X60883400Y-24142119D01*
X60883402Y-24142119D01*
X61093933Y-24085707D01*
X61093935Y-24085706D01*
X61099243Y-24084284D01*
X61111827Y-24078416D01*
X61301762Y-23989849D01*
X61301767Y-23989846D01*
X61306749Y-23987523D01*
X61448458Y-23888297D01*
X61489789Y-23859357D01*
X61489792Y-23859355D01*
X61494300Y-23856198D01*
X61656198Y-23694300D01*
X61787523Y-23506749D01*
X61789846Y-23501767D01*
X61789849Y-23501762D01*
X61805805Y-23467543D01*
X61852722Y-23414258D01*
X61920999Y-23394797D01*
X61988959Y-23415339D01*
X62034195Y-23467543D01*
X62050151Y-23501762D01*
X62050154Y-23501767D01*
X62052477Y-23506749D01*
X62183802Y-23694300D01*
X62345700Y-23856198D01*
X62350208Y-23859355D01*
X62350211Y-23859357D01*
X62391542Y-23888297D01*
X62533251Y-23987523D01*
X62538233Y-23989846D01*
X62538238Y-23989849D01*
X62728173Y-24078416D01*
X62740757Y-24084284D01*
X62746065Y-24085706D01*
X62746067Y-24085707D01*
X62956598Y-24142119D01*
X62956600Y-24142119D01*
X62961913Y-24143543D01*
X63190000Y-24163498D01*
X63418087Y-24143543D01*
X63423400Y-24142119D01*
X63423402Y-24142119D01*
X63633933Y-24085707D01*
X63633935Y-24085706D01*
X63639243Y-24084284D01*
X63651827Y-24078416D01*
X63841762Y-23989849D01*
X63841767Y-23989846D01*
X63846749Y-23987523D01*
X63988458Y-23888297D01*
X64029789Y-23859357D01*
X64029792Y-23859355D01*
X64034300Y-23856198D01*
X64196198Y-23694300D01*
X64327523Y-23506749D01*
X64329846Y-23501767D01*
X64329849Y-23501762D01*
X64421961Y-23304225D01*
X64421961Y-23304224D01*
X64424284Y-23299243D01*
X64437229Y-23250934D01*
X64482119Y-23083402D01*
X64482119Y-23083400D01*
X64483543Y-23078087D01*
X64503498Y-22850000D01*
X64483543Y-22621913D01*
X64460000Y-22534050D01*
X64425707Y-22406067D01*
X64425706Y-22406065D01*
X64424284Y-22400757D01*
X64415039Y-22380930D01*
X64329849Y-22198238D01*
X64329846Y-22198233D01*
X64327523Y-22193251D01*
X64217689Y-22036392D01*
X64199357Y-22010211D01*
X64199355Y-22010208D01*
X64196198Y-22005700D01*
X64034300Y-21843802D01*
X64029792Y-21840645D01*
X64029789Y-21840643D01*
X63951611Y-21785902D01*
X63846749Y-21712477D01*
X63841767Y-21710154D01*
X63841762Y-21710151D01*
X63644225Y-21618039D01*
X63644224Y-21618039D01*
X63639243Y-21615716D01*
X63633935Y-21614294D01*
X63633933Y-21614293D01*
X63423402Y-21557881D01*
X63423400Y-21557881D01*
X63418087Y-21556457D01*
X63190000Y-21536502D01*
X62961913Y-21556457D01*
X62956600Y-21557881D01*
X62956598Y-21557881D01*
X62746067Y-21614293D01*
X62746065Y-21614294D01*
X62740757Y-21615716D01*
X62735776Y-21618039D01*
X62735775Y-21618039D01*
X62538238Y-21710151D01*
X62538233Y-21710154D01*
X62533251Y-21712477D01*
X62428389Y-21785902D01*
X62350211Y-21840643D01*
X62350208Y-21840645D01*
X62345700Y-21843802D01*
X62183802Y-22005700D01*
X62180645Y-22010208D01*
X62180643Y-22010211D01*
X62162311Y-22036392D01*
X62052477Y-22193251D01*
X62050154Y-22198233D01*
X62050151Y-22198238D01*
X62034195Y-22232457D01*
X61987278Y-22285742D01*
X61919001Y-22305203D01*
X61851041Y-22284661D01*
X61805805Y-22232457D01*
X61789849Y-22198238D01*
X61789846Y-22198233D01*
X61787523Y-22193251D01*
X61677689Y-22036392D01*
X61659357Y-22010211D01*
X61659355Y-22010208D01*
X61656198Y-22005700D01*
X61494300Y-21843802D01*
X61489792Y-21840645D01*
X61489789Y-21840643D01*
X61411611Y-21785902D01*
X61306749Y-21712477D01*
X61301767Y-21710154D01*
X61301762Y-21710151D01*
X61104225Y-21618039D01*
X61104224Y-21618039D01*
X61099243Y-21615716D01*
X61093935Y-21614294D01*
X61093933Y-21614293D01*
X60883402Y-21557881D01*
X60883400Y-21557881D01*
X60878087Y-21556457D01*
X60650000Y-21536502D01*
X60421913Y-21556457D01*
X60416600Y-21557881D01*
X60416598Y-21557881D01*
X60206067Y-21614293D01*
X60206065Y-21614294D01*
X60200757Y-21615716D01*
X60195776Y-21618039D01*
X60195775Y-21618039D01*
X59998238Y-21710151D01*
X59998233Y-21710154D01*
X59993251Y-21712477D01*
X59888389Y-21785902D01*
X59810211Y-21840643D01*
X59810208Y-21840645D01*
X59805700Y-21843802D01*
X59643802Y-22005700D01*
X59640645Y-22010208D01*
X59640643Y-22010211D01*
X59622311Y-22036392D01*
X59512477Y-22193251D01*
X59510154Y-22198233D01*
X59510151Y-22198238D01*
X59494195Y-22232457D01*
X59447278Y-22285742D01*
X59379001Y-22305203D01*
X59311041Y-22284661D01*
X59265805Y-22232457D01*
X59249849Y-22198238D01*
X59249846Y-22198233D01*
X59247523Y-22193251D01*
X59137689Y-22036392D01*
X59119357Y-22010211D01*
X59119355Y-22010208D01*
X59116198Y-22005700D01*
X58954300Y-21843802D01*
X58949792Y-21840645D01*
X58949789Y-21840643D01*
X58871611Y-21785902D01*
X58766749Y-21712477D01*
X58761767Y-21710154D01*
X58761762Y-21710151D01*
X58564225Y-21618039D01*
X58564224Y-21618039D01*
X58559243Y-21615716D01*
X58553935Y-21614294D01*
X58553933Y-21614293D01*
X58343402Y-21557881D01*
X58343400Y-21557881D01*
X58338087Y-21556457D01*
X58110000Y-21536502D01*
X57881913Y-21556457D01*
X57876600Y-21557881D01*
X57876598Y-21557881D01*
X57666067Y-21614293D01*
X57666065Y-21614294D01*
X57660757Y-21615716D01*
X57655776Y-21618039D01*
X57655775Y-21618039D01*
X57458238Y-21710151D01*
X57458233Y-21710154D01*
X57453251Y-21712477D01*
X57348389Y-21785902D01*
X57270211Y-21840643D01*
X57270208Y-21840645D01*
X57265700Y-21843802D01*
X57103802Y-22005700D01*
X57100645Y-22010208D01*
X57100643Y-22010211D01*
X57082311Y-22036392D01*
X56972477Y-22193251D01*
X56970154Y-22198233D01*
X56970151Y-22198238D01*
X56954195Y-22232457D01*
X56907278Y-22285742D01*
X56839001Y-22305203D01*
X56771041Y-22284661D01*
X56725805Y-22232457D01*
X56709849Y-22198238D01*
X56709846Y-22198233D01*
X56707523Y-22193251D01*
X56597689Y-22036392D01*
X56579357Y-22010211D01*
X56579355Y-22010208D01*
X56576198Y-22005700D01*
X56414300Y-21843802D01*
X56409792Y-21840645D01*
X56409789Y-21840643D01*
X56331611Y-21785902D01*
X56226749Y-21712477D01*
X56221767Y-21710154D01*
X56221762Y-21710151D01*
X56024225Y-21618039D01*
X56024224Y-21618039D01*
X56019243Y-21615716D01*
X56013935Y-21614294D01*
X56013933Y-21614293D01*
X55803402Y-21557881D01*
X55803400Y-21557881D01*
X55798087Y-21556457D01*
X55570000Y-21536502D01*
X55341913Y-21556457D01*
X55336600Y-21557881D01*
X55336598Y-21557881D01*
X55126067Y-21614293D01*
X55126065Y-21614294D01*
X55120757Y-21615716D01*
X55115776Y-21618039D01*
X55115775Y-21618039D01*
X54918238Y-21710151D01*
X54918233Y-21710154D01*
X54913251Y-21712477D01*
X54808389Y-21785902D01*
X54730211Y-21840643D01*
X54730208Y-21840645D01*
X54725700Y-21843802D01*
X54563802Y-22005700D01*
X54560645Y-22010208D01*
X54560643Y-22010211D01*
X54542311Y-22036392D01*
X54432477Y-22193251D01*
X54430154Y-22198233D01*
X54430151Y-22198238D01*
X54414195Y-22232457D01*
X54367278Y-22285742D01*
X54299001Y-22305203D01*
X54231041Y-22284661D01*
X54185805Y-22232457D01*
X54169849Y-22198238D01*
X54169846Y-22198233D01*
X54167523Y-22193251D01*
X54057689Y-22036392D01*
X54039357Y-22010211D01*
X54039355Y-22010208D01*
X54036198Y-22005700D01*
X53874300Y-21843802D01*
X53869792Y-21840645D01*
X53869789Y-21840643D01*
X53791611Y-21785902D01*
X53686749Y-21712477D01*
X53681767Y-21710154D01*
X53681762Y-21710151D01*
X53484225Y-21618039D01*
X53484224Y-21618039D01*
X53479243Y-21615716D01*
X53473935Y-21614294D01*
X53473933Y-21614293D01*
X53263402Y-21557881D01*
X53263400Y-21557881D01*
X53258087Y-21556457D01*
X53030000Y-21536502D01*
X52801913Y-21556457D01*
X52796600Y-21557881D01*
X52796598Y-21557881D01*
X52586067Y-21614293D01*
X52586065Y-21614294D01*
X52580757Y-21615716D01*
X52575776Y-21618039D01*
X52575775Y-21618039D01*
X52378238Y-21710151D01*
X52378233Y-21710154D01*
X52373251Y-21712477D01*
X52268389Y-21785902D01*
X52190211Y-21840643D01*
X52190208Y-21840645D01*
X52185700Y-21843802D01*
X52023802Y-22005700D01*
X52020645Y-22010208D01*
X52020643Y-22010211D01*
X52002311Y-22036392D01*
X51892477Y-22193251D01*
X51890154Y-22198233D01*
X51890151Y-22198238D01*
X51874195Y-22232457D01*
X51827278Y-22285742D01*
X51759001Y-22305203D01*
X51691041Y-22284661D01*
X51645805Y-22232457D01*
X51629849Y-22198238D01*
X51629846Y-22198233D01*
X51627523Y-22193251D01*
X51517689Y-22036392D01*
X51499357Y-22010211D01*
X51499355Y-22010208D01*
X51496198Y-22005700D01*
X51334300Y-21843802D01*
X51329792Y-21840645D01*
X51329789Y-21840643D01*
X51251611Y-21785902D01*
X51146749Y-21712477D01*
X51141767Y-21710154D01*
X51141762Y-21710151D01*
X50944225Y-21618039D01*
X50944224Y-21618039D01*
X50939243Y-21615716D01*
X50933935Y-21614294D01*
X50933933Y-21614293D01*
X50723402Y-21557881D01*
X50723400Y-21557881D01*
X50718087Y-21556457D01*
X50490000Y-21536502D01*
X50261913Y-21556457D01*
X50256600Y-21557881D01*
X50256598Y-21557881D01*
X50046067Y-21614293D01*
X50046065Y-21614294D01*
X50040757Y-21615716D01*
X50035776Y-21618039D01*
X50035775Y-21618039D01*
X49838238Y-21710151D01*
X49838233Y-21710154D01*
X49833251Y-21712477D01*
X49728389Y-21785902D01*
X49650211Y-21840643D01*
X49650208Y-21840645D01*
X49645700Y-21843802D01*
X49483802Y-22005700D01*
X49480645Y-22010208D01*
X49480643Y-22010211D01*
X49462311Y-22036392D01*
X49352477Y-22193251D01*
X49350154Y-22198233D01*
X49350151Y-22198238D01*
X49334195Y-22232457D01*
X49287278Y-22285742D01*
X49219001Y-22305203D01*
X49151041Y-22284661D01*
X49105805Y-22232457D01*
X49089849Y-22198238D01*
X49089846Y-22198233D01*
X49087523Y-22193251D01*
X48977689Y-22036392D01*
X48959357Y-22010211D01*
X48959355Y-22010208D01*
X48956198Y-22005700D01*
X48794300Y-21843802D01*
X48789792Y-21840645D01*
X48789789Y-21840643D01*
X48711611Y-21785902D01*
X48606749Y-21712477D01*
X48601767Y-21710154D01*
X48601762Y-21710151D01*
X48404225Y-21618039D01*
X48404224Y-21618039D01*
X48399243Y-21615716D01*
X48393935Y-21614294D01*
X48393933Y-21614293D01*
X48183402Y-21557881D01*
X48183400Y-21557881D01*
X48178087Y-21556457D01*
X47950000Y-21536502D01*
X47721913Y-21556457D01*
X47716600Y-21557881D01*
X47716598Y-21557881D01*
X47506067Y-21614293D01*
X47506065Y-21614294D01*
X47500757Y-21615716D01*
X47495776Y-21618039D01*
X47495775Y-21618039D01*
X47298238Y-21710151D01*
X47298233Y-21710154D01*
X47293251Y-21712477D01*
X47188389Y-21785902D01*
X47110211Y-21840643D01*
X47110208Y-21840645D01*
X47105700Y-21843802D01*
X46943802Y-22005700D01*
X46940645Y-22010208D01*
X46940643Y-22010211D01*
X46922311Y-22036392D01*
X46812477Y-22193251D01*
X46810154Y-22198233D01*
X46810151Y-22198238D01*
X46794195Y-22232457D01*
X46747278Y-22285742D01*
X46679001Y-22305203D01*
X46611041Y-22284661D01*
X46565805Y-22232457D01*
X46549849Y-22198238D01*
X46549846Y-22198233D01*
X46547523Y-22193251D01*
X46437689Y-22036392D01*
X46419357Y-22010211D01*
X46419355Y-22010208D01*
X46416198Y-22005700D01*
X46254300Y-21843802D01*
X46249792Y-21840645D01*
X46249789Y-21840643D01*
X46171611Y-21785902D01*
X46066749Y-21712477D01*
X46061767Y-21710154D01*
X46061762Y-21710151D01*
X45864225Y-21618039D01*
X45864224Y-21618039D01*
X45859243Y-21615716D01*
X45853935Y-21614294D01*
X45853933Y-21614293D01*
X45671369Y-21565375D01*
X45610746Y-21528423D01*
X45579725Y-21464562D01*
X45588153Y-21394068D01*
X45614885Y-21354573D01*
X45934053Y-21035405D01*
X45996365Y-21001379D01*
X46023148Y-20998500D01*
X69662130Y-20998500D01*
X69730251Y-21018502D01*
X69776744Y-21072158D01*
X69780112Y-21080270D01*
X69829385Y-21211705D01*
X69916739Y-21328261D01*
X70033295Y-21415615D01*
X70169684Y-21466745D01*
X70231866Y-21473500D01*
X72028134Y-21473500D01*
X72090316Y-21466745D01*
X72226705Y-21415615D01*
X72343261Y-21328261D01*
X72430615Y-21211705D01*
X72474598Y-21094381D01*
X72517240Y-21037617D01*
X72583801Y-21012917D01*
X72653150Y-21028124D01*
X72687814Y-21056111D01*
X72716250Y-21088938D01*
X72888126Y-21231632D01*
X73081000Y-21344338D01*
X73085825Y-21346180D01*
X73085826Y-21346181D01*
X73158612Y-21373975D01*
X73289692Y-21424030D01*
X73294760Y-21425061D01*
X73294763Y-21425062D01*
X73402017Y-21446883D01*
X73508597Y-21468567D01*
X73513772Y-21468757D01*
X73513774Y-21468757D01*
X73726673Y-21476564D01*
X73726677Y-21476564D01*
X73731837Y-21476753D01*
X73736957Y-21476097D01*
X73736959Y-21476097D01*
X73948288Y-21449025D01*
X73948289Y-21449025D01*
X73953416Y-21448368D01*
X73958366Y-21446883D01*
X74162429Y-21385661D01*
X74162434Y-21385659D01*
X74167384Y-21384174D01*
X74367994Y-21285896D01*
X74549860Y-21156173D01*
X74671208Y-21035249D01*
X74733579Y-21001333D01*
X74760147Y-20998500D01*
X75120357Y-20998500D01*
X75188478Y-21018502D01*
X75215589Y-21041998D01*
X75256250Y-21088938D01*
X75428126Y-21231632D01*
X75621000Y-21344338D01*
X75625825Y-21346180D01*
X75625826Y-21346181D01*
X75698612Y-21373975D01*
X75829692Y-21424030D01*
X75834760Y-21425061D01*
X75834763Y-21425062D01*
X75942017Y-21446883D01*
X76048597Y-21468567D01*
X76053772Y-21468757D01*
X76053774Y-21468757D01*
X76266673Y-21476564D01*
X76266677Y-21476564D01*
X76271837Y-21476753D01*
X76276957Y-21476097D01*
X76276959Y-21476097D01*
X76488288Y-21449025D01*
X76488289Y-21449025D01*
X76493416Y-21448368D01*
X76498366Y-21446883D01*
X76702429Y-21385661D01*
X76702434Y-21385659D01*
X76707384Y-21384174D01*
X76907994Y-21285896D01*
X77089860Y-21156173D01*
X77211208Y-21035249D01*
X77273579Y-21001333D01*
X77300147Y-20998500D01*
X77660357Y-20998500D01*
X77728478Y-21018502D01*
X77755589Y-21041998D01*
X77796250Y-21088938D01*
X77968126Y-21231632D01*
X78161000Y-21344338D01*
X78165825Y-21346180D01*
X78165826Y-21346181D01*
X78238612Y-21373975D01*
X78369692Y-21424030D01*
X78374760Y-21425061D01*
X78374763Y-21425062D01*
X78482017Y-21446883D01*
X78588597Y-21468567D01*
X78593772Y-21468757D01*
X78593774Y-21468757D01*
X78806673Y-21476564D01*
X78806677Y-21476564D01*
X78811837Y-21476753D01*
X78816957Y-21476097D01*
X78816959Y-21476097D01*
X79028288Y-21449025D01*
X79028289Y-21449025D01*
X79033416Y-21448368D01*
X79038366Y-21446883D01*
X79242429Y-21385661D01*
X79242434Y-21385659D01*
X79247384Y-21384174D01*
X79447994Y-21285896D01*
X79629860Y-21156173D01*
X79788096Y-20998489D01*
X79918453Y-20817077D01*
X80017430Y-20616811D01*
X80082370Y-20403069D01*
X80111529Y-20181590D01*
X80113156Y-20115000D01*
X80094852Y-19892361D01*
X80040431Y-19675702D01*
X79951354Y-19470840D01*
X79845193Y-19306740D01*
X79832822Y-19287617D01*
X79832820Y-19287614D01*
X79830014Y-19283277D01*
X79679670Y-19118051D01*
X79675619Y-19114852D01*
X79675615Y-19114848D01*
X79508414Y-18982800D01*
X79508410Y-18982798D01*
X79504359Y-18979598D01*
X79308789Y-18871638D01*
X79303920Y-18869914D01*
X79303916Y-18869912D01*
X79103087Y-18798795D01*
X79103083Y-18798794D01*
X79098212Y-18797069D01*
X79093119Y-18796162D01*
X79093116Y-18796161D01*
X78883373Y-18758800D01*
X78883367Y-18758799D01*
X78878284Y-18757894D01*
X78804452Y-18756992D01*
X78660081Y-18755228D01*
X78660079Y-18755228D01*
X78654911Y-18755165D01*
X78434091Y-18788955D01*
X78221756Y-18858357D01*
X78023607Y-18961507D01*
X78019474Y-18964610D01*
X78019471Y-18964612D01*
X77849100Y-19092530D01*
X77844965Y-19095635D01*
X77788537Y-19154684D01*
X77752350Y-19192551D01*
X77690826Y-19227981D01*
X77661256Y-19231500D01*
X77298605Y-19231500D01*
X77230484Y-19211498D01*
X77205412Y-19190300D01*
X77143148Y-19121873D01*
X77143145Y-19121870D01*
X77139670Y-19118051D01*
X77135619Y-19114852D01*
X77135615Y-19114848D01*
X76968414Y-18982800D01*
X76968410Y-18982798D01*
X76964359Y-18979598D01*
X76768789Y-18871638D01*
X76763920Y-18869914D01*
X76763916Y-18869912D01*
X76563087Y-18798795D01*
X76563083Y-18798794D01*
X76558212Y-18797069D01*
X76553119Y-18796162D01*
X76553116Y-18796161D01*
X76343373Y-18758800D01*
X76343367Y-18758799D01*
X76338284Y-18757894D01*
X76264452Y-18756992D01*
X76120081Y-18755228D01*
X76120079Y-18755228D01*
X76114911Y-18755165D01*
X75894091Y-18788955D01*
X75681756Y-18858357D01*
X75483607Y-18961507D01*
X75479474Y-18964610D01*
X75479471Y-18964612D01*
X75309100Y-19092530D01*
X75304965Y-19095635D01*
X75248537Y-19154684D01*
X75212350Y-19192551D01*
X75150826Y-19227981D01*
X75121256Y-19231500D01*
X74758605Y-19231500D01*
X74690484Y-19211498D01*
X74665412Y-19190300D01*
X74603148Y-19121873D01*
X74603145Y-19121870D01*
X74599670Y-19118051D01*
X74595619Y-19114852D01*
X74595615Y-19114848D01*
X74428414Y-18982800D01*
X74428410Y-18982798D01*
X74424359Y-18979598D01*
X74228789Y-18871638D01*
X74223920Y-18869914D01*
X74223916Y-18869912D01*
X74023087Y-18798795D01*
X74023083Y-18798794D01*
X74018212Y-18797069D01*
X74013119Y-18796162D01*
X74013116Y-18796161D01*
X73803373Y-18758800D01*
X73803367Y-18758799D01*
X73798284Y-18757894D01*
X73724452Y-18756992D01*
X73580081Y-18755228D01*
X73580079Y-18755228D01*
X73574911Y-18755165D01*
X73354091Y-18788955D01*
X73141756Y-18858357D01*
X72943607Y-18961507D01*
X72939474Y-18964610D01*
X72939471Y-18964612D01*
X72769100Y-19092530D01*
X72764965Y-19095635D01*
X72708537Y-19154684D01*
X72684283Y-19180064D01*
X72622759Y-19215494D01*
X72551846Y-19212037D01*
X72494060Y-19170791D01*
X72475207Y-19137243D01*
X72433767Y-19026703D01*
X72430615Y-19018295D01*
X72343261Y-18901739D01*
X72226705Y-18814385D01*
X72090316Y-18763255D01*
X72028134Y-18756500D01*
X70231866Y-18756500D01*
X70169684Y-18763255D01*
X70033295Y-18814385D01*
X69916739Y-18901739D01*
X69829385Y-19018295D01*
X69826233Y-19026703D01*
X69780112Y-19149730D01*
X69737470Y-19206494D01*
X69670909Y-19231194D01*
X69662130Y-19231500D01*
X45684457Y-19231500D01*
X45664745Y-19229949D01*
X45658008Y-19228882D01*
X45658009Y-19228882D01*
X45651493Y-19227850D01*
X45644906Y-19228195D01*
X45644902Y-19228195D01*
X45585150Y-19231327D01*
X45578555Y-19231500D01*
X45558694Y-19231500D01*
X45538931Y-19233577D01*
X45532372Y-19234093D01*
X45516573Y-19234921D01*
X45472623Y-19237224D01*
X45472619Y-19237225D01*
X45466029Y-19237570D01*
X45453071Y-19241042D01*
X45433628Y-19244645D01*
X45420298Y-19246046D01*
X45357106Y-19266578D01*
X45350804Y-19268444D01*
X45309704Y-19279457D01*
X45286637Y-19285638D01*
X45280758Y-19288634D01*
X45280749Y-19288637D01*
X45274683Y-19291728D01*
X45256421Y-19299292D01*
X45249957Y-19301392D01*
X45249949Y-19301395D01*
X45243669Y-19303436D01*
X45237950Y-19306738D01*
X45237945Y-19306740D01*
X45186133Y-19336654D01*
X45180363Y-19339787D01*
X45121161Y-19369953D01*
X45116029Y-19374109D01*
X45110741Y-19378391D01*
X45094448Y-19389589D01*
X45082831Y-19396296D01*
X45077925Y-19400713D01*
X45077920Y-19400717D01*
X45033462Y-19440747D01*
X45028446Y-19445031D01*
X45015591Y-19455441D01*
X45013014Y-19457528D01*
X44998969Y-19471573D01*
X44994184Y-19476114D01*
X44944815Y-19520566D01*
X44936925Y-19531426D01*
X44924088Y-19546454D01*
X42965947Y-21504595D01*
X42903635Y-21538621D01*
X42876852Y-21541500D01*
X42021866Y-21541500D01*
X41959684Y-21548255D01*
X41823295Y-21599385D01*
X41706739Y-21686739D01*
X41619385Y-21803295D01*
X41616233Y-21811703D01*
X41588856Y-21884730D01*
X41546214Y-21941494D01*
X41479652Y-21966194D01*
X41470874Y-21966500D01*
X40094457Y-21966500D01*
X40074745Y-21964949D01*
X40068008Y-21963882D01*
X40068009Y-21963882D01*
X40061493Y-21962850D01*
X40054906Y-21963195D01*
X40054902Y-21963195D01*
X39995150Y-21966327D01*
X39988555Y-21966500D01*
X39968694Y-21966500D01*
X39948931Y-21968577D01*
X39942372Y-21969093D01*
X39926573Y-21969921D01*
X39882623Y-21972224D01*
X39882619Y-21972225D01*
X39876029Y-21972570D01*
X39863071Y-21976042D01*
X39843628Y-21979645D01*
X39830298Y-21981046D01*
X39767106Y-22001578D01*
X39760804Y-22003444D01*
X39752385Y-22005700D01*
X39696637Y-22020638D01*
X39690758Y-22023634D01*
X39690749Y-22023637D01*
X39684683Y-22026728D01*
X39666421Y-22034292D01*
X39659957Y-22036392D01*
X39659949Y-22036395D01*
X39653669Y-22038436D01*
X39647950Y-22041738D01*
X39647945Y-22041740D01*
X39596133Y-22071654D01*
X39590363Y-22074787D01*
X39531161Y-22104953D01*
X39526029Y-22109109D01*
X39520741Y-22113391D01*
X39504448Y-22124589D01*
X39492831Y-22131296D01*
X39487925Y-22135713D01*
X39487920Y-22135717D01*
X39443462Y-22175747D01*
X39438446Y-22180031D01*
X39427688Y-22188743D01*
X39423014Y-22192528D01*
X39408969Y-22206573D01*
X39404184Y-22211114D01*
X39354815Y-22255566D01*
X39346925Y-22266426D01*
X39334088Y-22281454D01*
X36363598Y-25251944D01*
X36301286Y-25285970D01*
X36274503Y-25288849D01*
X33149126Y-25288849D01*
X33081005Y-25268847D01*
X33034512Y-25215191D01*
X33031144Y-25207079D01*
X33003767Y-25134052D01*
X33000615Y-25125644D01*
X32913261Y-25009088D01*
X32796705Y-24921734D01*
X32660316Y-24870604D01*
X32598134Y-24863849D01*
X30901866Y-24863849D01*
X30839684Y-24870604D01*
X30703295Y-24921734D01*
X30586739Y-25009088D01*
X30499385Y-25125644D01*
X30496233Y-25134052D01*
X30468856Y-25207079D01*
X30426214Y-25263843D01*
X30359652Y-25288543D01*
X30350874Y-25288849D01*
X22864174Y-25288849D01*
X22796053Y-25268847D01*
X22763414Y-25238502D01*
X22736882Y-25203164D01*
X22736880Y-25203161D01*
X22733777Y-25199029D01*
X22560088Y-25033048D01*
X22429507Y-24943971D01*
X22365891Y-24900575D01*
X22365890Y-24900574D01*
X22361622Y-24897663D01*
X22356939Y-24895489D01*
X22356935Y-24895487D01*
X22148405Y-24798691D01*
X22148401Y-24798690D01*
X22143710Y-24796512D01*
X21912202Y-24732309D01*
X21907065Y-24731760D01*
X21719407Y-24711705D01*
X21719399Y-24711705D01*
X21716072Y-24711349D01*
X21481598Y-24711349D01*
X21479025Y-24711561D01*
X21479014Y-24711561D01*
X21378054Y-24719862D01*
X21303063Y-24726027D01*
X21070056Y-24784555D01*
X20954252Y-24834908D01*
X20854474Y-24878292D01*
X20854471Y-24878294D01*
X20849737Y-24880352D01*
X20743223Y-24949259D01*
X20659060Y-25003707D01*
X20648023Y-25010847D01*
X20470330Y-25172535D01*
X20433404Y-25219292D01*
X20324633Y-25357019D01*
X20324630Y-25357024D01*
X20321432Y-25361073D01*
X20318939Y-25365589D01*
X20318937Y-25365592D01*
X20207823Y-25566875D01*
X20205326Y-25571399D01*
X20203602Y-25576268D01*
X20203600Y-25576272D01*
X20132306Y-25777599D01*
X20125130Y-25797864D01*
X20124223Y-25802957D01*
X20124222Y-25802960D01*
X20090133Y-25994338D01*
X20082999Y-26034386D01*
X20080064Y-26274612D01*
X13458000Y-26274612D01*
X13458000Y-17900260D01*
X20223353Y-17900260D01*
X20270218Y-18095463D01*
X20273264Y-18104837D01*
X20360313Y-18314992D01*
X20364795Y-18323787D01*
X20483643Y-18517728D01*
X20489443Y-18525712D01*
X20637178Y-18698687D01*
X20644142Y-18705651D01*
X20817117Y-18853386D01*
X20825101Y-18859186D01*
X21019042Y-18978034D01*
X21027837Y-18982516D01*
X21237992Y-19069565D01*
X21247366Y-19072611D01*
X21438385Y-19118471D01*
X21452469Y-19117766D01*
X21456000Y-19108885D01*
X21456000Y-19104585D01*
X21964000Y-19104585D01*
X21967973Y-19118116D01*
X21977431Y-19119476D01*
X22172634Y-19072611D01*
X22182008Y-19069565D01*
X22392163Y-18982516D01*
X22400958Y-18978034D01*
X22594899Y-18859186D01*
X22602883Y-18853386D01*
X22775858Y-18705651D01*
X22782822Y-18698687D01*
X22797960Y-18680963D01*
X35201500Y-18680963D01*
X35208255Y-18743145D01*
X35259385Y-18879534D01*
X35346739Y-18996090D01*
X35463295Y-19083444D01*
X35599684Y-19134574D01*
X35661866Y-19141329D01*
X37758134Y-19141329D01*
X37820316Y-19134574D01*
X37956705Y-19083444D01*
X38073261Y-18996090D01*
X38160615Y-18879534D01*
X38211745Y-18743145D01*
X38218500Y-18680963D01*
X38218500Y-18642329D01*
X38238502Y-18574208D01*
X38292158Y-18527715D01*
X38344500Y-18516329D01*
X45467714Y-18516329D01*
X45487426Y-18517880D01*
X45500678Y-18519979D01*
X45507265Y-18519634D01*
X45507269Y-18519634D01*
X45567021Y-18516502D01*
X45573616Y-18516329D01*
X45593477Y-18516329D01*
X45613240Y-18514252D01*
X45619799Y-18513736D01*
X45635598Y-18512908D01*
X45679548Y-18510605D01*
X45679552Y-18510604D01*
X45686142Y-18510259D01*
X45699100Y-18506787D01*
X45718543Y-18503184D01*
X45718966Y-18503140D01*
X45731873Y-18501783D01*
X45795065Y-18481251D01*
X45801367Y-18479385D01*
X45859156Y-18463900D01*
X45865534Y-18462191D01*
X45871413Y-18459195D01*
X45871422Y-18459192D01*
X45877488Y-18456101D01*
X45895750Y-18448537D01*
X45902214Y-18446437D01*
X45902222Y-18446434D01*
X45908502Y-18444393D01*
X45914221Y-18441091D01*
X45914226Y-18441089D01*
X45966038Y-18411175D01*
X45971808Y-18408042D01*
X46031010Y-18377876D01*
X46041430Y-18369438D01*
X46057723Y-18358240D01*
X46058074Y-18358038D01*
X46069340Y-18351533D01*
X46074246Y-18347116D01*
X46074251Y-18347112D01*
X46118709Y-18307082D01*
X46123725Y-18302798D01*
X46136580Y-18292388D01*
X46136583Y-18292385D01*
X46139157Y-18290301D01*
X46153202Y-18276256D01*
X46157987Y-18271715D01*
X46202445Y-18231685D01*
X46202446Y-18231684D01*
X46207356Y-18227263D01*
X46215246Y-18216403D01*
X46228083Y-18201375D01*
X47849565Y-16579893D01*
X47911877Y-16545867D01*
X47939018Y-16544131D01*
X47939018Y-16543019D01*
X47944525Y-16543019D01*
X47950000Y-16543498D01*
X48178087Y-16523543D01*
X48183400Y-16522119D01*
X48183402Y-16522119D01*
X48393933Y-16465707D01*
X48393935Y-16465706D01*
X48399243Y-16464284D01*
X48404225Y-16461961D01*
X48601762Y-16369849D01*
X48601767Y-16369846D01*
X48606749Y-16367523D01*
X48754328Y-16264187D01*
X48789789Y-16239357D01*
X48789792Y-16239355D01*
X48794300Y-16236198D01*
X48956198Y-16074300D01*
X49087523Y-15886749D01*
X49089846Y-15881767D01*
X49089849Y-15881762D01*
X49105805Y-15847543D01*
X49152722Y-15794258D01*
X49220999Y-15774797D01*
X49288959Y-15795339D01*
X49334195Y-15847543D01*
X49350151Y-15881762D01*
X49350154Y-15881767D01*
X49352477Y-15886749D01*
X49483802Y-16074300D01*
X49645700Y-16236198D01*
X49650208Y-16239355D01*
X49650211Y-16239357D01*
X49685672Y-16264187D01*
X49833251Y-16367523D01*
X49838233Y-16369846D01*
X49838238Y-16369849D01*
X50035775Y-16461961D01*
X50040757Y-16464284D01*
X50046065Y-16465706D01*
X50046067Y-16465707D01*
X50256598Y-16522119D01*
X50256600Y-16522119D01*
X50261913Y-16523543D01*
X50490000Y-16543498D01*
X50718087Y-16523543D01*
X50723400Y-16522119D01*
X50723402Y-16522119D01*
X50933933Y-16465707D01*
X50933935Y-16465706D01*
X50939243Y-16464284D01*
X50944225Y-16461961D01*
X51141762Y-16369849D01*
X51141767Y-16369846D01*
X51146749Y-16367523D01*
X51294328Y-16264187D01*
X51329789Y-16239357D01*
X51329792Y-16239355D01*
X51334300Y-16236198D01*
X51496198Y-16074300D01*
X51627523Y-15886749D01*
X51629846Y-15881767D01*
X51629849Y-15881762D01*
X51645805Y-15847543D01*
X51692722Y-15794258D01*
X51760999Y-15774797D01*
X51828959Y-15795339D01*
X51874195Y-15847543D01*
X51890151Y-15881762D01*
X51890154Y-15881767D01*
X51892477Y-15886749D01*
X52023802Y-16074300D01*
X52185700Y-16236198D01*
X52190208Y-16239355D01*
X52190211Y-16239357D01*
X52225672Y-16264187D01*
X52373251Y-16367523D01*
X52378233Y-16369846D01*
X52378238Y-16369849D01*
X52575775Y-16461961D01*
X52580757Y-16464284D01*
X52586065Y-16465706D01*
X52586067Y-16465707D01*
X52796598Y-16522119D01*
X52796600Y-16522119D01*
X52801913Y-16523543D01*
X53030000Y-16543498D01*
X53258087Y-16523543D01*
X53263400Y-16522119D01*
X53263402Y-16522119D01*
X53473933Y-16465707D01*
X53473935Y-16465706D01*
X53479243Y-16464284D01*
X53484225Y-16461961D01*
X53681762Y-16369849D01*
X53681767Y-16369846D01*
X53686749Y-16367523D01*
X53834328Y-16264187D01*
X53869789Y-16239357D01*
X53869792Y-16239355D01*
X53874300Y-16236198D01*
X54036198Y-16074300D01*
X54167523Y-15886749D01*
X54169846Y-15881767D01*
X54169849Y-15881762D01*
X54185805Y-15847543D01*
X54232722Y-15794258D01*
X54300999Y-15774797D01*
X54368959Y-15795339D01*
X54414195Y-15847543D01*
X54430151Y-15881762D01*
X54430154Y-15881767D01*
X54432477Y-15886749D01*
X54563802Y-16074300D01*
X54725700Y-16236198D01*
X54730208Y-16239355D01*
X54730211Y-16239357D01*
X54765672Y-16264187D01*
X54913251Y-16367523D01*
X54918233Y-16369846D01*
X54918238Y-16369849D01*
X55115775Y-16461961D01*
X55120757Y-16464284D01*
X55126065Y-16465706D01*
X55126067Y-16465707D01*
X55336598Y-16522119D01*
X55336600Y-16522119D01*
X55341913Y-16523543D01*
X55570000Y-16543498D01*
X55798087Y-16523543D01*
X55803400Y-16522119D01*
X55803402Y-16522119D01*
X56013933Y-16465707D01*
X56013935Y-16465706D01*
X56019243Y-16464284D01*
X56024225Y-16461961D01*
X56221762Y-16369849D01*
X56221767Y-16369846D01*
X56226749Y-16367523D01*
X56374328Y-16264187D01*
X56409789Y-16239357D01*
X56409792Y-16239355D01*
X56414300Y-16236198D01*
X56576198Y-16074300D01*
X56707523Y-15886749D01*
X56709846Y-15881767D01*
X56709849Y-15881762D01*
X56725805Y-15847543D01*
X56772722Y-15794258D01*
X56840999Y-15774797D01*
X56908959Y-15795339D01*
X56954195Y-15847543D01*
X56970151Y-15881762D01*
X56970154Y-15881767D01*
X56972477Y-15886749D01*
X57103802Y-16074300D01*
X57265700Y-16236198D01*
X57270208Y-16239355D01*
X57270211Y-16239357D01*
X57305672Y-16264187D01*
X57453251Y-16367523D01*
X57458233Y-16369846D01*
X57458238Y-16369849D01*
X57655775Y-16461961D01*
X57660757Y-16464284D01*
X57666065Y-16465706D01*
X57666067Y-16465707D01*
X57876598Y-16522119D01*
X57876600Y-16522119D01*
X57881913Y-16523543D01*
X58110000Y-16543498D01*
X58338087Y-16523543D01*
X58343400Y-16522119D01*
X58343402Y-16522119D01*
X58553933Y-16465707D01*
X58553935Y-16465706D01*
X58559243Y-16464284D01*
X58564225Y-16461961D01*
X58761762Y-16369849D01*
X58761767Y-16369846D01*
X58766749Y-16367523D01*
X58914328Y-16264187D01*
X58949789Y-16239357D01*
X58949792Y-16239355D01*
X58954300Y-16236198D01*
X59116198Y-16074300D01*
X59247523Y-15886749D01*
X59249846Y-15881767D01*
X59249849Y-15881762D01*
X59265805Y-15847543D01*
X59312722Y-15794258D01*
X59380999Y-15774797D01*
X59448959Y-15795339D01*
X59494195Y-15847543D01*
X59510151Y-15881762D01*
X59510154Y-15881767D01*
X59512477Y-15886749D01*
X59643802Y-16074300D01*
X59805700Y-16236198D01*
X59810208Y-16239355D01*
X59810211Y-16239357D01*
X59845672Y-16264187D01*
X59993251Y-16367523D01*
X59998233Y-16369846D01*
X59998238Y-16369849D01*
X60195775Y-16461961D01*
X60200757Y-16464284D01*
X60206065Y-16465706D01*
X60206067Y-16465707D01*
X60416598Y-16522119D01*
X60416600Y-16522119D01*
X60421913Y-16523543D01*
X60650000Y-16543498D01*
X60878087Y-16523543D01*
X60883400Y-16522119D01*
X60883402Y-16522119D01*
X61093933Y-16465707D01*
X61093935Y-16465706D01*
X61099243Y-16464284D01*
X61104225Y-16461961D01*
X61301762Y-16369849D01*
X61301767Y-16369846D01*
X61306749Y-16367523D01*
X61454328Y-16264187D01*
X61489789Y-16239357D01*
X61489792Y-16239355D01*
X61494300Y-16236198D01*
X61656198Y-16074300D01*
X61787523Y-15886749D01*
X61789846Y-15881767D01*
X61789849Y-15881762D01*
X61805805Y-15847543D01*
X61852722Y-15794258D01*
X61920999Y-15774797D01*
X61988959Y-15795339D01*
X62034195Y-15847543D01*
X62050151Y-15881762D01*
X62050154Y-15881767D01*
X62052477Y-15886749D01*
X62183802Y-16074300D01*
X62345700Y-16236198D01*
X62350208Y-16239355D01*
X62350211Y-16239357D01*
X62385672Y-16264187D01*
X62533251Y-16367523D01*
X62538233Y-16369846D01*
X62538238Y-16369849D01*
X62735775Y-16461961D01*
X62740757Y-16464284D01*
X62746065Y-16465706D01*
X62746067Y-16465707D01*
X62956598Y-16522119D01*
X62956600Y-16522119D01*
X62961913Y-16523543D01*
X63190000Y-16543498D01*
X63418087Y-16523543D01*
X63423400Y-16522119D01*
X63423402Y-16522119D01*
X63633933Y-16465707D01*
X63633935Y-16465706D01*
X63639243Y-16464284D01*
X63644225Y-16461961D01*
X63841762Y-16369849D01*
X63841767Y-16369846D01*
X63846749Y-16367523D01*
X63994328Y-16264187D01*
X64029789Y-16239357D01*
X64029792Y-16239355D01*
X64034300Y-16236198D01*
X64196198Y-16074300D01*
X64327523Y-15886749D01*
X64329846Y-15881767D01*
X64329849Y-15881762D01*
X64421961Y-15684225D01*
X64421961Y-15684224D01*
X64424284Y-15679243D01*
X64483543Y-15458087D01*
X64503498Y-15230000D01*
X64483543Y-15001913D01*
X64424284Y-14780757D01*
X64345805Y-14612457D01*
X64329849Y-14578238D01*
X64329846Y-14578233D01*
X64327523Y-14573251D01*
X64196198Y-14385700D01*
X64034300Y-14223802D01*
X64029792Y-14220645D01*
X64029789Y-14220643D01*
X63951611Y-14165902D01*
X63846749Y-14092477D01*
X63841767Y-14090154D01*
X63841762Y-14090151D01*
X63644225Y-13998039D01*
X63644224Y-13998039D01*
X63639243Y-13995716D01*
X63633935Y-13994294D01*
X63633933Y-13994293D01*
X63423402Y-13937881D01*
X63423400Y-13937881D01*
X63418087Y-13936457D01*
X63190000Y-13916502D01*
X62961913Y-13936457D01*
X62956600Y-13937881D01*
X62956598Y-13937881D01*
X62746067Y-13994293D01*
X62746065Y-13994294D01*
X62740757Y-13995716D01*
X62735776Y-13998039D01*
X62735775Y-13998039D01*
X62538238Y-14090151D01*
X62538233Y-14090154D01*
X62533251Y-14092477D01*
X62428389Y-14165902D01*
X62350211Y-14220643D01*
X62350208Y-14220645D01*
X62345700Y-14223802D01*
X62183802Y-14385700D01*
X62052477Y-14573251D01*
X62050154Y-14578233D01*
X62050151Y-14578238D01*
X62034195Y-14612457D01*
X61987278Y-14665742D01*
X61919001Y-14685203D01*
X61851041Y-14664661D01*
X61805805Y-14612457D01*
X61789849Y-14578238D01*
X61789846Y-14578233D01*
X61787523Y-14573251D01*
X61656198Y-14385700D01*
X61494300Y-14223802D01*
X61489792Y-14220645D01*
X61489789Y-14220643D01*
X61411611Y-14165902D01*
X61306749Y-14092477D01*
X61301767Y-14090154D01*
X61301762Y-14090151D01*
X61104225Y-13998039D01*
X61104224Y-13998039D01*
X61099243Y-13995716D01*
X61093935Y-13994294D01*
X61093933Y-13994293D01*
X60883402Y-13937881D01*
X60883400Y-13937881D01*
X60878087Y-13936457D01*
X60650000Y-13916502D01*
X60421913Y-13936457D01*
X60416600Y-13937881D01*
X60416598Y-13937881D01*
X60206067Y-13994293D01*
X60206065Y-13994294D01*
X60200757Y-13995716D01*
X60195776Y-13998039D01*
X60195775Y-13998039D01*
X59998238Y-14090151D01*
X59998233Y-14090154D01*
X59993251Y-14092477D01*
X59888389Y-14165902D01*
X59810211Y-14220643D01*
X59810208Y-14220645D01*
X59805700Y-14223802D01*
X59643802Y-14385700D01*
X59512477Y-14573251D01*
X59510154Y-14578233D01*
X59510151Y-14578238D01*
X59494195Y-14612457D01*
X59447278Y-14665742D01*
X59379001Y-14685203D01*
X59311041Y-14664661D01*
X59265805Y-14612457D01*
X59249849Y-14578238D01*
X59249846Y-14578233D01*
X59247523Y-14573251D01*
X59116198Y-14385700D01*
X58954300Y-14223802D01*
X58949792Y-14220645D01*
X58949789Y-14220643D01*
X58871611Y-14165902D01*
X58766749Y-14092477D01*
X58761767Y-14090154D01*
X58761762Y-14090151D01*
X58564225Y-13998039D01*
X58564224Y-13998039D01*
X58559243Y-13995716D01*
X58553935Y-13994294D01*
X58553933Y-13994293D01*
X58343402Y-13937881D01*
X58343400Y-13937881D01*
X58338087Y-13936457D01*
X58110000Y-13916502D01*
X57881913Y-13936457D01*
X57876600Y-13937881D01*
X57876598Y-13937881D01*
X57666067Y-13994293D01*
X57666065Y-13994294D01*
X57660757Y-13995716D01*
X57655776Y-13998039D01*
X57655775Y-13998039D01*
X57458238Y-14090151D01*
X57458233Y-14090154D01*
X57453251Y-14092477D01*
X57348389Y-14165902D01*
X57270211Y-14220643D01*
X57270208Y-14220645D01*
X57265700Y-14223802D01*
X57103802Y-14385700D01*
X56972477Y-14573251D01*
X56970154Y-14578233D01*
X56970151Y-14578238D01*
X56954195Y-14612457D01*
X56907278Y-14665742D01*
X56839001Y-14685203D01*
X56771041Y-14664661D01*
X56725805Y-14612457D01*
X56709849Y-14578238D01*
X56709846Y-14578233D01*
X56707523Y-14573251D01*
X56576198Y-14385700D01*
X56414300Y-14223802D01*
X56409792Y-14220645D01*
X56409789Y-14220643D01*
X56331611Y-14165902D01*
X56226749Y-14092477D01*
X56221767Y-14090154D01*
X56221762Y-14090151D01*
X56024225Y-13998039D01*
X56024224Y-13998039D01*
X56019243Y-13995716D01*
X56013935Y-13994294D01*
X56013933Y-13994293D01*
X55803402Y-13937881D01*
X55803400Y-13937881D01*
X55798087Y-13936457D01*
X55570000Y-13916502D01*
X55341913Y-13936457D01*
X55336600Y-13937881D01*
X55336598Y-13937881D01*
X55126067Y-13994293D01*
X55126065Y-13994294D01*
X55120757Y-13995716D01*
X55115776Y-13998039D01*
X55115775Y-13998039D01*
X54918238Y-14090151D01*
X54918233Y-14090154D01*
X54913251Y-14092477D01*
X54808389Y-14165902D01*
X54730211Y-14220643D01*
X54730208Y-14220645D01*
X54725700Y-14223802D01*
X54563802Y-14385700D01*
X54432477Y-14573251D01*
X54430154Y-14578233D01*
X54430151Y-14578238D01*
X54414195Y-14612457D01*
X54367278Y-14665742D01*
X54299001Y-14685203D01*
X54231041Y-14664661D01*
X54185805Y-14612457D01*
X54169849Y-14578238D01*
X54169846Y-14578233D01*
X54167523Y-14573251D01*
X54036198Y-14385700D01*
X53874300Y-14223802D01*
X53869792Y-14220645D01*
X53869789Y-14220643D01*
X53791611Y-14165902D01*
X53686749Y-14092477D01*
X53681767Y-14090154D01*
X53681762Y-14090151D01*
X53484225Y-13998039D01*
X53484224Y-13998039D01*
X53479243Y-13995716D01*
X53473935Y-13994294D01*
X53473933Y-13994293D01*
X53263402Y-13937881D01*
X53263400Y-13937881D01*
X53258087Y-13936457D01*
X53030000Y-13916502D01*
X52801913Y-13936457D01*
X52796600Y-13937881D01*
X52796598Y-13937881D01*
X52586067Y-13994293D01*
X52586065Y-13994294D01*
X52580757Y-13995716D01*
X52575776Y-13998039D01*
X52575775Y-13998039D01*
X52378238Y-14090151D01*
X52378233Y-14090154D01*
X52373251Y-14092477D01*
X52268389Y-14165902D01*
X52190211Y-14220643D01*
X52190208Y-14220645D01*
X52185700Y-14223802D01*
X52023802Y-14385700D01*
X51892477Y-14573251D01*
X51890154Y-14578233D01*
X51890151Y-14578238D01*
X51874195Y-14612457D01*
X51827278Y-14665742D01*
X51759001Y-14685203D01*
X51691041Y-14664661D01*
X51645805Y-14612457D01*
X51629849Y-14578238D01*
X51629846Y-14578233D01*
X51627523Y-14573251D01*
X51496198Y-14385700D01*
X51334300Y-14223802D01*
X51329792Y-14220645D01*
X51329789Y-14220643D01*
X51251611Y-14165902D01*
X51146749Y-14092477D01*
X51141767Y-14090154D01*
X51141762Y-14090151D01*
X50944225Y-13998039D01*
X50944224Y-13998039D01*
X50939243Y-13995716D01*
X50933935Y-13994294D01*
X50933933Y-13994293D01*
X50723402Y-13937881D01*
X50723400Y-13937881D01*
X50718087Y-13936457D01*
X50490000Y-13916502D01*
X50261913Y-13936457D01*
X50256600Y-13937881D01*
X50256598Y-13937881D01*
X50046067Y-13994293D01*
X50046065Y-13994294D01*
X50040757Y-13995716D01*
X50035776Y-13998039D01*
X50035775Y-13998039D01*
X49838238Y-14090151D01*
X49838233Y-14090154D01*
X49833251Y-14092477D01*
X49728389Y-14165902D01*
X49650211Y-14220643D01*
X49650208Y-14220645D01*
X49645700Y-14223802D01*
X49483802Y-14385700D01*
X49352477Y-14573251D01*
X49350154Y-14578233D01*
X49350151Y-14578238D01*
X49334195Y-14612457D01*
X49287278Y-14665742D01*
X49219001Y-14685203D01*
X49151041Y-14664661D01*
X49105805Y-14612457D01*
X49089849Y-14578238D01*
X49089846Y-14578233D01*
X49087523Y-14573251D01*
X48956198Y-14385700D01*
X48794300Y-14223802D01*
X48789792Y-14220645D01*
X48789789Y-14220643D01*
X48711611Y-14165902D01*
X48606749Y-14092477D01*
X48601767Y-14090154D01*
X48601762Y-14090151D01*
X48404225Y-13998039D01*
X48404224Y-13998039D01*
X48399243Y-13995716D01*
X48393935Y-13994294D01*
X48393933Y-13994293D01*
X48183402Y-13937881D01*
X48183400Y-13937881D01*
X48178087Y-13936457D01*
X47950000Y-13916502D01*
X47721913Y-13936457D01*
X47716600Y-13937881D01*
X47716598Y-13937881D01*
X47506067Y-13994293D01*
X47506065Y-13994294D01*
X47500757Y-13995716D01*
X47495776Y-13998039D01*
X47495775Y-13998039D01*
X47298238Y-14090151D01*
X47298233Y-14090154D01*
X47293251Y-14092477D01*
X47188389Y-14165902D01*
X47110211Y-14220643D01*
X47110208Y-14220645D01*
X47105700Y-14223802D01*
X46943802Y-14385700D01*
X46812477Y-14573251D01*
X46810154Y-14578233D01*
X46810151Y-14578238D01*
X46794195Y-14612457D01*
X46747278Y-14665742D01*
X46679001Y-14685203D01*
X46611041Y-14664661D01*
X46565805Y-14612457D01*
X46549849Y-14578238D01*
X46549846Y-14578233D01*
X46547523Y-14573251D01*
X46416198Y-14385700D01*
X46254300Y-14223802D01*
X46249792Y-14220645D01*
X46249789Y-14220643D01*
X46171611Y-14165902D01*
X46066749Y-14092477D01*
X46061767Y-14090154D01*
X46061762Y-14090151D01*
X45864225Y-13998039D01*
X45864224Y-13998039D01*
X45859243Y-13995716D01*
X45853935Y-13994294D01*
X45853933Y-13994293D01*
X45643402Y-13937881D01*
X45643400Y-13937881D01*
X45638087Y-13936457D01*
X45410000Y-13916502D01*
X45181913Y-13936457D01*
X45176600Y-13937881D01*
X45176598Y-13937881D01*
X44966067Y-13994293D01*
X44966065Y-13994294D01*
X44960757Y-13995716D01*
X44955776Y-13998039D01*
X44955775Y-13998039D01*
X44758238Y-14090151D01*
X44758233Y-14090154D01*
X44753251Y-14092477D01*
X44648389Y-14165902D01*
X44570211Y-14220643D01*
X44570208Y-14220645D01*
X44565700Y-14223802D01*
X44403802Y-14385700D01*
X44272477Y-14573251D01*
X44270154Y-14578233D01*
X44270151Y-14578238D01*
X44254195Y-14612457D01*
X44207278Y-14665742D01*
X44139001Y-14685203D01*
X44071041Y-14664661D01*
X44025805Y-14612457D01*
X44009849Y-14578238D01*
X44009846Y-14578233D01*
X44007523Y-14573251D01*
X43876198Y-14385700D01*
X43714300Y-14223802D01*
X43709792Y-14220645D01*
X43709789Y-14220643D01*
X43631611Y-14165902D01*
X43526749Y-14092477D01*
X43521767Y-14090154D01*
X43521762Y-14090151D01*
X43324225Y-13998039D01*
X43324224Y-13998039D01*
X43319243Y-13995716D01*
X43313935Y-13994294D01*
X43313933Y-13994293D01*
X43103402Y-13937881D01*
X43103400Y-13937881D01*
X43098087Y-13936457D01*
X42870000Y-13916502D01*
X42641913Y-13936457D01*
X42636600Y-13937881D01*
X42636598Y-13937881D01*
X42426067Y-13994293D01*
X42426065Y-13994294D01*
X42420757Y-13995716D01*
X42415776Y-13998039D01*
X42415775Y-13998039D01*
X42218238Y-14090151D01*
X42218233Y-14090154D01*
X42213251Y-14092477D01*
X42108389Y-14165902D01*
X42030211Y-14220643D01*
X42030208Y-14220645D01*
X42025700Y-14223802D01*
X41863802Y-14385700D01*
X41732477Y-14573251D01*
X41730154Y-14578233D01*
X41730151Y-14578238D01*
X41714195Y-14612457D01*
X41635716Y-14780757D01*
X41576457Y-15001913D01*
X41556502Y-15230000D01*
X41576457Y-15458087D01*
X41635716Y-15679243D01*
X41638039Y-15684224D01*
X41638039Y-15684225D01*
X41730151Y-15881762D01*
X41730154Y-15881767D01*
X41732477Y-15886749D01*
X41863802Y-16074300D01*
X42025700Y-16236198D01*
X42030208Y-16239355D01*
X42030211Y-16239357D01*
X42065672Y-16264187D01*
X42213251Y-16367523D01*
X42218233Y-16369846D01*
X42218238Y-16369849D01*
X42415775Y-16461961D01*
X42420757Y-16464284D01*
X42426065Y-16465706D01*
X42426067Y-16465707D01*
X42560103Y-16501622D01*
X42620726Y-16538574D01*
X42651747Y-16602435D01*
X42643319Y-16672929D01*
X42598116Y-16727676D01*
X42527492Y-16749329D01*
X38344500Y-16749329D01*
X38276379Y-16729327D01*
X38229886Y-16675671D01*
X38218500Y-16623329D01*
X38218500Y-16584695D01*
X38211745Y-16522513D01*
X38160615Y-16386124D01*
X38073261Y-16269568D01*
X37956705Y-16182214D01*
X37820316Y-16131084D01*
X37758134Y-16124329D01*
X35661866Y-16124329D01*
X35599684Y-16131084D01*
X35463295Y-16182214D01*
X35346739Y-16269568D01*
X35259385Y-16386124D01*
X35208255Y-16522513D01*
X35201500Y-16584695D01*
X35201500Y-18680963D01*
X22797960Y-18680963D01*
X22930557Y-18525712D01*
X22936357Y-18517728D01*
X23055205Y-18323787D01*
X23059687Y-18314992D01*
X23146736Y-18104837D01*
X23149782Y-18095463D01*
X23195642Y-17904444D01*
X23194937Y-17890360D01*
X23186056Y-17886829D01*
X21982115Y-17886829D01*
X21966876Y-17891304D01*
X21965671Y-17892694D01*
X21964000Y-17900377D01*
X21964000Y-19104585D01*
X21456000Y-19104585D01*
X21456000Y-17904944D01*
X21451525Y-17889705D01*
X21450135Y-17888500D01*
X21442452Y-17886829D01*
X20238244Y-17886829D01*
X20224713Y-17890802D01*
X20223353Y-17900260D01*
X13458000Y-17900260D01*
X13458000Y-17361214D01*
X20224358Y-17361214D01*
X20225063Y-17375298D01*
X20233944Y-17378829D01*
X21437885Y-17378829D01*
X21453124Y-17374354D01*
X21454329Y-17372964D01*
X21456000Y-17365281D01*
X21456000Y-17360714D01*
X21964000Y-17360714D01*
X21968475Y-17375953D01*
X21969865Y-17377158D01*
X21977548Y-17378829D01*
X23181756Y-17378829D01*
X23195287Y-17374856D01*
X23196647Y-17365398D01*
X23149782Y-17170195D01*
X23146736Y-17160821D01*
X23059687Y-16950666D01*
X23055205Y-16941871D01*
X22936357Y-16747930D01*
X22930557Y-16739946D01*
X22782822Y-16566971D01*
X22775858Y-16560007D01*
X22602883Y-16412272D01*
X22594899Y-16406472D01*
X22400958Y-16287624D01*
X22392163Y-16283142D01*
X22182008Y-16196093D01*
X22172634Y-16193047D01*
X21981615Y-16147187D01*
X21967531Y-16147892D01*
X21964000Y-16156773D01*
X21964000Y-17360714D01*
X21456000Y-17360714D01*
X21456000Y-16161073D01*
X21452027Y-16147542D01*
X21442569Y-16146182D01*
X21247366Y-16193047D01*
X21237992Y-16196093D01*
X21027837Y-16283142D01*
X21019042Y-16287624D01*
X20825101Y-16406472D01*
X20817117Y-16412272D01*
X20644142Y-16560007D01*
X20637178Y-16566971D01*
X20489443Y-16739946D01*
X20483643Y-16747930D01*
X20364795Y-16941871D01*
X20360313Y-16950666D01*
X20273264Y-17160821D01*
X20270218Y-17170195D01*
X20224358Y-17361214D01*
X13458000Y-17361214D01*
X13458000Y-13584000D01*
X13478002Y-13515879D01*
X13531658Y-13469386D01*
X13584000Y-13458000D01*
X91826000Y-13458000D01*
X91894121Y-13478002D01*
G37*
%TD.AperFunction*%
%TA.AperFunction,Conductor*%
G36*
X69549972Y-42863502D02*
G01*
X69570946Y-42880404D01*
X70199595Y-43509052D01*
X70233620Y-43571365D01*
X70236500Y-43598148D01*
X70236500Y-44031853D01*
X70216498Y-44099974D01*
X70199595Y-44120948D01*
X58725947Y-55594595D01*
X58663635Y-55628621D01*
X58636852Y-55631500D01*
X52362767Y-55631500D01*
X52294646Y-55611498D01*
X52273672Y-55594595D01*
X52264776Y-55585699D01*
X52091558Y-55464411D01*
X52086580Y-55462090D01*
X52086577Y-55462088D01*
X51904892Y-55377367D01*
X51904891Y-55377366D01*
X51899910Y-55375044D01*
X51894602Y-55373622D01*
X51894600Y-55373621D01*
X51700970Y-55321738D01*
X51700968Y-55321738D01*
X51695655Y-55320314D01*
X51485000Y-55301884D01*
X51274345Y-55320314D01*
X51269032Y-55321738D01*
X51269030Y-55321738D01*
X51075400Y-55373621D01*
X51075398Y-55373622D01*
X51070090Y-55375044D01*
X51065109Y-55377366D01*
X51065108Y-55377367D01*
X50883423Y-55462088D01*
X50883420Y-55462090D01*
X50878442Y-55464411D01*
X50705224Y-55585699D01*
X50555699Y-55735224D01*
X50434411Y-55908442D01*
X50432090Y-55913420D01*
X50432088Y-55913423D01*
X50348150Y-56093429D01*
X50345044Y-56100090D01*
X50343622Y-56105398D01*
X50343621Y-56105400D01*
X50336707Y-56131204D01*
X50299755Y-56191827D01*
X50235894Y-56222848D01*
X50165400Y-56214420D01*
X50110653Y-56169217D01*
X50093293Y-56131204D01*
X50086379Y-56105400D01*
X50086378Y-56105398D01*
X50084956Y-56100090D01*
X50081850Y-56093429D01*
X49997912Y-55913423D01*
X49997910Y-55913420D01*
X49995589Y-55908442D01*
X49874301Y-55735224D01*
X49815405Y-55676328D01*
X49781379Y-55614016D01*
X49778500Y-55587233D01*
X49778500Y-53582767D01*
X49798502Y-53514646D01*
X49815405Y-53493672D01*
X49824301Y-53484776D01*
X49945589Y-53311558D01*
X50034956Y-53119910D01*
X50036379Y-53114600D01*
X50036382Y-53114592D01*
X50043553Y-53087829D01*
X50080504Y-53027207D01*
X50144365Y-52996185D01*
X50214860Y-53004614D01*
X50269606Y-53049818D01*
X50286966Y-53087830D01*
X50294092Y-53114426D01*
X50297841Y-53124723D01*
X50382521Y-53306323D01*
X50387998Y-53315811D01*
X50502925Y-53479942D01*
X50509981Y-53488350D01*
X50651650Y-53630019D01*
X50660058Y-53637075D01*
X50824189Y-53752002D01*
X50833677Y-53757479D01*
X51015273Y-53842158D01*
X51025577Y-53845908D01*
X51163503Y-53882866D01*
X51177599Y-53882530D01*
X51181000Y-53874588D01*
X51181000Y-53869439D01*
X51689000Y-53869439D01*
X51692973Y-53882970D01*
X51701522Y-53884199D01*
X51844423Y-53845908D01*
X51854727Y-53842158D01*
X52036323Y-53757479D01*
X52045811Y-53752002D01*
X52209942Y-53637075D01*
X52218350Y-53630019D01*
X52360019Y-53488350D01*
X52367075Y-53479942D01*
X52482002Y-53315811D01*
X52487479Y-53306323D01*
X52572158Y-53124727D01*
X52575908Y-53114423D01*
X52612866Y-52976497D01*
X52612530Y-52962401D01*
X52604588Y-52959000D01*
X51707115Y-52959000D01*
X51691876Y-52963475D01*
X51690671Y-52964865D01*
X51689000Y-52972548D01*
X51689000Y-53869439D01*
X51181000Y-53869439D01*
X51181000Y-52577000D01*
X51201002Y-52508879D01*
X51254658Y-52462386D01*
X51307000Y-52451000D01*
X52599439Y-52451000D01*
X52612970Y-52447027D01*
X52614199Y-52438478D01*
X52575908Y-52295577D01*
X52572158Y-52285273D01*
X52487479Y-52103677D01*
X52482002Y-52094189D01*
X52367075Y-51930058D01*
X52360019Y-51921650D01*
X52336964Y-51898595D01*
X52302938Y-51836283D01*
X52308003Y-51765468D01*
X52350550Y-51708632D01*
X52417070Y-51683821D01*
X52426059Y-51683500D01*
X57705543Y-51683500D01*
X57725255Y-51685051D01*
X57738507Y-51687150D01*
X57745094Y-51686805D01*
X57745098Y-51686805D01*
X57804850Y-51683673D01*
X57811445Y-51683500D01*
X57831306Y-51683500D01*
X57851069Y-51681423D01*
X57857628Y-51680907D01*
X57873427Y-51680079D01*
X57917377Y-51677776D01*
X57917381Y-51677775D01*
X57923971Y-51677430D01*
X57936929Y-51673958D01*
X57956372Y-51670355D01*
X57956795Y-51670311D01*
X57969702Y-51668954D01*
X58032894Y-51648422D01*
X58039196Y-51646556D01*
X58096985Y-51631071D01*
X58103363Y-51629362D01*
X58109242Y-51626366D01*
X58109251Y-51626363D01*
X58115317Y-51623272D01*
X58133579Y-51615708D01*
X58140043Y-51613608D01*
X58140051Y-51613605D01*
X58146331Y-51611564D01*
X58152050Y-51608262D01*
X58152055Y-51608260D01*
X58203867Y-51578346D01*
X58209637Y-51575213D01*
X58268839Y-51545047D01*
X58279259Y-51536609D01*
X58295552Y-51525411D01*
X58295903Y-51525209D01*
X58307169Y-51518704D01*
X58312075Y-51514287D01*
X58312080Y-51514283D01*
X58356538Y-51474253D01*
X58361554Y-51469969D01*
X58374409Y-51459559D01*
X58374412Y-51459556D01*
X58376986Y-51457472D01*
X58391031Y-51443427D01*
X58395816Y-51438886D01*
X58440274Y-51398856D01*
X58440275Y-51398855D01*
X58445185Y-51394434D01*
X58453075Y-51383574D01*
X58465912Y-51368546D01*
X64414053Y-45420405D01*
X64476365Y-45386379D01*
X64503148Y-45383500D01*
X65797233Y-45383500D01*
X65865354Y-45403502D01*
X65886328Y-45420405D01*
X65895224Y-45429301D01*
X66068442Y-45550589D01*
X66073420Y-45552910D01*
X66073423Y-45552912D01*
X66255108Y-45637633D01*
X66260090Y-45639956D01*
X66265398Y-45641378D01*
X66265400Y-45641379D01*
X66459030Y-45693262D01*
X66459032Y-45693262D01*
X66464345Y-45694686D01*
X66675000Y-45713116D01*
X66885655Y-45694686D01*
X66890968Y-45693262D01*
X66890970Y-45693262D01*
X67084600Y-45641379D01*
X67084602Y-45641378D01*
X67089910Y-45639956D01*
X67094892Y-45637633D01*
X67276577Y-45552912D01*
X67276580Y-45552910D01*
X67281558Y-45550589D01*
X67454776Y-45429301D01*
X67604301Y-45279776D01*
X67725589Y-45106558D01*
X67732193Y-45092397D01*
X67812633Y-44919892D01*
X67812634Y-44919891D01*
X67814956Y-44914910D01*
X67825826Y-44874345D01*
X67868262Y-44715970D01*
X67868262Y-44715968D01*
X67869686Y-44710655D01*
X67888116Y-44500000D01*
X67869686Y-44289345D01*
X67865937Y-44275354D01*
X67816379Y-44090400D01*
X67816378Y-44090398D01*
X67814956Y-44085090D01*
X67750956Y-43947841D01*
X67727912Y-43898423D01*
X67727910Y-43898420D01*
X67725589Y-43893442D01*
X67604301Y-43720224D01*
X67454776Y-43570699D01*
X67281558Y-43449411D01*
X67276580Y-43447090D01*
X67276577Y-43447088D01*
X67094892Y-43362367D01*
X67094891Y-43362366D01*
X67089910Y-43360044D01*
X67084602Y-43358622D01*
X67084600Y-43358621D01*
X67058796Y-43351707D01*
X66998173Y-43314755D01*
X66967152Y-43250894D01*
X66975580Y-43180400D01*
X67020783Y-43125653D01*
X67058796Y-43108293D01*
X67084600Y-43101379D01*
X67084602Y-43101378D01*
X67089910Y-43099956D01*
X67202126Y-43047629D01*
X67276577Y-43012912D01*
X67276580Y-43012910D01*
X67281558Y-43010589D01*
X67454776Y-42889301D01*
X67463672Y-42880405D01*
X67525984Y-42846379D01*
X67552767Y-42843500D01*
X69481851Y-42843500D01*
X69549972Y-42863502D01*
G37*
%TD.AperFunction*%
%TA.AperFunction,Conductor*%
G36*
X51503959Y-39300339D02*
G01*
X51549195Y-39352543D01*
X51565151Y-39386762D01*
X51565154Y-39386767D01*
X51567477Y-39391749D01*
X51635257Y-39488548D01*
X51658093Y-39521161D01*
X51698802Y-39579300D01*
X51784595Y-39665093D01*
X51818621Y-39727405D01*
X51821500Y-39754188D01*
X51821500Y-39925543D01*
X51819949Y-39945255D01*
X51817850Y-39958507D01*
X51818195Y-39965094D01*
X51818195Y-39965098D01*
X51821327Y-40024850D01*
X51821500Y-40031445D01*
X51821500Y-40051306D01*
X51821844Y-40054577D01*
X51823576Y-40071059D01*
X51824093Y-40077628D01*
X51824473Y-40084893D01*
X51826809Y-40129448D01*
X51827570Y-40143971D01*
X51831042Y-40156929D01*
X51834644Y-40176367D01*
X51836046Y-40189702D01*
X51856578Y-40252894D01*
X51858444Y-40259196D01*
X51875638Y-40323363D01*
X51878634Y-40329242D01*
X51878637Y-40329251D01*
X51881728Y-40335317D01*
X51889292Y-40353579D01*
X51891392Y-40360043D01*
X51891395Y-40360051D01*
X51893436Y-40366331D01*
X51896738Y-40372050D01*
X51896740Y-40372055D01*
X51926654Y-40423867D01*
X51929787Y-40429637D01*
X51959953Y-40488839D01*
X51964109Y-40493971D01*
X51968391Y-40499259D01*
X51979589Y-40515552D01*
X51986296Y-40527169D01*
X51990713Y-40532075D01*
X51990717Y-40532080D01*
X52030747Y-40576538D01*
X52035031Y-40581554D01*
X52044862Y-40593694D01*
X52047528Y-40596986D01*
X52061573Y-40611031D01*
X52066114Y-40615816D01*
X52110566Y-40665185D01*
X52115911Y-40669068D01*
X52115913Y-40669070D01*
X52121418Y-40673069D01*
X52136455Y-40685912D01*
X52419595Y-40969052D01*
X52453621Y-41031364D01*
X52456500Y-41058147D01*
X52456500Y-44093941D01*
X52436498Y-44162062D01*
X52382842Y-44208555D01*
X52312568Y-44218659D01*
X52247988Y-44189165D01*
X52241405Y-44183036D01*
X52218350Y-44159981D01*
X52209942Y-44152925D01*
X52045811Y-44037998D01*
X52036323Y-44032521D01*
X51854727Y-43947842D01*
X51844423Y-43944092D01*
X51706497Y-43907134D01*
X51692401Y-43907470D01*
X51689000Y-43915412D01*
X51689000Y-46249439D01*
X51692973Y-46262970D01*
X51701522Y-46264199D01*
X51844423Y-46225908D01*
X51854727Y-46222158D01*
X52036323Y-46137479D01*
X52045811Y-46132002D01*
X52209942Y-46017075D01*
X52218350Y-46010019D01*
X52241405Y-45986964D01*
X52303717Y-45952938D01*
X52374532Y-45958003D01*
X52431368Y-46000550D01*
X52456179Y-46067070D01*
X52456500Y-46076059D01*
X52456500Y-46615500D01*
X52436498Y-46683621D01*
X52382842Y-46730114D01*
X52330500Y-46741500D01*
X47704457Y-46741500D01*
X47684745Y-46739949D01*
X47678008Y-46738882D01*
X47678009Y-46738882D01*
X47671493Y-46737850D01*
X47664906Y-46738195D01*
X47664902Y-46738195D01*
X47605150Y-46741327D01*
X47598555Y-46741500D01*
X47578694Y-46741500D01*
X47558931Y-46743577D01*
X47552372Y-46744093D01*
X47536573Y-46744921D01*
X47492623Y-46747224D01*
X47492619Y-46747225D01*
X47486029Y-46747570D01*
X47473071Y-46751042D01*
X47453628Y-46754645D01*
X47440298Y-46756046D01*
X47377106Y-46776578D01*
X47370804Y-46778444D01*
X47317328Y-46792773D01*
X47306637Y-46795638D01*
X47300758Y-46798634D01*
X47300749Y-46798637D01*
X47294683Y-46801728D01*
X47276421Y-46809292D01*
X47269957Y-46811392D01*
X47269949Y-46811395D01*
X47263669Y-46813436D01*
X47257950Y-46816738D01*
X47257945Y-46816740D01*
X47206133Y-46846654D01*
X47200363Y-46849787D01*
X47141161Y-46879953D01*
X47134122Y-46885653D01*
X47130742Y-46888390D01*
X47114446Y-46899590D01*
X47108546Y-46902996D01*
X47108543Y-46902998D01*
X47102831Y-46906296D01*
X47097926Y-46910712D01*
X47097921Y-46910716D01*
X47053453Y-46950754D01*
X47048443Y-46955034D01*
X47033015Y-46967528D01*
X47018979Y-46981564D01*
X47014194Y-46986105D01*
X46964815Y-47030566D01*
X46960935Y-47035906D01*
X46960928Y-47035914D01*
X46956927Y-47041422D01*
X46944086Y-47056457D01*
X45151454Y-48849088D01*
X45136426Y-48861925D01*
X45125566Y-48869815D01*
X45121145Y-48874725D01*
X45121144Y-48874726D01*
X45081114Y-48919184D01*
X45076573Y-48923969D01*
X45062528Y-48938014D01*
X45060444Y-48940588D01*
X45060441Y-48940591D01*
X45050031Y-48953446D01*
X45045747Y-48958462D01*
X45005717Y-49002920D01*
X45005713Y-49002925D01*
X45001296Y-49007831D01*
X44994791Y-49019097D01*
X44994589Y-49019448D01*
X44983391Y-49035741D01*
X44974953Y-49046161D01*
X44944787Y-49105363D01*
X44941654Y-49111133D01*
X44911740Y-49162945D01*
X44911738Y-49162950D01*
X44908436Y-49168669D01*
X44906395Y-49174949D01*
X44906392Y-49174957D01*
X44904292Y-49181421D01*
X44896728Y-49199683D01*
X44893637Y-49205749D01*
X44893634Y-49205758D01*
X44890638Y-49211637D01*
X44888929Y-49218015D01*
X44873444Y-49275804D01*
X44871578Y-49282106D01*
X44851046Y-49345298D01*
X44850356Y-49351866D01*
X44849645Y-49358628D01*
X44846042Y-49378071D01*
X44842570Y-49391029D01*
X44842225Y-49397619D01*
X44842224Y-49397623D01*
X44839921Y-49441573D01*
X44839234Y-49454686D01*
X44839093Y-49457367D01*
X44838577Y-49463931D01*
X44836500Y-49483694D01*
X44836500Y-49503555D01*
X44836327Y-49510150D01*
X44833891Y-49556634D01*
X44832850Y-49576493D01*
X44833882Y-49583007D01*
X44834949Y-49589744D01*
X44836500Y-49609456D01*
X44836500Y-51827233D01*
X44816498Y-51895354D01*
X44799595Y-51916328D01*
X44790699Y-51925224D01*
X44669411Y-52098442D01*
X44667090Y-52103420D01*
X44667088Y-52103423D01*
X44582367Y-52285108D01*
X44580044Y-52290090D01*
X44578622Y-52295398D01*
X44578621Y-52295400D01*
X44571707Y-52321204D01*
X44534755Y-52381827D01*
X44470894Y-52412848D01*
X44400400Y-52404420D01*
X44345653Y-52359217D01*
X44328293Y-52321204D01*
X44321379Y-52295400D01*
X44321378Y-52295398D01*
X44319956Y-52290090D01*
X44317633Y-52285108D01*
X44232912Y-52103423D01*
X44232910Y-52103420D01*
X44230589Y-52098442D01*
X44109301Y-51925224D01*
X44100405Y-51916328D01*
X44066379Y-51854016D01*
X44063500Y-51827233D01*
X44063500Y-49772767D01*
X44083502Y-49704646D01*
X44100405Y-49683672D01*
X44109301Y-49674776D01*
X44230589Y-49501558D01*
X44235465Y-49491103D01*
X44317633Y-49314892D01*
X44317634Y-49314891D01*
X44319956Y-49309910D01*
X44357802Y-49168669D01*
X44373262Y-49110970D01*
X44373262Y-49110968D01*
X44374686Y-49105655D01*
X44393116Y-48895000D01*
X44374686Y-48684345D01*
X44328293Y-48511204D01*
X44321379Y-48485400D01*
X44321378Y-48485398D01*
X44319956Y-48480090D01*
X44315838Y-48471259D01*
X44232912Y-48293423D01*
X44232910Y-48293420D01*
X44230589Y-48288442D01*
X44109301Y-48115224D01*
X43959776Y-47965699D01*
X43786558Y-47844411D01*
X43781580Y-47842090D01*
X43781577Y-47842088D01*
X43599892Y-47757367D01*
X43599891Y-47757366D01*
X43594910Y-47755044D01*
X43589602Y-47753622D01*
X43589600Y-47753621D01*
X43395970Y-47701738D01*
X43395968Y-47701738D01*
X43390655Y-47700314D01*
X43180000Y-47681884D01*
X42969345Y-47700314D01*
X42964032Y-47701738D01*
X42964030Y-47701738D01*
X42770400Y-47753621D01*
X42770398Y-47753622D01*
X42765090Y-47755044D01*
X42760109Y-47757366D01*
X42760108Y-47757367D01*
X42578423Y-47842088D01*
X42578420Y-47842090D01*
X42573442Y-47844411D01*
X42400224Y-47965699D01*
X42250699Y-48115224D01*
X42129411Y-48288442D01*
X42127090Y-48293420D01*
X42127088Y-48293423D01*
X42044162Y-48471259D01*
X42040044Y-48480090D01*
X42038622Y-48485398D01*
X42038621Y-48485400D01*
X42031707Y-48511204D01*
X41994755Y-48571827D01*
X41930894Y-48602848D01*
X41860400Y-48594420D01*
X41805653Y-48549217D01*
X41788293Y-48511204D01*
X41781379Y-48485400D01*
X41781378Y-48485398D01*
X41779956Y-48480090D01*
X41775838Y-48471259D01*
X41692912Y-48293423D01*
X41692910Y-48293420D01*
X41690589Y-48288442D01*
X41569301Y-48115224D01*
X41560405Y-48106328D01*
X41526379Y-48044016D01*
X41523500Y-48017233D01*
X41523500Y-45962767D01*
X41543502Y-45894646D01*
X41560405Y-45873672D01*
X41569301Y-45864776D01*
X41690589Y-45691558D01*
X41714652Y-45639956D01*
X41777633Y-45504892D01*
X41777634Y-45504891D01*
X41779956Y-45499910D01*
X41781426Y-45494426D01*
X41788293Y-45468796D01*
X41825245Y-45408173D01*
X41889106Y-45377152D01*
X41959600Y-45385580D01*
X42014347Y-45430783D01*
X42031707Y-45468796D01*
X42038575Y-45494426D01*
X42040044Y-45499910D01*
X42042366Y-45504891D01*
X42042367Y-45504892D01*
X42105349Y-45639956D01*
X42129411Y-45691558D01*
X42250699Y-45864776D01*
X42400224Y-46014301D01*
X42573442Y-46135589D01*
X42578420Y-46137910D01*
X42578423Y-46137912D01*
X42760108Y-46222633D01*
X42765090Y-46224956D01*
X42770398Y-46226378D01*
X42770400Y-46226379D01*
X42964030Y-46278262D01*
X42964032Y-46278262D01*
X42969345Y-46279686D01*
X43180000Y-46298116D01*
X43390655Y-46279686D01*
X43395968Y-46278262D01*
X43395970Y-46278262D01*
X43589600Y-46226379D01*
X43589602Y-46226378D01*
X43594910Y-46224956D01*
X43599892Y-46222633D01*
X43781577Y-46137912D01*
X43781580Y-46137910D01*
X43786558Y-46135589D01*
X43959776Y-46014301D01*
X44109301Y-45864776D01*
X44230589Y-45691558D01*
X44254652Y-45639956D01*
X44317633Y-45504892D01*
X44317634Y-45504891D01*
X44319956Y-45499910D01*
X44321426Y-45494426D01*
X44373262Y-45300970D01*
X44373262Y-45300968D01*
X44374686Y-45295655D01*
X44393116Y-45085000D01*
X44374686Y-44874345D01*
X44363072Y-44831000D01*
X44321379Y-44675400D01*
X44321378Y-44675398D01*
X44319956Y-44670090D01*
X44317633Y-44665108D01*
X44232912Y-44483423D01*
X44232910Y-44483420D01*
X44230589Y-44478442D01*
X44109301Y-44305224D01*
X44100405Y-44296328D01*
X44066379Y-44234016D01*
X44063500Y-44207233D01*
X44063500Y-41058149D01*
X44083502Y-40990028D01*
X44100404Y-40969054D01*
X44984564Y-40084893D01*
X45046877Y-40050868D01*
X45074019Y-40049127D01*
X45074019Y-40048019D01*
X45079525Y-40048019D01*
X45085000Y-40048498D01*
X45313087Y-40028543D01*
X45318400Y-40027119D01*
X45318402Y-40027119D01*
X45528933Y-39970707D01*
X45528935Y-39970706D01*
X45534243Y-39969284D01*
X45556109Y-39959088D01*
X45736762Y-39874849D01*
X45736767Y-39874846D01*
X45741749Y-39872523D01*
X45906553Y-39757126D01*
X45924789Y-39744357D01*
X45924792Y-39744355D01*
X45929300Y-39741198D01*
X46091198Y-39579300D01*
X46131908Y-39521161D01*
X46154743Y-39488548D01*
X46222523Y-39391749D01*
X46224846Y-39386767D01*
X46224849Y-39386762D01*
X46240805Y-39352543D01*
X46287722Y-39299258D01*
X46355999Y-39279797D01*
X46423959Y-39300339D01*
X46469195Y-39352543D01*
X46485151Y-39386762D01*
X46485154Y-39386767D01*
X46487477Y-39391749D01*
X46555257Y-39488548D01*
X46578093Y-39521161D01*
X46618802Y-39579300D01*
X46704595Y-39665093D01*
X46738621Y-39727405D01*
X46741500Y-39754188D01*
X46741500Y-43735543D01*
X46739949Y-43755255D01*
X46737850Y-43768507D01*
X46738195Y-43775094D01*
X46738195Y-43775098D01*
X46741327Y-43834850D01*
X46741500Y-43841445D01*
X46741500Y-43861306D01*
X46742972Y-43875314D01*
X46743576Y-43881059D01*
X46744093Y-43887628D01*
X46744308Y-43891738D01*
X46747224Y-43947367D01*
X46747570Y-43953971D01*
X46751042Y-43966929D01*
X46754645Y-43986372D01*
X46756046Y-43999702D01*
X46776578Y-44062894D01*
X46778444Y-44069196D01*
X46795638Y-44133363D01*
X46798634Y-44139242D01*
X46798637Y-44139251D01*
X46801728Y-44145317D01*
X46809292Y-44163579D01*
X46811392Y-44170043D01*
X46811395Y-44170051D01*
X46813436Y-44176331D01*
X46816738Y-44182050D01*
X46816740Y-44182055D01*
X46846654Y-44233867D01*
X46849787Y-44239637D01*
X46879953Y-44298839D01*
X46888391Y-44309259D01*
X46899589Y-44325552D01*
X46906296Y-44337169D01*
X46910713Y-44342075D01*
X46910717Y-44342080D01*
X46950747Y-44386538D01*
X46955031Y-44391554D01*
X46959436Y-44396993D01*
X46967528Y-44406986D01*
X46981573Y-44421031D01*
X46986114Y-44425816D01*
X47030566Y-44475185D01*
X47041426Y-44483075D01*
X47056454Y-44495912D01*
X47652939Y-45092397D01*
X47686965Y-45154709D01*
X47689365Y-45170509D01*
X47700314Y-45295655D01*
X47701738Y-45300968D01*
X47701738Y-45300970D01*
X47753575Y-45494426D01*
X47755044Y-45499910D01*
X47757366Y-45504891D01*
X47757367Y-45504892D01*
X47820349Y-45639956D01*
X47844411Y-45691558D01*
X47965699Y-45864776D01*
X48115224Y-46014301D01*
X48288442Y-46135589D01*
X48293420Y-46137910D01*
X48293423Y-46137912D01*
X48475108Y-46222633D01*
X48480090Y-46224956D01*
X48485398Y-46226378D01*
X48485400Y-46226379D01*
X48679030Y-46278262D01*
X48679032Y-46278262D01*
X48684345Y-46279686D01*
X48895000Y-46298116D01*
X49105655Y-46279686D01*
X49110968Y-46278262D01*
X49110970Y-46278262D01*
X49304600Y-46226379D01*
X49304602Y-46226378D01*
X49309910Y-46224956D01*
X49314892Y-46222633D01*
X49496577Y-46137912D01*
X49496580Y-46137910D01*
X49501558Y-46135589D01*
X49674776Y-46014301D01*
X49824301Y-45864776D01*
X49945589Y-45691558D01*
X49969652Y-45639956D01*
X50032633Y-45504892D01*
X50032634Y-45504891D01*
X50034956Y-45499910D01*
X50036379Y-45494600D01*
X50036382Y-45494592D01*
X50043553Y-45467829D01*
X50080504Y-45407207D01*
X50144365Y-45376185D01*
X50214860Y-45384614D01*
X50269606Y-45429818D01*
X50286966Y-45467830D01*
X50294092Y-45494426D01*
X50297841Y-45504723D01*
X50382521Y-45686323D01*
X50387998Y-45695811D01*
X50502925Y-45859942D01*
X50509981Y-45868350D01*
X50651650Y-46010019D01*
X50660058Y-46017075D01*
X50824189Y-46132002D01*
X50833677Y-46137479D01*
X51015273Y-46222158D01*
X51025577Y-46225908D01*
X51163503Y-46262866D01*
X51177599Y-46262530D01*
X51181000Y-46254588D01*
X51181000Y-43920561D01*
X51177027Y-43907030D01*
X51168478Y-43905801D01*
X51025577Y-43944092D01*
X51015273Y-43947842D01*
X50833677Y-44032521D01*
X50824189Y-44037998D01*
X50660058Y-44152925D01*
X50651650Y-44159981D01*
X50509981Y-44301650D01*
X50502925Y-44310058D01*
X50387998Y-44474189D01*
X50382521Y-44483677D01*
X50297841Y-44665277D01*
X50294092Y-44675574D01*
X50286966Y-44702170D01*
X50250014Y-44762793D01*
X50186154Y-44793814D01*
X50115659Y-44785386D01*
X50060912Y-44740183D01*
X50043553Y-44702171D01*
X50036382Y-44675408D01*
X50036378Y-44675397D01*
X50034956Y-44670090D01*
X50032633Y-44665108D01*
X49947912Y-44483423D01*
X49947910Y-44483420D01*
X49945589Y-44478442D01*
X49824301Y-44305224D01*
X49674776Y-44155699D01*
X49501558Y-44034411D01*
X49496580Y-44032090D01*
X49496577Y-44032088D01*
X49314892Y-43947367D01*
X49314891Y-43947366D01*
X49309910Y-43945044D01*
X49304602Y-43943622D01*
X49304600Y-43943621D01*
X49110970Y-43891738D01*
X49110968Y-43891738D01*
X49105655Y-43890314D01*
X48980510Y-43879365D01*
X48914392Y-43853501D01*
X48902397Y-43842939D01*
X48545405Y-43485947D01*
X48511379Y-43423635D01*
X48508500Y-43396852D01*
X48508500Y-39754188D01*
X48528502Y-39686067D01*
X48545405Y-39665093D01*
X48631198Y-39579300D01*
X48671908Y-39521161D01*
X48694743Y-39488548D01*
X48762523Y-39391749D01*
X48764846Y-39386767D01*
X48764849Y-39386762D01*
X48780805Y-39352543D01*
X48827722Y-39299258D01*
X48895999Y-39279797D01*
X48963959Y-39300339D01*
X49009195Y-39352543D01*
X49025151Y-39386762D01*
X49025154Y-39386767D01*
X49027477Y-39391749D01*
X49095257Y-39488548D01*
X49118093Y-39521161D01*
X49158802Y-39579300D01*
X49320700Y-39741198D01*
X49325208Y-39744355D01*
X49325211Y-39744357D01*
X49343447Y-39757126D01*
X49508251Y-39872523D01*
X49513233Y-39874846D01*
X49513238Y-39874849D01*
X49693891Y-39959088D01*
X49715757Y-39969284D01*
X49721065Y-39970706D01*
X49721067Y-39970707D01*
X49931598Y-40027119D01*
X49931600Y-40027119D01*
X49936913Y-40028543D01*
X50165000Y-40048498D01*
X50393087Y-40028543D01*
X50398400Y-40027119D01*
X50398402Y-40027119D01*
X50608933Y-39970707D01*
X50608935Y-39970706D01*
X50614243Y-39969284D01*
X50636109Y-39959088D01*
X50816762Y-39874849D01*
X50816767Y-39874846D01*
X50821749Y-39872523D01*
X50986553Y-39757126D01*
X51004789Y-39744357D01*
X51004792Y-39744355D01*
X51009300Y-39741198D01*
X51171198Y-39579300D01*
X51211908Y-39521161D01*
X51234743Y-39488548D01*
X51302523Y-39391749D01*
X51304846Y-39386767D01*
X51304849Y-39386762D01*
X51320805Y-39352543D01*
X51367722Y-39299258D01*
X51435999Y-39279797D01*
X51503959Y-39300339D01*
G37*
%TD.AperFunction*%
%TA.AperFunction,Conductor*%
G36*
X75022026Y-25440144D02*
G01*
X75049875Y-25471994D01*
X75109987Y-25570088D01*
X75256250Y-25738938D01*
X75262807Y-25744382D01*
X75280986Y-25759475D01*
X75320621Y-25818378D01*
X75326500Y-25856418D01*
X75326500Y-30373548D01*
X75306498Y-30441669D01*
X75289595Y-30462643D01*
X75006338Y-30745900D01*
X74944026Y-30779926D01*
X74873211Y-30774861D01*
X74816375Y-30732314D01*
X74798842Y-30699900D01*
X74797159Y-30695276D01*
X74712479Y-30513677D01*
X74707002Y-30504189D01*
X74592075Y-30340058D01*
X74585019Y-30331650D01*
X74443350Y-30189981D01*
X74434942Y-30182925D01*
X74270811Y-30067998D01*
X74261323Y-30062521D01*
X74079727Y-29977842D01*
X74069423Y-29974092D01*
X73931497Y-29937134D01*
X73917401Y-29937470D01*
X73914000Y-29945412D01*
X73914000Y-31243000D01*
X73893998Y-31311121D01*
X73840342Y-31357614D01*
X73788000Y-31369000D01*
X73532000Y-31369000D01*
X73463879Y-31348998D01*
X73417386Y-31295342D01*
X73406000Y-31243000D01*
X73406000Y-29950561D01*
X73402027Y-29937030D01*
X73393478Y-29935801D01*
X73250577Y-29974092D01*
X73240273Y-29977842D01*
X73058677Y-30062521D01*
X73049189Y-30067998D01*
X72885058Y-30182925D01*
X72876650Y-30189981D01*
X72734981Y-30331650D01*
X72727925Y-30340058D01*
X72612998Y-30504189D01*
X72607521Y-30513677D01*
X72522841Y-30695277D01*
X72519092Y-30705574D01*
X72511966Y-30732170D01*
X72475014Y-30792793D01*
X72411154Y-30823814D01*
X72340659Y-30815386D01*
X72285912Y-30770183D01*
X72268553Y-30732171D01*
X72261382Y-30705408D01*
X72261378Y-30705397D01*
X72259956Y-30700090D01*
X72242170Y-30661948D01*
X72172912Y-30513423D01*
X72172910Y-30513420D01*
X72170589Y-30508442D01*
X72049301Y-30335224D01*
X72040405Y-30326328D01*
X72006379Y-30264016D01*
X72003500Y-30237233D01*
X72003500Y-26235927D01*
X72023502Y-26167806D01*
X72077158Y-26121313D01*
X72090332Y-26116787D01*
X72090316Y-26116745D01*
X72218297Y-26068767D01*
X72226705Y-26065615D01*
X72343261Y-25978261D01*
X72430615Y-25861705D01*
X72456376Y-25792989D01*
X72474598Y-25744382D01*
X72517240Y-25687618D01*
X72583802Y-25662918D01*
X72653150Y-25678126D01*
X72687817Y-25706114D01*
X72716250Y-25738938D01*
X72888126Y-25881632D01*
X73081000Y-25994338D01*
X73289692Y-26074030D01*
X73294760Y-26075061D01*
X73294763Y-26075062D01*
X73402017Y-26096883D01*
X73508597Y-26118567D01*
X73513772Y-26118757D01*
X73513774Y-26118757D01*
X73726673Y-26126564D01*
X73726677Y-26126564D01*
X73731837Y-26126753D01*
X73736957Y-26126097D01*
X73736959Y-26126097D01*
X73948288Y-26099025D01*
X73948289Y-26099025D01*
X73953416Y-26098368D01*
X73958366Y-26096883D01*
X74162429Y-26035661D01*
X74162434Y-26035659D01*
X74167384Y-26034174D01*
X74367994Y-25935896D01*
X74549860Y-25806173D01*
X74596722Y-25759475D01*
X74693616Y-25662918D01*
X74708096Y-25648489D01*
X74763491Y-25571399D01*
X74838453Y-25467077D01*
X74839776Y-25468028D01*
X74886645Y-25424857D01*
X74956580Y-25412625D01*
X75022026Y-25440144D01*
G37*
%TD.AperFunction*%
%TD*%
M02*
