%TF.GenerationSoftware,KiCad,Pcbnew,(6.0.2)*%
%TF.CreationDate,2022-03-17T17:29:19-05:00*%
%TF.ProjectId,alarm-PIC16F1619,616c6172-6d2d-4504-9943-313646313631,rev?*%
%TF.SameCoordinates,Original*%
%TF.FileFunction,Copper,L2,Bot*%
%TF.FilePolarity,Positive*%
%FSLAX46Y46*%
G04 Gerber Fmt 4.6, Leading zero omitted, Abs format (unit mm)*
G04 Created by KiCad (PCBNEW (6.0.2)) date 2022-03-17 17:29:19*
%MOMM*%
%LPD*%
G01*
G04 APERTURE LIST*
G04 Aperture macros list*
%AMRoundRect*
0 Rectangle with rounded corners*
0 $1 Rounding radius*
0 $2 $3 $4 $5 $6 $7 $8 $9 X,Y pos of 4 corners*
0 Add a 4 corners polygon primitive as box body*
4,1,4,$2,$3,$4,$5,$6,$7,$8,$9,$2,$3,0*
0 Add four circle primitives for the rounded corners*
1,1,$1+$1,$2,$3*
1,1,$1+$1,$4,$5*
1,1,$1+$1,$6,$7*
1,1,$1+$1,$8,$9*
0 Add four rect primitives between the rounded corners*
20,1,$1+$1,$2,$3,$4,$5,0*
20,1,$1+$1,$4,$5,$6,$7,0*
20,1,$1+$1,$6,$7,$8,$9,0*
20,1,$1+$1,$8,$9,$2,$3,0*%
G04 Aperture macros list end*
%TA.AperFunction,ComponentPad*%
%ADD10R,1.700000X1.700000*%
%TD*%
%TA.AperFunction,ComponentPad*%
%ADD11O,1.700000X1.700000*%
%TD*%
%TA.AperFunction,ComponentPad*%
%ADD12R,1.600000X1.600000*%
%TD*%
%TA.AperFunction,ComponentPad*%
%ADD13O,1.600000X1.600000*%
%TD*%
%TA.AperFunction,ComponentPad*%
%ADD14C,1.400000*%
%TD*%
%TA.AperFunction,ComponentPad*%
%ADD15O,1.400000X1.400000*%
%TD*%
%TA.AperFunction,ComponentPad*%
%ADD16C,1.600000*%
%TD*%
%TA.AperFunction,ComponentPad*%
%ADD17O,2.000000X2.000000*%
%TD*%
%TA.AperFunction,ComponentPad*%
%ADD18R,2.000000X2.000000*%
%TD*%
%TA.AperFunction,ComponentPad*%
%ADD19R,2.000000X1.905000*%
%TD*%
%TA.AperFunction,ComponentPad*%
%ADD20O,2.000000X1.905000*%
%TD*%
%TA.AperFunction,ComponentPad*%
%ADD21RoundRect,0.250000X0.750000X-0.600000X0.750000X0.600000X-0.750000X0.600000X-0.750000X-0.600000X0*%
%TD*%
%TA.AperFunction,ComponentPad*%
%ADD22O,2.000000X1.700000*%
%TD*%
%TA.AperFunction,Conductor*%
%ADD23C,0.750000*%
%TD*%
G04 APERTURE END LIST*
D10*
%TO.P,DACInputs_+5v2,1,Pin_1*%
%TO.N,+5V*%
X71130000Y-20115000D03*
D11*
%TO.P,DACInputs_+5v2,2,Pin_2*%
X73670000Y-20115000D03*
%TO.P,DACInputs_+5v2,3,Pin_3*%
X76210000Y-20115000D03*
%TO.P,DACInputs_+5v2,4,Pin_4*%
X78750000Y-20115000D03*
%TD*%
D10*
%TO.P,DACInputs2,1,Pin_1*%
%TO.N,Net-(DACInputs2-Pad1)*%
X71130000Y-24765000D03*
D11*
%TO.P,DACInputs2,2,Pin_2*%
%TO.N,Net-(DACInputs2-Pad2)*%
X73670000Y-24765000D03*
%TO.P,DACInputs2,3,Pin_3*%
%TO.N,Net-(DACInputs2-Pad3)*%
X76210000Y-24765000D03*
%TO.P,DACInputs2,4,Pin_4*%
%TO.N,Net-(DACInputs2-Pad4)*%
X78750000Y-24765000D03*
%TD*%
D12*
%TO.P,U5,1*%
%TO.N,Net-(DACInputs2-Pad1)*%
X60325000Y-31115000D03*
D13*
%TO.P,U5,2*%
%TO.N,+5V*%
X57785000Y-31115000D03*
%TO.P,U5,3*%
%TO.N,Net-(U5-Pad3)*%
X55245000Y-31115000D03*
%TO.P,U5,4*%
%TO.N,Net-(DACInputs2-Pad2)*%
X52705000Y-31115000D03*
%TO.P,U5,5*%
%TO.N,+5V*%
X50165000Y-31115000D03*
%TO.P,U5,6*%
%TO.N,Net-(U5-Pad6)*%
X47625000Y-31115000D03*
%TO.P,U5,7,GND*%
%TO.N,GND*%
X45085000Y-31115000D03*
%TO.P,U5,8*%
%TO.N,Net-(U5-Pad8)*%
X45085000Y-38735000D03*
%TO.P,U5,9*%
%TO.N,Net-(DACInputs2-Pad3)*%
X47625000Y-38735000D03*
%TO.P,U5,10*%
%TO.N,+5V*%
X50165000Y-38735000D03*
%TO.P,U5,11*%
%TO.N,Net-(U5-Pad11)*%
X52705000Y-38735000D03*
%TO.P,U5,12*%
%TO.N,Net-(DACInputs2-Pad4)*%
X55245000Y-38735000D03*
%TO.P,U5,13*%
%TO.N,+5V*%
X57785000Y-38735000D03*
%TO.P,U5,14,VCC*%
X60325000Y-38735000D03*
%TD*%
D14*
%TO.P,r_pd_b11,1*%
%TO.N,Net-(DACInputs2-Pad4)*%
X55880000Y-42545000D03*
D15*
%TO.P,r_pd_b11,2*%
%TO.N,GND*%
X55880000Y-45085000D03*
%TD*%
D14*
%TO.P,r_pd_b10,1*%
%TO.N,Net-(DACInputs2-Pad3)*%
X48895000Y-45085000D03*
D15*
%TO.P,r_pd_b10,2*%
%TO.N,GND*%
X51435000Y-45085000D03*
%TD*%
%TO.P,r_pd_b9,2*%
%TO.N,GND*%
X52705000Y-26035000D03*
D14*
%TO.P,r_pd_b9,1*%
%TO.N,Net-(DACInputs2-Pad2)*%
X55245000Y-26035000D03*
%TD*%
%TO.P,r_pd_b8,1*%
%TO.N,Net-(DACInputs2-Pad1)*%
X71120000Y-31115000D03*
D15*
%TO.P,r_pd_b8,2*%
%TO.N,GND*%
X73660000Y-31115000D03*
%TD*%
D14*
%TO.P,r26,1*%
%TO.N,AN0*%
X43180000Y-52705000D03*
D15*
%TO.P,r26,2*%
%TO.N,Net-(U5-Pad11)*%
X45720000Y-52705000D03*
%TD*%
D14*
%TO.P,r25,1*%
%TO.N,Net-(r23-Pad2)*%
X40640000Y-48895000D03*
D15*
%TO.P,r25,2*%
%TO.N,AN0*%
X43180000Y-48895000D03*
%TD*%
D14*
%TO.P,r24,1*%
%TO.N,Net-(r23-Pad2)*%
X40640000Y-45085000D03*
D15*
%TO.P,r24,2*%
%TO.N,Net-(U5-Pad8)*%
X43180000Y-45085000D03*
%TD*%
D14*
%TO.P,r23,1*%
%TO.N,Net-(r21-Pad2)*%
X36830000Y-52705000D03*
D15*
%TO.P,r23,2*%
%TO.N,Net-(r23-Pad2)*%
X39370000Y-52705000D03*
%TD*%
D14*
%TO.P,r22,1*%
%TO.N,Net-(r21-Pad2)*%
X37465000Y-48260000D03*
D15*
%TO.P,r22,2*%
%TO.N,Net-(U5-Pad6)*%
X37465000Y-45720000D03*
%TD*%
D14*
%TO.P,r21,1*%
%TO.N,Net-(r19-Pad2)*%
X66675000Y-41960000D03*
D15*
%TO.P,r21,2*%
%TO.N,Net-(r21-Pad2)*%
X66675000Y-44500000D03*
%TD*%
D14*
%TO.P,r20,1*%
%TO.N,Net-(r19-Pad2)*%
X66675000Y-36145000D03*
D15*
%TO.P,r20,2*%
%TO.N,Net-(U5-Pad3)*%
X66675000Y-33605000D03*
%TD*%
D14*
%TO.P,r19,1*%
%TO.N,Net-(r18-Pad1)*%
X48945000Y-56515000D03*
D15*
%TO.P,r19,2*%
%TO.N,Net-(r19-Pad2)*%
X51485000Y-56515000D03*
%TD*%
D14*
%TO.P,r18,1*%
%TO.N,Net-(r18-Pad1)*%
X48895000Y-52705000D03*
D15*
%TO.P,r18,2*%
%TO.N,GND*%
X51435000Y-52705000D03*
%TD*%
D12*
%TO.P,U2,1,VDD*%
%TO.N,+5V*%
X42870000Y-22850000D03*
D13*
%TO.P,U2,2,RA5*%
%TO.N,unconnected-(U2-Pad2)*%
X45410000Y-22850000D03*
%TO.P,U2,3,RA4*%
%TO.N,unconnected-(U2-Pad3)*%
X47950000Y-22850000D03*
%TO.P,U2,4,RA3/~{MCLR}/VPP*%
%TO.N,unconnected-(U2-Pad4)*%
X50490000Y-22850000D03*
%TO.P,U2,5,RC5*%
%TO.N,unconnected-(U2-Pad5)*%
X53030000Y-22850000D03*
%TO.P,U2,6,RC4*%
%TO.N,unconnected-(U2-Pad6)*%
X55570000Y-22850000D03*
%TO.P,U2,7,RC3*%
%TO.N,unconnected-(U2-Pad7)*%
X58110000Y-22850000D03*
%TO.P,U2,8,RC6*%
%TO.N,unconnected-(U2-Pad8)*%
X60650000Y-22850000D03*
%TO.P,U2,9,RC7*%
%TO.N,unconnected-(U2-Pad9)*%
X63190000Y-22850000D03*
%TO.P,U2,10,RB7*%
%TO.N,unconnected-(U2-Pad10)*%
X63190000Y-15230000D03*
%TO.P,U2,11,RB6*%
%TO.N,unconnected-(U2-Pad11)*%
X60650000Y-15230000D03*
%TO.P,U2,12,RB5*%
%TO.N,unconnected-(U2-Pad12)*%
X58110000Y-15230000D03*
%TO.P,U2,13,RB4*%
%TO.N,unconnected-(U2-Pad13)*%
X55570000Y-15230000D03*
%TO.P,U2,14,RC2*%
%TO.N,unconnected-(U2-Pad14)*%
X53030000Y-15230000D03*
%TO.P,U2,15,RC1*%
%TO.N,unconnected-(U2-Pad15)*%
X50490000Y-15230000D03*
%TO.P,U2,16,RC0*%
%TO.N,Net-(LS1-Pad1)*%
X47950000Y-15230000D03*
%TO.P,U2,17,RA2*%
%TO.N,unconnected-(U2-Pad17)*%
X45410000Y-15230000D03*
%TO.P,U2,18,RA1/ICSPCLK*%
%TO.N,unconnected-(U2-Pad18)*%
X42870000Y-15230000D03*
%TD*%
D12*
%TO.P,RegIn1,1*%
%TO.N,Net-(RegIn1-Pad1)*%
X31750000Y-38872349D03*
D16*
%TO.P,RegIn1,2*%
%TO.N,GND*%
X31750000Y-43872349D03*
%TD*%
D17*
%TO.P,LS1,2,2*%
%TO.N,GND*%
X21710000Y-17632829D03*
D18*
%TO.P,LS1,1,1*%
%TO.N,Net-(LS1-Pad1)*%
X36710000Y-17632829D03*
%TD*%
D19*
%TO.P,U1,1,IN*%
%TO.N,Net-(RegIn1-Pad1)*%
X21590000Y-31252349D03*
D20*
%TO.P,U1,2,GND*%
%TO.N,GND*%
X21590000Y-28712349D03*
%TO.P,U1,3,OUT*%
%TO.N,+5V*%
X21590000Y-26172349D03*
%TD*%
D12*
%TO.P,RegOut1,1*%
%TO.N,+5V*%
X31750000Y-26172349D03*
D16*
%TO.P,RegOut1,2*%
%TO.N,GND*%
X31750000Y-31172349D03*
%TD*%
D21*
%TO.P,BattIn1,1,Pin_1*%
%TO.N,GND*%
X21590000Y-41412349D03*
D22*
%TO.P,BattIn1,2,Pin_2*%
%TO.N,Net-(RegIn1-Pad1)*%
X21590000Y-38912349D03*
%TD*%
D23*
%TO.N,GND*%
X51435000Y-45085000D02*
X51435000Y-52705000D01*
X51435000Y-45085000D02*
X55880000Y-45085000D01*
X54610000Y-27940000D02*
X52705000Y-26035000D01*
X72390000Y-27940000D02*
X54610000Y-27940000D01*
X73660000Y-29210000D02*
X72390000Y-27940000D01*
X73660000Y-31115000D02*
X73660000Y-29210000D01*
%TO.N,+5V*%
X57785000Y-38735000D02*
X57785000Y-31115000D01*
%TO.N,Net-(r19-Pad2)*%
X66675000Y-36145000D02*
X66675000Y-41960000D01*
%TD*%
M02*
