%TF.GenerationSoftware,KiCad,Pcbnew,(6.0.2)*%
%TF.CreationDate,2022-03-17T17:29:19-05:00*%
%TF.ProjectId,alarm-PIC16F1619,616c6172-6d2d-4504-9943-313646313631,rev?*%
%TF.SameCoordinates,Original*%
%TF.FileFunction,Legend,Top*%
%TF.FilePolarity,Positive*%
%FSLAX46Y46*%
G04 Gerber Fmt 4.6, Leading zero omitted, Abs format (unit mm)*
G04 Created by KiCad (PCBNEW (6.0.2)) date 2022-03-17 17:29:19*
%MOMM*%
%LPD*%
G01*
G04 APERTURE LIST*
%ADD10C,0.150000*%
%ADD11C,0.120000*%
G04 APERTURE END LIST*
D10*
%TO.C,DACInputs_+5v2*%
X73565476Y-18232380D02*
X73565476Y-17232380D01*
X73803571Y-17232380D01*
X73946428Y-17280000D01*
X74041666Y-17375238D01*
X74089285Y-17470476D01*
X74136904Y-17660952D01*
X74136904Y-17803809D01*
X74089285Y-17994285D01*
X74041666Y-18089523D01*
X73946428Y-18184761D01*
X73803571Y-18232380D01*
X73565476Y-18232380D01*
X74517857Y-17946666D02*
X74994047Y-17946666D01*
X74422619Y-18232380D02*
X74755952Y-17232380D01*
X75089285Y-18232380D01*
X75994047Y-18137142D02*
X75946428Y-18184761D01*
X75803571Y-18232380D01*
X75708333Y-18232380D01*
X75565476Y-18184761D01*
X75470238Y-18089523D01*
X75422619Y-17994285D01*
X75375000Y-17803809D01*
X75375000Y-17660952D01*
X75422619Y-17470476D01*
X75470238Y-17375238D01*
X75565476Y-17280000D01*
X75708333Y-17232380D01*
X75803571Y-17232380D01*
X75946428Y-17280000D01*
X75994047Y-17327619D01*
X76422619Y-18232380D02*
X76422619Y-17232380D01*
X76898809Y-17565714D02*
X76898809Y-18232380D01*
X76898809Y-17660952D02*
X76946428Y-17613333D01*
X77041666Y-17565714D01*
X77184523Y-17565714D01*
X77279761Y-17613333D01*
X77327380Y-17708571D01*
X77327380Y-18232380D01*
X77803571Y-17565714D02*
X77803571Y-18565714D01*
X77803571Y-17613333D02*
X77898809Y-17565714D01*
X78089285Y-17565714D01*
X78184523Y-17613333D01*
X78232142Y-17660952D01*
X78279761Y-17756190D01*
X78279761Y-18041904D01*
X78232142Y-18137142D01*
X78184523Y-18184761D01*
X78089285Y-18232380D01*
X77898809Y-18232380D01*
X77803571Y-18184761D01*
X79136904Y-17565714D02*
X79136904Y-18232380D01*
X78708333Y-17565714D02*
X78708333Y-18089523D01*
X78755952Y-18184761D01*
X78851190Y-18232380D01*
X78994047Y-18232380D01*
X79089285Y-18184761D01*
X79136904Y-18137142D01*
X79470238Y-17565714D02*
X79851190Y-17565714D01*
X79613095Y-17232380D02*
X79613095Y-18089523D01*
X79660714Y-18184761D01*
X79755952Y-18232380D01*
X79851190Y-18232380D01*
X80136904Y-18184761D02*
X80232142Y-18232380D01*
X80422619Y-18232380D01*
X80517857Y-18184761D01*
X80565476Y-18089523D01*
X80565476Y-18041904D01*
X80517857Y-17946666D01*
X80422619Y-17899047D01*
X80279761Y-17899047D01*
X80184523Y-17851428D01*
X80136904Y-17756190D01*
X80136904Y-17708571D01*
X80184523Y-17613333D01*
X80279761Y-17565714D01*
X80422619Y-17565714D01*
X80517857Y-17613333D01*
X80755952Y-18327619D02*
X81517857Y-18327619D01*
X81755952Y-17851428D02*
X82517857Y-17851428D01*
X82136904Y-18232380D02*
X82136904Y-17470476D01*
X83470238Y-17232380D02*
X82994047Y-17232380D01*
X82946428Y-17708571D01*
X82994047Y-17660952D01*
X83089285Y-17613333D01*
X83327380Y-17613333D01*
X83422619Y-17660952D01*
X83470238Y-17708571D01*
X83517857Y-17803809D01*
X83517857Y-18041904D01*
X83470238Y-18137142D01*
X83422619Y-18184761D01*
X83327380Y-18232380D01*
X83089285Y-18232380D01*
X82994047Y-18184761D01*
X82946428Y-18137142D01*
X83851190Y-17565714D02*
X84089285Y-18232380D01*
X84327380Y-17565714D01*
X84660714Y-17327619D02*
X84708333Y-17280000D01*
X84803571Y-17232380D01*
X85041666Y-17232380D01*
X85136904Y-17280000D01*
X85184523Y-17327619D01*
X85232142Y-17422857D01*
X85232142Y-17518095D01*
X85184523Y-17660952D01*
X84613095Y-18232380D01*
X85232142Y-18232380D01*
%TO.C,DACInputs2*%
X74152619Y-27757380D02*
X74152619Y-26757380D01*
X74390714Y-26757380D01*
X74533571Y-26805000D01*
X74628809Y-26900238D01*
X74676428Y-26995476D01*
X74724047Y-27185952D01*
X74724047Y-27328809D01*
X74676428Y-27519285D01*
X74628809Y-27614523D01*
X74533571Y-27709761D01*
X74390714Y-27757380D01*
X74152619Y-27757380D01*
X75105000Y-27471666D02*
X75581190Y-27471666D01*
X75009761Y-27757380D02*
X75343095Y-26757380D01*
X75676428Y-27757380D01*
X76581190Y-27662142D02*
X76533571Y-27709761D01*
X76390714Y-27757380D01*
X76295476Y-27757380D01*
X76152619Y-27709761D01*
X76057380Y-27614523D01*
X76009761Y-27519285D01*
X75962142Y-27328809D01*
X75962142Y-27185952D01*
X76009761Y-26995476D01*
X76057380Y-26900238D01*
X76152619Y-26805000D01*
X76295476Y-26757380D01*
X76390714Y-26757380D01*
X76533571Y-26805000D01*
X76581190Y-26852619D01*
X77009761Y-27757380D02*
X77009761Y-26757380D01*
X77485952Y-27090714D02*
X77485952Y-27757380D01*
X77485952Y-27185952D02*
X77533571Y-27138333D01*
X77628809Y-27090714D01*
X77771666Y-27090714D01*
X77866904Y-27138333D01*
X77914523Y-27233571D01*
X77914523Y-27757380D01*
X78390714Y-27090714D02*
X78390714Y-28090714D01*
X78390714Y-27138333D02*
X78485952Y-27090714D01*
X78676428Y-27090714D01*
X78771666Y-27138333D01*
X78819285Y-27185952D01*
X78866904Y-27281190D01*
X78866904Y-27566904D01*
X78819285Y-27662142D01*
X78771666Y-27709761D01*
X78676428Y-27757380D01*
X78485952Y-27757380D01*
X78390714Y-27709761D01*
X79724047Y-27090714D02*
X79724047Y-27757380D01*
X79295476Y-27090714D02*
X79295476Y-27614523D01*
X79343095Y-27709761D01*
X79438333Y-27757380D01*
X79581190Y-27757380D01*
X79676428Y-27709761D01*
X79724047Y-27662142D01*
X80057380Y-27090714D02*
X80438333Y-27090714D01*
X80200238Y-26757380D02*
X80200238Y-27614523D01*
X80247857Y-27709761D01*
X80343095Y-27757380D01*
X80438333Y-27757380D01*
X80724047Y-27709761D02*
X80819285Y-27757380D01*
X81009761Y-27757380D01*
X81105000Y-27709761D01*
X81152619Y-27614523D01*
X81152619Y-27566904D01*
X81105000Y-27471666D01*
X81009761Y-27424047D01*
X80866904Y-27424047D01*
X80771666Y-27376428D01*
X80724047Y-27281190D01*
X80724047Y-27233571D01*
X80771666Y-27138333D01*
X80866904Y-27090714D01*
X81009761Y-27090714D01*
X81105000Y-27138333D01*
X81533571Y-26852619D02*
X81581190Y-26805000D01*
X81676428Y-26757380D01*
X81914523Y-26757380D01*
X82009761Y-26805000D01*
X82057380Y-26852619D01*
X82105000Y-26947857D01*
X82105000Y-27043095D01*
X82057380Y-27185952D01*
X81485952Y-27757380D01*
X82105000Y-27757380D01*
%TO.C,U5*%
X62107380Y-35686904D02*
X62916904Y-35686904D01*
X63012142Y-35639285D01*
X63059761Y-35591666D01*
X63107380Y-35496428D01*
X63107380Y-35305952D01*
X63059761Y-35210714D01*
X63012142Y-35163095D01*
X62916904Y-35115476D01*
X62107380Y-35115476D01*
X62107380Y-34163095D02*
X62107380Y-34639285D01*
X62583571Y-34686904D01*
X62535952Y-34639285D01*
X62488333Y-34544047D01*
X62488333Y-34305952D01*
X62535952Y-34210714D01*
X62583571Y-34163095D01*
X62678809Y-34115476D01*
X62916904Y-34115476D01*
X63012142Y-34163095D01*
X63059761Y-34210714D01*
X63107380Y-34305952D01*
X63107380Y-34544047D01*
X63059761Y-34639285D01*
X63012142Y-34686904D01*
%TO.C,r_pd_b11*%
X58252380Y-46957857D02*
X57585714Y-46957857D01*
X57776190Y-46957857D02*
X57680952Y-46910238D01*
X57633333Y-46862619D01*
X57585714Y-46767380D01*
X57585714Y-46672142D01*
X58347619Y-46576904D02*
X58347619Y-45815000D01*
X57585714Y-45576904D02*
X58585714Y-45576904D01*
X57633333Y-45576904D02*
X57585714Y-45481666D01*
X57585714Y-45291190D01*
X57633333Y-45195952D01*
X57680952Y-45148333D01*
X57776190Y-45100714D01*
X58061904Y-45100714D01*
X58157142Y-45148333D01*
X58204761Y-45195952D01*
X58252380Y-45291190D01*
X58252380Y-45481666D01*
X58204761Y-45576904D01*
X58252380Y-44243571D02*
X57252380Y-44243571D01*
X58204761Y-44243571D02*
X58252380Y-44338809D01*
X58252380Y-44529285D01*
X58204761Y-44624523D01*
X58157142Y-44672142D01*
X58061904Y-44719761D01*
X57776190Y-44719761D01*
X57680952Y-44672142D01*
X57633333Y-44624523D01*
X57585714Y-44529285D01*
X57585714Y-44338809D01*
X57633333Y-44243571D01*
X58347619Y-44005476D02*
X58347619Y-43243571D01*
X58252380Y-43005476D02*
X57252380Y-43005476D01*
X57633333Y-43005476D02*
X57585714Y-42910238D01*
X57585714Y-42719761D01*
X57633333Y-42624523D01*
X57680952Y-42576904D01*
X57776190Y-42529285D01*
X58061904Y-42529285D01*
X58157142Y-42576904D01*
X58204761Y-42624523D01*
X58252380Y-42719761D01*
X58252380Y-42910238D01*
X58204761Y-43005476D01*
X58252380Y-41576904D02*
X58252380Y-42148333D01*
X58252380Y-41862619D02*
X57252380Y-41862619D01*
X57395238Y-41957857D01*
X57490476Y-42053095D01*
X57538095Y-42148333D01*
X58252380Y-40624523D02*
X58252380Y-41195952D01*
X58252380Y-40910238D02*
X57252380Y-40910238D01*
X57395238Y-41005476D01*
X57490476Y-41100714D01*
X57538095Y-41195952D01*
%TO.C,r_pd_b10*%
X47022142Y-43617380D02*
X47022142Y-42950714D01*
X47022142Y-43141190D02*
X47069761Y-43045952D01*
X47117380Y-42998333D01*
X47212619Y-42950714D01*
X47307857Y-42950714D01*
X47403095Y-43712619D02*
X48165000Y-43712619D01*
X48403095Y-42950714D02*
X48403095Y-43950714D01*
X48403095Y-42998333D02*
X48498333Y-42950714D01*
X48688809Y-42950714D01*
X48784047Y-42998333D01*
X48831666Y-43045952D01*
X48879285Y-43141190D01*
X48879285Y-43426904D01*
X48831666Y-43522142D01*
X48784047Y-43569761D01*
X48688809Y-43617380D01*
X48498333Y-43617380D01*
X48403095Y-43569761D01*
X49736428Y-43617380D02*
X49736428Y-42617380D01*
X49736428Y-43569761D02*
X49641190Y-43617380D01*
X49450714Y-43617380D01*
X49355476Y-43569761D01*
X49307857Y-43522142D01*
X49260238Y-43426904D01*
X49260238Y-43141190D01*
X49307857Y-43045952D01*
X49355476Y-42998333D01*
X49450714Y-42950714D01*
X49641190Y-42950714D01*
X49736428Y-42998333D01*
X49974523Y-43712619D02*
X50736428Y-43712619D01*
X50974523Y-43617380D02*
X50974523Y-42617380D01*
X50974523Y-42998333D02*
X51069761Y-42950714D01*
X51260238Y-42950714D01*
X51355476Y-42998333D01*
X51403095Y-43045952D01*
X51450714Y-43141190D01*
X51450714Y-43426904D01*
X51403095Y-43522142D01*
X51355476Y-43569761D01*
X51260238Y-43617380D01*
X51069761Y-43617380D01*
X50974523Y-43569761D01*
X52403095Y-43617380D02*
X51831666Y-43617380D01*
X52117380Y-43617380D02*
X52117380Y-42617380D01*
X52022142Y-42760238D01*
X51926904Y-42855476D01*
X51831666Y-42903095D01*
X53022142Y-42617380D02*
X53117380Y-42617380D01*
X53212619Y-42665000D01*
X53260238Y-42712619D01*
X53307857Y-42807857D01*
X53355476Y-42998333D01*
X53355476Y-43236428D01*
X53307857Y-43426904D01*
X53260238Y-43522142D01*
X53212619Y-43569761D01*
X53117380Y-43617380D01*
X53022142Y-43617380D01*
X52926904Y-43569761D01*
X52879285Y-43522142D01*
X52831666Y-43426904D01*
X52784047Y-43236428D01*
X52784047Y-42998333D01*
X52831666Y-42807857D01*
X52879285Y-42712619D01*
X52926904Y-42665000D01*
X53022142Y-42617380D01*
%TO.C,r_pd_b9*%
X51308333Y-28407380D02*
X51308333Y-27740714D01*
X51308333Y-27931190D02*
X51355952Y-27835952D01*
X51403571Y-27788333D01*
X51498809Y-27740714D01*
X51594047Y-27740714D01*
X51689285Y-28502619D02*
X52451190Y-28502619D01*
X52689285Y-27740714D02*
X52689285Y-28740714D01*
X52689285Y-27788333D02*
X52784523Y-27740714D01*
X52975000Y-27740714D01*
X53070238Y-27788333D01*
X53117857Y-27835952D01*
X53165476Y-27931190D01*
X53165476Y-28216904D01*
X53117857Y-28312142D01*
X53070238Y-28359761D01*
X52975000Y-28407380D01*
X52784523Y-28407380D01*
X52689285Y-28359761D01*
X54022619Y-28407380D02*
X54022619Y-27407380D01*
X54022619Y-28359761D02*
X53927380Y-28407380D01*
X53736904Y-28407380D01*
X53641666Y-28359761D01*
X53594047Y-28312142D01*
X53546428Y-28216904D01*
X53546428Y-27931190D01*
X53594047Y-27835952D01*
X53641666Y-27788333D01*
X53736904Y-27740714D01*
X53927380Y-27740714D01*
X54022619Y-27788333D01*
X54260714Y-28502619D02*
X55022619Y-28502619D01*
X55260714Y-28407380D02*
X55260714Y-27407380D01*
X55260714Y-27788333D02*
X55355952Y-27740714D01*
X55546428Y-27740714D01*
X55641666Y-27788333D01*
X55689285Y-27835952D01*
X55736904Y-27931190D01*
X55736904Y-28216904D01*
X55689285Y-28312142D01*
X55641666Y-28359761D01*
X55546428Y-28407380D01*
X55355952Y-28407380D01*
X55260714Y-28359761D01*
X56213095Y-28407380D02*
X56403571Y-28407380D01*
X56498809Y-28359761D01*
X56546428Y-28312142D01*
X56641666Y-28169285D01*
X56689285Y-27978809D01*
X56689285Y-27597857D01*
X56641666Y-27502619D01*
X56594047Y-27455000D01*
X56498809Y-27407380D01*
X56308333Y-27407380D01*
X56213095Y-27455000D01*
X56165476Y-27502619D01*
X56117857Y-27597857D01*
X56117857Y-27835952D01*
X56165476Y-27931190D01*
X56213095Y-27978809D01*
X56308333Y-28026428D01*
X56498809Y-28026428D01*
X56594047Y-27978809D01*
X56641666Y-27931190D01*
X56689285Y-27835952D01*
%TO.C,r_pd_b8*%
X69723333Y-29647380D02*
X69723333Y-28980714D01*
X69723333Y-29171190D02*
X69770952Y-29075952D01*
X69818571Y-29028333D01*
X69913809Y-28980714D01*
X70009047Y-28980714D01*
X70104285Y-29742619D02*
X70866190Y-29742619D01*
X71104285Y-28980714D02*
X71104285Y-29980714D01*
X71104285Y-29028333D02*
X71199523Y-28980714D01*
X71390000Y-28980714D01*
X71485238Y-29028333D01*
X71532857Y-29075952D01*
X71580476Y-29171190D01*
X71580476Y-29456904D01*
X71532857Y-29552142D01*
X71485238Y-29599761D01*
X71390000Y-29647380D01*
X71199523Y-29647380D01*
X71104285Y-29599761D01*
X72437619Y-29647380D02*
X72437619Y-28647380D01*
X72437619Y-29599761D02*
X72342380Y-29647380D01*
X72151904Y-29647380D01*
X72056666Y-29599761D01*
X72009047Y-29552142D01*
X71961428Y-29456904D01*
X71961428Y-29171190D01*
X72009047Y-29075952D01*
X72056666Y-29028333D01*
X72151904Y-28980714D01*
X72342380Y-28980714D01*
X72437619Y-29028333D01*
X72675714Y-29742619D02*
X73437619Y-29742619D01*
X73675714Y-29647380D02*
X73675714Y-28647380D01*
X73675714Y-29028333D02*
X73770952Y-28980714D01*
X73961428Y-28980714D01*
X74056666Y-29028333D01*
X74104285Y-29075952D01*
X74151904Y-29171190D01*
X74151904Y-29456904D01*
X74104285Y-29552142D01*
X74056666Y-29599761D01*
X73961428Y-29647380D01*
X73770952Y-29647380D01*
X73675714Y-29599761D01*
X74723333Y-29075952D02*
X74628095Y-29028333D01*
X74580476Y-28980714D01*
X74532857Y-28885476D01*
X74532857Y-28837857D01*
X74580476Y-28742619D01*
X74628095Y-28695000D01*
X74723333Y-28647380D01*
X74913809Y-28647380D01*
X75009047Y-28695000D01*
X75056666Y-28742619D01*
X75104285Y-28837857D01*
X75104285Y-28885476D01*
X75056666Y-28980714D01*
X75009047Y-29028333D01*
X74913809Y-29075952D01*
X74723333Y-29075952D01*
X74628095Y-29123571D01*
X74580476Y-29171190D01*
X74532857Y-29266428D01*
X74532857Y-29456904D01*
X74580476Y-29552142D01*
X74628095Y-29599761D01*
X74723333Y-29647380D01*
X74913809Y-29647380D01*
X75009047Y-29599761D01*
X75056666Y-29552142D01*
X75104285Y-29456904D01*
X75104285Y-29266428D01*
X75056666Y-29171190D01*
X75009047Y-29123571D01*
X74913809Y-29075952D01*
%TO.C,r26*%
X43426190Y-51237380D02*
X43426190Y-50570714D01*
X43426190Y-50761190D02*
X43473809Y-50665952D01*
X43521428Y-50618333D01*
X43616666Y-50570714D01*
X43711904Y-50570714D01*
X43997619Y-50332619D02*
X44045238Y-50285000D01*
X44140476Y-50237380D01*
X44378571Y-50237380D01*
X44473809Y-50285000D01*
X44521428Y-50332619D01*
X44569047Y-50427857D01*
X44569047Y-50523095D01*
X44521428Y-50665952D01*
X43950000Y-51237380D01*
X44569047Y-51237380D01*
X45426190Y-50237380D02*
X45235714Y-50237380D01*
X45140476Y-50285000D01*
X45092857Y-50332619D01*
X44997619Y-50475476D01*
X44950000Y-50665952D01*
X44950000Y-51046904D01*
X44997619Y-51142142D01*
X45045238Y-51189761D01*
X45140476Y-51237380D01*
X45330952Y-51237380D01*
X45426190Y-51189761D01*
X45473809Y-51142142D01*
X45521428Y-51046904D01*
X45521428Y-50808809D01*
X45473809Y-50713571D01*
X45426190Y-50665952D01*
X45330952Y-50618333D01*
X45140476Y-50618333D01*
X45045238Y-50665952D01*
X44997619Y-50713571D01*
X44950000Y-50808809D01*
%TO.C,r25*%
X40886190Y-47427380D02*
X40886190Y-46760714D01*
X40886190Y-46951190D02*
X40933809Y-46855952D01*
X40981428Y-46808333D01*
X41076666Y-46760714D01*
X41171904Y-46760714D01*
X41457619Y-46522619D02*
X41505238Y-46475000D01*
X41600476Y-46427380D01*
X41838571Y-46427380D01*
X41933809Y-46475000D01*
X41981428Y-46522619D01*
X42029047Y-46617857D01*
X42029047Y-46713095D01*
X41981428Y-46855952D01*
X41410000Y-47427380D01*
X42029047Y-47427380D01*
X42933809Y-46427380D02*
X42457619Y-46427380D01*
X42410000Y-46903571D01*
X42457619Y-46855952D01*
X42552857Y-46808333D01*
X42790952Y-46808333D01*
X42886190Y-46855952D01*
X42933809Y-46903571D01*
X42981428Y-46998809D01*
X42981428Y-47236904D01*
X42933809Y-47332142D01*
X42886190Y-47379761D01*
X42790952Y-47427380D01*
X42552857Y-47427380D01*
X42457619Y-47379761D01*
X42410000Y-47332142D01*
%TO.C,r24*%
X40886190Y-43617380D02*
X40886190Y-42950714D01*
X40886190Y-43141190D02*
X40933809Y-43045952D01*
X40981428Y-42998333D01*
X41076666Y-42950714D01*
X41171904Y-42950714D01*
X41457619Y-42712619D02*
X41505238Y-42665000D01*
X41600476Y-42617380D01*
X41838571Y-42617380D01*
X41933809Y-42665000D01*
X41981428Y-42712619D01*
X42029047Y-42807857D01*
X42029047Y-42903095D01*
X41981428Y-43045952D01*
X41410000Y-43617380D01*
X42029047Y-43617380D01*
X42886190Y-42950714D02*
X42886190Y-43617380D01*
X42648095Y-42569761D02*
X42410000Y-43284047D01*
X43029047Y-43284047D01*
%TO.C,r23*%
X37076190Y-51237380D02*
X37076190Y-50570714D01*
X37076190Y-50761190D02*
X37123809Y-50665952D01*
X37171428Y-50618333D01*
X37266666Y-50570714D01*
X37361904Y-50570714D01*
X37647619Y-50332619D02*
X37695238Y-50285000D01*
X37790476Y-50237380D01*
X38028571Y-50237380D01*
X38123809Y-50285000D01*
X38171428Y-50332619D01*
X38219047Y-50427857D01*
X38219047Y-50523095D01*
X38171428Y-50665952D01*
X37600000Y-51237380D01*
X38219047Y-51237380D01*
X38552380Y-50237380D02*
X39171428Y-50237380D01*
X38838095Y-50618333D01*
X38980952Y-50618333D01*
X39076190Y-50665952D01*
X39123809Y-50713571D01*
X39171428Y-50808809D01*
X39171428Y-51046904D01*
X39123809Y-51142142D01*
X39076190Y-51189761D01*
X38980952Y-51237380D01*
X38695238Y-51237380D01*
X38600000Y-51189761D01*
X38552380Y-51142142D01*
%TO.C,r22*%
X35997380Y-48013809D02*
X35330714Y-48013809D01*
X35521190Y-48013809D02*
X35425952Y-47966190D01*
X35378333Y-47918571D01*
X35330714Y-47823333D01*
X35330714Y-47728095D01*
X35092619Y-47442380D02*
X35045000Y-47394761D01*
X34997380Y-47299523D01*
X34997380Y-47061428D01*
X35045000Y-46966190D01*
X35092619Y-46918571D01*
X35187857Y-46870952D01*
X35283095Y-46870952D01*
X35425952Y-46918571D01*
X35997380Y-47490000D01*
X35997380Y-46870952D01*
X35092619Y-46490000D02*
X35045000Y-46442380D01*
X34997380Y-46347142D01*
X34997380Y-46109047D01*
X35045000Y-46013809D01*
X35092619Y-45966190D01*
X35187857Y-45918571D01*
X35283095Y-45918571D01*
X35425952Y-45966190D01*
X35997380Y-46537619D01*
X35997380Y-45918571D01*
%TO.C,r21*%
X69032380Y-44838809D02*
X68365714Y-44838809D01*
X68556190Y-44838809D02*
X68460952Y-44791190D01*
X68413333Y-44743571D01*
X68365714Y-44648333D01*
X68365714Y-44553095D01*
X68127619Y-44267380D02*
X68080000Y-44219761D01*
X68032380Y-44124523D01*
X68032380Y-43886428D01*
X68080000Y-43791190D01*
X68127619Y-43743571D01*
X68222857Y-43695952D01*
X68318095Y-43695952D01*
X68460952Y-43743571D01*
X69032380Y-44315000D01*
X69032380Y-43695952D01*
X69032380Y-42743571D02*
X69032380Y-43315000D01*
X69032380Y-43029285D02*
X68032380Y-43029285D01*
X68175238Y-43124523D01*
X68270476Y-43219761D01*
X68318095Y-43315000D01*
%TO.C,r20*%
X69032380Y-35938809D02*
X68365714Y-35938809D01*
X68556190Y-35938809D02*
X68460952Y-35891190D01*
X68413333Y-35843571D01*
X68365714Y-35748333D01*
X68365714Y-35653095D01*
X68127619Y-35367380D02*
X68080000Y-35319761D01*
X68032380Y-35224523D01*
X68032380Y-34986428D01*
X68080000Y-34891190D01*
X68127619Y-34843571D01*
X68222857Y-34795952D01*
X68318095Y-34795952D01*
X68460952Y-34843571D01*
X69032380Y-35415000D01*
X69032380Y-34795952D01*
X68032380Y-34176904D02*
X68032380Y-34081666D01*
X68080000Y-33986428D01*
X68127619Y-33938809D01*
X68222857Y-33891190D01*
X68413333Y-33843571D01*
X68651428Y-33843571D01*
X68841904Y-33891190D01*
X68937142Y-33938809D01*
X68984761Y-33986428D01*
X69032380Y-34081666D01*
X69032380Y-34176904D01*
X68984761Y-34272142D01*
X68937142Y-34319761D01*
X68841904Y-34367380D01*
X68651428Y-34415000D01*
X68413333Y-34415000D01*
X68222857Y-34367380D01*
X68127619Y-34319761D01*
X68080000Y-34272142D01*
X68032380Y-34176904D01*
%TO.C,r19*%
X49191190Y-55047380D02*
X49191190Y-54380714D01*
X49191190Y-54571190D02*
X49238809Y-54475952D01*
X49286428Y-54428333D01*
X49381666Y-54380714D01*
X49476904Y-54380714D01*
X50334047Y-55047380D02*
X49762619Y-55047380D01*
X50048333Y-55047380D02*
X50048333Y-54047380D01*
X49953095Y-54190238D01*
X49857857Y-54285476D01*
X49762619Y-54333095D01*
X50810238Y-55047380D02*
X51000714Y-55047380D01*
X51095952Y-54999761D01*
X51143571Y-54952142D01*
X51238809Y-54809285D01*
X51286428Y-54618809D01*
X51286428Y-54237857D01*
X51238809Y-54142619D01*
X51191190Y-54095000D01*
X51095952Y-54047380D01*
X50905476Y-54047380D01*
X50810238Y-54095000D01*
X50762619Y-54142619D01*
X50715000Y-54237857D01*
X50715000Y-54475952D01*
X50762619Y-54571190D01*
X50810238Y-54618809D01*
X50905476Y-54666428D01*
X51095952Y-54666428D01*
X51191190Y-54618809D01*
X51238809Y-54571190D01*
X51286428Y-54475952D01*
%TO.C,r18*%
X49141190Y-51237380D02*
X49141190Y-50570714D01*
X49141190Y-50761190D02*
X49188809Y-50665952D01*
X49236428Y-50618333D01*
X49331666Y-50570714D01*
X49426904Y-50570714D01*
X50284047Y-51237380D02*
X49712619Y-51237380D01*
X49998333Y-51237380D02*
X49998333Y-50237380D01*
X49903095Y-50380238D01*
X49807857Y-50475476D01*
X49712619Y-50523095D01*
X50855476Y-50665952D02*
X50760238Y-50618333D01*
X50712619Y-50570714D01*
X50665000Y-50475476D01*
X50665000Y-50427857D01*
X50712619Y-50332619D01*
X50760238Y-50285000D01*
X50855476Y-50237380D01*
X51045952Y-50237380D01*
X51141190Y-50285000D01*
X51188809Y-50332619D01*
X51236428Y-50427857D01*
X51236428Y-50475476D01*
X51188809Y-50570714D01*
X51141190Y-50618333D01*
X51045952Y-50665952D01*
X50855476Y-50665952D01*
X50760238Y-50713571D01*
X50712619Y-50761190D01*
X50665000Y-50856428D01*
X50665000Y-51046904D01*
X50712619Y-51142142D01*
X50760238Y-51189761D01*
X50855476Y-51237380D01*
X51045952Y-51237380D01*
X51141190Y-51189761D01*
X51188809Y-51142142D01*
X51236428Y-51046904D01*
X51236428Y-50856428D01*
X51188809Y-50761190D01*
X51141190Y-50713571D01*
X51045952Y-50665952D01*
%TO.C,U2*%
X39992380Y-19801904D02*
X40801904Y-19801904D01*
X40897142Y-19754285D01*
X40944761Y-19706666D01*
X40992380Y-19611428D01*
X40992380Y-19420952D01*
X40944761Y-19325714D01*
X40897142Y-19278095D01*
X40801904Y-19230476D01*
X39992380Y-19230476D01*
X40087619Y-18801904D02*
X40040000Y-18754285D01*
X39992380Y-18659047D01*
X39992380Y-18420952D01*
X40040000Y-18325714D01*
X40087619Y-18278095D01*
X40182857Y-18230476D01*
X40278095Y-18230476D01*
X40420952Y-18278095D01*
X40992380Y-18849523D01*
X40992380Y-18230476D01*
%TO.C,RegIn1*%
X37452380Y-43110444D02*
X36976190Y-43443777D01*
X37452380Y-43681872D02*
X36452380Y-43681872D01*
X36452380Y-43300920D01*
X36500000Y-43205682D01*
X36547619Y-43158063D01*
X36642857Y-43110444D01*
X36785714Y-43110444D01*
X36880952Y-43158063D01*
X36928571Y-43205682D01*
X36976190Y-43300920D01*
X36976190Y-43681872D01*
X37404761Y-42300920D02*
X37452380Y-42396158D01*
X37452380Y-42586634D01*
X37404761Y-42681872D01*
X37309523Y-42729491D01*
X36928571Y-42729491D01*
X36833333Y-42681872D01*
X36785714Y-42586634D01*
X36785714Y-42396158D01*
X36833333Y-42300920D01*
X36928571Y-42253301D01*
X37023809Y-42253301D01*
X37119047Y-42729491D01*
X36785714Y-41396158D02*
X37595238Y-41396158D01*
X37690476Y-41443777D01*
X37738095Y-41491396D01*
X37785714Y-41586634D01*
X37785714Y-41729491D01*
X37738095Y-41824729D01*
X37404761Y-41396158D02*
X37452380Y-41491396D01*
X37452380Y-41681872D01*
X37404761Y-41777110D01*
X37357142Y-41824729D01*
X37261904Y-41872349D01*
X36976190Y-41872349D01*
X36880952Y-41824729D01*
X36833333Y-41777110D01*
X36785714Y-41681872D01*
X36785714Y-41491396D01*
X36833333Y-41396158D01*
X37452380Y-40919968D02*
X36452380Y-40919968D01*
X36785714Y-40443777D02*
X37452380Y-40443777D01*
X36880952Y-40443777D02*
X36833333Y-40396158D01*
X36785714Y-40300920D01*
X36785714Y-40158063D01*
X36833333Y-40062825D01*
X36928571Y-40015206D01*
X37452380Y-40015206D01*
X37452380Y-39015206D02*
X37452380Y-39586634D01*
X37452380Y-39300920D02*
X36452380Y-39300920D01*
X36595238Y-39396158D01*
X36690476Y-39491396D01*
X36738095Y-39586634D01*
%TO.C,LS1*%
X28567142Y-22205209D02*
X28090952Y-22205209D01*
X28090952Y-21205209D01*
X28852857Y-22157590D02*
X28995714Y-22205209D01*
X29233809Y-22205209D01*
X29329047Y-22157590D01*
X29376666Y-22109971D01*
X29424285Y-22014733D01*
X29424285Y-21919495D01*
X29376666Y-21824257D01*
X29329047Y-21776638D01*
X29233809Y-21729019D01*
X29043333Y-21681400D01*
X28948095Y-21633781D01*
X28900476Y-21586162D01*
X28852857Y-21490924D01*
X28852857Y-21395686D01*
X28900476Y-21300448D01*
X28948095Y-21252829D01*
X29043333Y-21205209D01*
X29281428Y-21205209D01*
X29424285Y-21252829D01*
X30376666Y-22205209D02*
X29805238Y-22205209D01*
X30090952Y-22205209D02*
X30090952Y-21205209D01*
X29995714Y-21348067D01*
X29900476Y-21443305D01*
X29805238Y-21490924D01*
%TO.C,U1*%
X16772380Y-29474253D02*
X17581904Y-29474253D01*
X17677142Y-29426634D01*
X17724761Y-29379015D01*
X17772380Y-29283777D01*
X17772380Y-29093301D01*
X17724761Y-28998063D01*
X17677142Y-28950444D01*
X17581904Y-28902825D01*
X16772380Y-28902825D01*
X17772380Y-27902825D02*
X17772380Y-28474253D01*
X17772380Y-28188539D02*
X16772380Y-28188539D01*
X16915238Y-28283777D01*
X17010476Y-28379015D01*
X17058095Y-28474253D01*
%TO.C,RegOut1*%
X37452380Y-30981872D02*
X36976190Y-31315206D01*
X37452380Y-31553301D02*
X36452380Y-31553301D01*
X36452380Y-31172349D01*
X36500000Y-31077110D01*
X36547619Y-31029491D01*
X36642857Y-30981872D01*
X36785714Y-30981872D01*
X36880952Y-31029491D01*
X36928571Y-31077110D01*
X36976190Y-31172349D01*
X36976190Y-31553301D01*
X37404761Y-30172349D02*
X37452380Y-30267587D01*
X37452380Y-30458063D01*
X37404761Y-30553301D01*
X37309523Y-30600920D01*
X36928571Y-30600920D01*
X36833333Y-30553301D01*
X36785714Y-30458063D01*
X36785714Y-30267587D01*
X36833333Y-30172349D01*
X36928571Y-30124729D01*
X37023809Y-30124729D01*
X37119047Y-30600920D01*
X36785714Y-29267587D02*
X37595238Y-29267587D01*
X37690476Y-29315206D01*
X37738095Y-29362825D01*
X37785714Y-29458063D01*
X37785714Y-29600920D01*
X37738095Y-29696158D01*
X37404761Y-29267587D02*
X37452380Y-29362825D01*
X37452380Y-29553301D01*
X37404761Y-29648539D01*
X37357142Y-29696158D01*
X37261904Y-29743777D01*
X36976190Y-29743777D01*
X36880952Y-29696158D01*
X36833333Y-29648539D01*
X36785714Y-29553301D01*
X36785714Y-29362825D01*
X36833333Y-29267587D01*
X36452380Y-28600920D02*
X36452380Y-28410444D01*
X36500000Y-28315206D01*
X36595238Y-28219968D01*
X36785714Y-28172349D01*
X37119047Y-28172349D01*
X37309523Y-28219968D01*
X37404761Y-28315206D01*
X37452380Y-28410444D01*
X37452380Y-28600920D01*
X37404761Y-28696158D01*
X37309523Y-28791396D01*
X37119047Y-28839015D01*
X36785714Y-28839015D01*
X36595238Y-28791396D01*
X36500000Y-28696158D01*
X36452380Y-28600920D01*
X36785714Y-27315206D02*
X37452380Y-27315206D01*
X36785714Y-27743777D02*
X37309523Y-27743777D01*
X37404761Y-27696158D01*
X37452380Y-27600920D01*
X37452380Y-27458063D01*
X37404761Y-27362825D01*
X37357142Y-27315206D01*
X36785714Y-26981872D02*
X36785714Y-26600920D01*
X36452380Y-26839015D02*
X37309523Y-26839015D01*
X37404761Y-26791396D01*
X37452380Y-26696158D01*
X37452380Y-26600920D01*
X37452380Y-25743777D02*
X37452380Y-26315206D01*
X37452380Y-26029491D02*
X36452380Y-26029491D01*
X36595238Y-26124729D01*
X36690476Y-26219968D01*
X36738095Y-26315206D01*
%TO.C,BattIn1*%
X13618571Y-42281396D02*
X13666190Y-42138539D01*
X13713809Y-42090920D01*
X13809047Y-42043301D01*
X13951904Y-42043301D01*
X14047142Y-42090920D01*
X14094761Y-42138539D01*
X14142380Y-42233777D01*
X14142380Y-42614729D01*
X13142380Y-42614729D01*
X13142380Y-42281396D01*
X13190000Y-42186158D01*
X13237619Y-42138539D01*
X13332857Y-42090920D01*
X13428095Y-42090920D01*
X13523333Y-42138539D01*
X13570952Y-42186158D01*
X13618571Y-42281396D01*
X13618571Y-42614729D01*
X14142380Y-41186158D02*
X13618571Y-41186158D01*
X13523333Y-41233777D01*
X13475714Y-41329015D01*
X13475714Y-41519491D01*
X13523333Y-41614729D01*
X14094761Y-41186158D02*
X14142380Y-41281396D01*
X14142380Y-41519491D01*
X14094761Y-41614729D01*
X13999523Y-41662349D01*
X13904285Y-41662349D01*
X13809047Y-41614729D01*
X13761428Y-41519491D01*
X13761428Y-41281396D01*
X13713809Y-41186158D01*
X13475714Y-40852825D02*
X13475714Y-40471872D01*
X13142380Y-40709968D02*
X13999523Y-40709968D01*
X14094761Y-40662349D01*
X14142380Y-40567110D01*
X14142380Y-40471872D01*
X13475714Y-40281396D02*
X13475714Y-39900444D01*
X13142380Y-40138539D02*
X13999523Y-40138539D01*
X14094761Y-40090920D01*
X14142380Y-39995682D01*
X14142380Y-39900444D01*
X14142380Y-39567110D02*
X13142380Y-39567110D01*
X13475714Y-39090920D02*
X14142380Y-39090920D01*
X13570952Y-39090920D02*
X13523333Y-39043301D01*
X13475714Y-38948063D01*
X13475714Y-38805206D01*
X13523333Y-38709968D01*
X13618571Y-38662349D01*
X14142380Y-38662349D01*
X14142380Y-37662349D02*
X14142380Y-38233777D01*
X14142380Y-37948063D02*
X13142380Y-37948063D01*
X13285238Y-38043301D01*
X13380476Y-38138539D01*
X13428095Y-38233777D01*
D11*
%TO.C,DACInputs_+5v2*%
X72400000Y-18785000D02*
X80080000Y-18785000D01*
X71130000Y-21445000D02*
X69800000Y-21445000D01*
X80080000Y-21445000D02*
X80080000Y-18785000D01*
X72400000Y-21445000D02*
X72400000Y-18785000D01*
X69800000Y-21445000D02*
X69800000Y-20115000D01*
X72400000Y-21445000D02*
X80080000Y-21445000D01*
%TO.C,DACInputs2*%
X72400000Y-23435000D02*
X80080000Y-23435000D01*
X71130000Y-26095000D02*
X69800000Y-26095000D01*
X80080000Y-26095000D02*
X80080000Y-23435000D01*
X72400000Y-26095000D02*
X72400000Y-23435000D01*
X69800000Y-26095000D02*
X69800000Y-24765000D01*
X72400000Y-26095000D02*
X80080000Y-26095000D01*
%TO.C,U5*%
X61715000Y-40065000D02*
X61715000Y-29785000D01*
X43695000Y-40065000D02*
X61715000Y-40065000D01*
X43695000Y-29785000D02*
X43695000Y-40065000D01*
X61655000Y-37575000D02*
X61655000Y-35925000D01*
X61655000Y-32275000D02*
X43755000Y-32275000D01*
X43755000Y-32275000D02*
X43755000Y-37575000D01*
X61655000Y-33925000D02*
X61655000Y-32275000D01*
X61715000Y-29785000D02*
X43695000Y-29785000D01*
X43755000Y-37575000D02*
X61655000Y-37575000D01*
X61655000Y-33925000D02*
G75*
G03*
X61655000Y-35925000I0J-1000000D01*
G01*
%TO.C,r_pd_b11*%
X55880000Y-43465000D02*
X55880000Y-44085000D01*
X56800000Y-42545000D02*
G75*
G03*
X56800000Y-42545000I-920000J0D01*
G01*
%TO.C,r_pd_b10*%
X49815000Y-45085000D02*
X50435000Y-45085000D01*
X49815000Y-45085000D02*
G75*
G03*
X49815000Y-45085000I-920000J0D01*
G01*
%TO.C,r_pd_b9*%
X56165000Y-26035000D02*
G75*
G03*
X56165000Y-26035000I-920000J0D01*
G01*
X54325000Y-26035000D02*
X53705000Y-26035000D01*
%TO.C,r_pd_b8*%
X72040000Y-31115000D02*
X72660000Y-31115000D01*
X72040000Y-31115000D02*
G75*
G03*
X72040000Y-31115000I-920000J0D01*
G01*
%TO.C,r26*%
X44100000Y-52705000D02*
X44720000Y-52705000D01*
X44100000Y-52705000D02*
G75*
G03*
X44100000Y-52705000I-920000J0D01*
G01*
%TO.C,r25*%
X41560000Y-48895000D02*
X42180000Y-48895000D01*
X41560000Y-48895000D02*
G75*
G03*
X41560000Y-48895000I-920000J0D01*
G01*
%TO.C,r24*%
X41560000Y-45085000D02*
X42180000Y-45085000D01*
X41560000Y-45085000D02*
G75*
G03*
X41560000Y-45085000I-920000J0D01*
G01*
%TO.C,r23*%
X37750000Y-52705000D02*
X38370000Y-52705000D01*
X37750000Y-52705000D02*
G75*
G03*
X37750000Y-52705000I-920000J0D01*
G01*
%TO.C,r22*%
X37465000Y-47340000D02*
X37465000Y-46720000D01*
X38385000Y-48260000D02*
G75*
G03*
X38385000Y-48260000I-920000J0D01*
G01*
%TO.C,r21*%
X66675000Y-42880000D02*
X66675000Y-43500000D01*
X67595000Y-41960000D02*
G75*
G03*
X67595000Y-41960000I-920000J0D01*
G01*
%TO.C,r20*%
X66675000Y-35225000D02*
X66675000Y-34605000D01*
X67595000Y-36145000D02*
G75*
G03*
X67595000Y-36145000I-920000J0D01*
G01*
%TO.C,r19*%
X49865000Y-56515000D02*
X50485000Y-56515000D01*
X49865000Y-56515000D02*
G75*
G03*
X49865000Y-56515000I-920000J0D01*
G01*
%TO.C,r18*%
X49815000Y-52705000D02*
X50435000Y-52705000D01*
X49815000Y-52705000D02*
G75*
G03*
X49815000Y-52705000I-920000J0D01*
G01*
%TO.C,U2*%
X41540000Y-21690000D02*
X64520000Y-21690000D01*
X64520000Y-16390000D02*
X41540000Y-16390000D01*
X64580000Y-24180000D02*
X64580000Y-13900000D01*
X64580000Y-13900000D02*
X41480000Y-13900000D01*
X41480000Y-13900000D02*
X41480000Y-24180000D01*
X41480000Y-24180000D02*
X64580000Y-24180000D01*
X41540000Y-16390000D02*
X41540000Y-18040000D01*
X41540000Y-20040000D02*
X41540000Y-21690000D01*
X64520000Y-21690000D02*
X64520000Y-16390000D01*
X41540000Y-20040000D02*
G75*
G03*
X41540000Y-18040000I0J1000000D01*
G01*
%TO.C,RegIn1*%
X35717000Y-42333349D02*
X27783000Y-42333349D01*
X33302000Y-45173349D02*
X30198000Y-45173349D01*
X33916000Y-44853349D02*
X32790000Y-44853349D01*
X30710000Y-43053349D02*
X28028000Y-43053349D01*
X34695000Y-44213349D02*
X32790000Y-44213349D01*
X35752000Y-42173349D02*
X27748000Y-42173349D01*
X30710000Y-43373349D02*
X28188000Y-43373349D01*
X35707000Y-42373349D02*
X27793000Y-42373349D01*
X30710000Y-43613349D02*
X28332000Y-43613349D01*
X35555000Y-42853349D02*
X32790000Y-42853349D01*
X30710000Y-43973349D02*
X28594000Y-43973349D01*
X33203000Y-45213349D02*
X30297000Y-45213349D01*
X35744000Y-42213349D02*
X27756000Y-42213349D01*
X35824000Y-41612349D02*
X27676000Y-41612349D01*
X33714000Y-44973349D02*
X29786000Y-44973349D01*
X35802000Y-41852349D02*
X27698000Y-41852349D01*
X30710000Y-44453349D02*
X29053000Y-44453349D01*
X30710000Y-44573349D02*
X29194000Y-44573349D01*
X32283000Y-45453349D02*
X31217000Y-45453349D01*
X30710000Y-44253349D02*
X28843000Y-44253349D01*
X30710000Y-43693349D02*
X28385000Y-43693349D01*
X35807000Y-41812349D02*
X27693000Y-41812349D01*
X35830000Y-41452349D02*
X27670000Y-41452349D01*
X30710000Y-43733349D02*
X28412000Y-43733349D01*
X35290000Y-43413349D02*
X32790000Y-43413349D01*
X34401000Y-44493349D02*
X32790000Y-44493349D01*
X34037000Y-44773349D02*
X32790000Y-44773349D01*
X34306000Y-44573349D02*
X32790000Y-44573349D01*
X35168000Y-43613349D02*
X32790000Y-43613349D01*
X30710000Y-44053349D02*
X28660000Y-44053349D01*
X34491000Y-44413349D02*
X32790000Y-44413349D01*
X30710000Y-42853349D02*
X27945000Y-42853349D01*
X32979000Y-45293349D02*
X30521000Y-45293349D01*
X35652000Y-42573349D02*
X27848000Y-42573349D01*
X35454000Y-43093349D02*
X32790000Y-43093349D01*
X34906000Y-43973349D02*
X32790000Y-43973349D01*
X34065000Y-36962651D02*
X34065000Y-37762651D01*
X35735000Y-42253349D02*
X27765000Y-42253349D01*
X35627000Y-42653349D02*
X27873000Y-42653349D01*
X35780000Y-42012349D02*
X27720000Y-42012349D01*
X35507000Y-42973349D02*
X32790000Y-42973349D01*
X34805000Y-44093349D02*
X32790000Y-44093349D01*
X33852000Y-44893349D02*
X32790000Y-44893349D01*
X35664000Y-42533349D02*
X27836000Y-42533349D01*
X35088000Y-43733349D02*
X32790000Y-43733349D01*
X32698000Y-45373349D02*
X30802000Y-45373349D01*
X35436000Y-43133349D02*
X32790000Y-43133349D01*
X33563000Y-45053349D02*
X29937000Y-45053349D01*
X30710000Y-43493349D02*
X28257000Y-43493349D01*
X35613000Y-42693349D02*
X27887000Y-42693349D01*
X35397000Y-43213349D02*
X32790000Y-43213349D01*
X30710000Y-44213349D02*
X28805000Y-44213349D01*
X33096000Y-45253349D02*
X30404000Y-45253349D01*
X30710000Y-43453349D02*
X28233000Y-43453349D01*
X34465000Y-37362651D02*
X33665000Y-37362651D01*
X35142000Y-43653349D02*
X32790000Y-43653349D01*
X35472000Y-43053349D02*
X32790000Y-43053349D01*
X30710000Y-43013349D02*
X28010000Y-43013349D01*
X35686000Y-42453349D02*
X27814000Y-42453349D01*
X30710000Y-43533349D02*
X28281000Y-43533349D01*
X30710000Y-44093349D02*
X28695000Y-44093349D01*
X34874000Y-44013349D02*
X32790000Y-44013349D01*
X35818000Y-41692349D02*
X27682000Y-41692349D01*
X30710000Y-42933349D02*
X27976000Y-42933349D01*
X34204000Y-44653349D02*
X32790000Y-44653349D01*
X30710000Y-44813349D02*
X29522000Y-44813349D01*
X35675000Y-42493349D02*
X27825000Y-42493349D01*
X33395000Y-45133349D02*
X30105000Y-45133349D01*
X35194000Y-43573349D02*
X32790000Y-43573349D01*
X35792000Y-41932349D02*
X27708000Y-41932349D01*
X30710000Y-44013349D02*
X28626000Y-44013349D01*
X34354000Y-44533349D02*
X32790000Y-44533349D01*
X30710000Y-44893349D02*
X29648000Y-44893349D01*
X32848000Y-45333349D02*
X30652000Y-45333349D01*
X35334000Y-43333349D02*
X32790000Y-43333349D01*
X34939000Y-43933349D02*
X32790000Y-43933349D01*
X35726000Y-42293349D02*
X27774000Y-42293349D01*
X34534000Y-44373349D02*
X32790000Y-44373349D01*
X35639000Y-42613349D02*
X27861000Y-42613349D01*
X32518000Y-45413349D02*
X30982000Y-45413349D01*
X30710000Y-42893349D02*
X27960000Y-42893349D01*
X30710000Y-43413349D02*
X28210000Y-43413349D01*
X35356000Y-43293349D02*
X32790000Y-43293349D01*
X30710000Y-43573349D02*
X28306000Y-43573349D01*
X30710000Y-43173349D02*
X28084000Y-43173349D01*
X30710000Y-43333349D02*
X28166000Y-43333349D01*
X30710000Y-44133349D02*
X28731000Y-44133349D01*
X30710000Y-44693349D02*
X29350000Y-44693349D01*
X35787000Y-41972349D02*
X27713000Y-41972349D01*
X30710000Y-43213349D02*
X28103000Y-43213349D01*
X30710000Y-43133349D02*
X28064000Y-43133349D01*
X30710000Y-43253349D02*
X28123000Y-43253349D01*
X35815000Y-41732349D02*
X27685000Y-41732349D01*
X35798000Y-41892349D02*
X27702000Y-41892349D01*
X33640000Y-45013349D02*
X29860000Y-45013349D01*
X35767000Y-42093349D02*
X27733000Y-42093349D01*
X35585000Y-42773349D02*
X27915000Y-42773349D01*
X30710000Y-43653349D02*
X28358000Y-43653349D01*
X30710000Y-43813349D02*
X28470000Y-43813349D01*
X34769000Y-44133349D02*
X32790000Y-44133349D01*
X30710000Y-42973349D02*
X27993000Y-42973349D01*
X34150000Y-44693349D02*
X32790000Y-44693349D01*
X35115000Y-43693349D02*
X32790000Y-43693349D01*
X35416000Y-43173349D02*
X32790000Y-43173349D01*
X35821000Y-41652349D02*
X27679000Y-41652349D01*
X34733000Y-44173349D02*
X32790000Y-44173349D01*
X30710000Y-44613349D02*
X29245000Y-44613349D01*
X35571000Y-42813349D02*
X27929000Y-42813349D01*
X35829000Y-41492349D02*
X27671000Y-41492349D01*
X33978000Y-44813349D02*
X32790000Y-44813349D01*
X30710000Y-44533349D02*
X29146000Y-44533349D01*
X30710000Y-43293349D02*
X28144000Y-43293349D01*
X35827000Y-41532349D02*
X27673000Y-41532349D01*
X30710000Y-43853349D02*
X28500000Y-43853349D01*
X35524000Y-42933349D02*
X32790000Y-42933349D01*
X30710000Y-44173349D02*
X28767000Y-44173349D01*
X35267000Y-43453349D02*
X32790000Y-43453349D01*
X34576000Y-44333349D02*
X32790000Y-44333349D01*
X35490000Y-43013349D02*
X32790000Y-43013349D01*
X30710000Y-44373349D02*
X28966000Y-44373349D01*
X30710000Y-44413349D02*
X29009000Y-44413349D01*
X35830000Y-41412349D02*
X27670000Y-41412349D01*
X35774000Y-42052349D02*
X27726000Y-42052349D01*
X35697000Y-42413349D02*
X27803000Y-42413349D01*
X30710000Y-44733349D02*
X29405000Y-44733349D01*
X35219000Y-43533349D02*
X32790000Y-43533349D01*
X35830000Y-41372349D02*
X27670000Y-41372349D01*
X34970000Y-43893349D02*
X32790000Y-43893349D01*
X34095000Y-44733349D02*
X32790000Y-44733349D01*
X34840000Y-44053349D02*
X32790000Y-44053349D01*
X34255000Y-44613349D02*
X32790000Y-44613349D01*
X30710000Y-44653349D02*
X29296000Y-44653349D01*
X35312000Y-43373349D02*
X32790000Y-43373349D01*
X30710000Y-43093349D02*
X28046000Y-43093349D01*
X30710000Y-44773349D02*
X29463000Y-44773349D01*
X35811000Y-41772349D02*
X27689000Y-41772349D01*
X34447000Y-44453349D02*
X32790000Y-44453349D01*
X33784000Y-44933349D02*
X29716000Y-44933349D01*
X30710000Y-43893349D02*
X28530000Y-43893349D01*
X34657000Y-44253349D02*
X32790000Y-44253349D01*
X30710000Y-43773349D02*
X28441000Y-43773349D01*
X35540000Y-42893349D02*
X32790000Y-42893349D01*
X30710000Y-44493349D02*
X29099000Y-44493349D01*
X35760000Y-42133349D02*
X27740000Y-42133349D01*
X30710000Y-44293349D02*
X28883000Y-44293349D01*
X30710000Y-43933349D02*
X28561000Y-43933349D01*
X34617000Y-44293349D02*
X32790000Y-44293349D01*
X30710000Y-44333349D02*
X28924000Y-44333349D01*
X35059000Y-43773349D02*
X32790000Y-43773349D01*
X35030000Y-43813349D02*
X32790000Y-43813349D01*
X35826000Y-41572349D02*
X27674000Y-41572349D01*
X35000000Y-43853349D02*
X32790000Y-43853349D01*
X35377000Y-43253349D02*
X32790000Y-43253349D01*
X35243000Y-43493349D02*
X32790000Y-43493349D01*
X30710000Y-44853349D02*
X29584000Y-44853349D01*
X33481000Y-45093349D02*
X30019000Y-45093349D01*
X35600000Y-42733349D02*
X27900000Y-42733349D01*
X35870000Y-41372349D02*
G75*
G03*
X35870000Y-41372349I-4120000J0D01*
G01*
%TO.C,LS1*%
X32830000Y-14512829D02*
X32080000Y-15262829D01*
X36080000Y-19832829D02*
X34580000Y-19832829D01*
X31330000Y-14512829D02*
X24090000Y-14512829D01*
X31330000Y-20752829D02*
X24090000Y-20752829D01*
X35470000Y-17632829D02*
X34330000Y-17632829D01*
X22950000Y-17632829D02*
X24090000Y-17632829D01*
X34330000Y-20752829D02*
X32830000Y-20752829D01*
X32830000Y-20752829D02*
X32080000Y-20002829D01*
X34330000Y-20752829D02*
X34330000Y-14512829D01*
X32080000Y-20002829D02*
X31330000Y-20752829D01*
X24090000Y-20752829D02*
X24090000Y-14512829D01*
X34330000Y-14512829D02*
X32830000Y-14512829D01*
X32080000Y-15262829D02*
X31330000Y-14512829D01*
X35330000Y-20582829D02*
X35330000Y-19082829D01*
%TO.C,U1*%
X18320000Y-33832349D02*
X18320000Y-23592349D01*
X18320000Y-30562349D02*
X19830000Y-30562349D01*
X18320000Y-26861349D02*
X19830000Y-26861349D01*
X18320000Y-33832349D02*
X22961000Y-33832349D01*
X22961000Y-33832349D02*
X22961000Y-23592349D01*
X18320000Y-23592349D02*
X22961000Y-23592349D01*
X19830000Y-33832349D02*
X19830000Y-23592349D01*
%TO.C,RegOut1*%
X35717000Y-29633349D02*
X27783000Y-29633349D01*
X33302000Y-32473349D02*
X30198000Y-32473349D01*
X33916000Y-32153349D02*
X32790000Y-32153349D01*
X30710000Y-30353349D02*
X28028000Y-30353349D01*
X34695000Y-31513349D02*
X32790000Y-31513349D01*
X35752000Y-29473349D02*
X27748000Y-29473349D01*
X30710000Y-30673349D02*
X28188000Y-30673349D01*
X35707000Y-29673349D02*
X27793000Y-29673349D01*
X30710000Y-30913349D02*
X28332000Y-30913349D01*
X35555000Y-30153349D02*
X32790000Y-30153349D01*
X30710000Y-31273349D02*
X28594000Y-31273349D01*
X33203000Y-32513349D02*
X30297000Y-32513349D01*
X35744000Y-29513349D02*
X27756000Y-29513349D01*
X35824000Y-28912349D02*
X27676000Y-28912349D01*
X33714000Y-32273349D02*
X29786000Y-32273349D01*
X35802000Y-29152349D02*
X27698000Y-29152349D01*
X30710000Y-31753349D02*
X29053000Y-31753349D01*
X30710000Y-31873349D02*
X29194000Y-31873349D01*
X32283000Y-32753349D02*
X31217000Y-32753349D01*
X30710000Y-31553349D02*
X28843000Y-31553349D01*
X30710000Y-30993349D02*
X28385000Y-30993349D01*
X35807000Y-29112349D02*
X27693000Y-29112349D01*
X35830000Y-28752349D02*
X27670000Y-28752349D01*
X30710000Y-31033349D02*
X28412000Y-31033349D01*
X35290000Y-30713349D02*
X32790000Y-30713349D01*
X34401000Y-31793349D02*
X32790000Y-31793349D01*
X34037000Y-32073349D02*
X32790000Y-32073349D01*
X34306000Y-31873349D02*
X32790000Y-31873349D01*
X35168000Y-30913349D02*
X32790000Y-30913349D01*
X30710000Y-31353349D02*
X28660000Y-31353349D01*
X34491000Y-31713349D02*
X32790000Y-31713349D01*
X30710000Y-30153349D02*
X27945000Y-30153349D01*
X32979000Y-32593349D02*
X30521000Y-32593349D01*
X35652000Y-29873349D02*
X27848000Y-29873349D01*
X35454000Y-30393349D02*
X32790000Y-30393349D01*
X34906000Y-31273349D02*
X32790000Y-31273349D01*
X34065000Y-24262651D02*
X34065000Y-25062651D01*
X35735000Y-29553349D02*
X27765000Y-29553349D01*
X35627000Y-29953349D02*
X27873000Y-29953349D01*
X35780000Y-29312349D02*
X27720000Y-29312349D01*
X35507000Y-30273349D02*
X32790000Y-30273349D01*
X34805000Y-31393349D02*
X32790000Y-31393349D01*
X33852000Y-32193349D02*
X32790000Y-32193349D01*
X35664000Y-29833349D02*
X27836000Y-29833349D01*
X35088000Y-31033349D02*
X32790000Y-31033349D01*
X32698000Y-32673349D02*
X30802000Y-32673349D01*
X35436000Y-30433349D02*
X32790000Y-30433349D01*
X33563000Y-32353349D02*
X29937000Y-32353349D01*
X30710000Y-30793349D02*
X28257000Y-30793349D01*
X35613000Y-29993349D02*
X27887000Y-29993349D01*
X35397000Y-30513349D02*
X32790000Y-30513349D01*
X30710000Y-31513349D02*
X28805000Y-31513349D01*
X33096000Y-32553349D02*
X30404000Y-32553349D01*
X30710000Y-30753349D02*
X28233000Y-30753349D01*
X34465000Y-24662651D02*
X33665000Y-24662651D01*
X35142000Y-30953349D02*
X32790000Y-30953349D01*
X35472000Y-30353349D02*
X32790000Y-30353349D01*
X30710000Y-30313349D02*
X28010000Y-30313349D01*
X35686000Y-29753349D02*
X27814000Y-29753349D01*
X30710000Y-30833349D02*
X28281000Y-30833349D01*
X30710000Y-31393349D02*
X28695000Y-31393349D01*
X34874000Y-31313349D02*
X32790000Y-31313349D01*
X35818000Y-28992349D02*
X27682000Y-28992349D01*
X30710000Y-30233349D02*
X27976000Y-30233349D01*
X34204000Y-31953349D02*
X32790000Y-31953349D01*
X30710000Y-32113349D02*
X29522000Y-32113349D01*
X35675000Y-29793349D02*
X27825000Y-29793349D01*
X33395000Y-32433349D02*
X30105000Y-32433349D01*
X35194000Y-30873349D02*
X32790000Y-30873349D01*
X35792000Y-29232349D02*
X27708000Y-29232349D01*
X30710000Y-31313349D02*
X28626000Y-31313349D01*
X34354000Y-31833349D02*
X32790000Y-31833349D01*
X30710000Y-32193349D02*
X29648000Y-32193349D01*
X32848000Y-32633349D02*
X30652000Y-32633349D01*
X35334000Y-30633349D02*
X32790000Y-30633349D01*
X34939000Y-31233349D02*
X32790000Y-31233349D01*
X35726000Y-29593349D02*
X27774000Y-29593349D01*
X34534000Y-31673349D02*
X32790000Y-31673349D01*
X35639000Y-29913349D02*
X27861000Y-29913349D01*
X32518000Y-32713349D02*
X30982000Y-32713349D01*
X30710000Y-30193349D02*
X27960000Y-30193349D01*
X30710000Y-30713349D02*
X28210000Y-30713349D01*
X35356000Y-30593349D02*
X32790000Y-30593349D01*
X30710000Y-30873349D02*
X28306000Y-30873349D01*
X30710000Y-30473349D02*
X28084000Y-30473349D01*
X30710000Y-30633349D02*
X28166000Y-30633349D01*
X30710000Y-31433349D02*
X28731000Y-31433349D01*
X30710000Y-31993349D02*
X29350000Y-31993349D01*
X35787000Y-29272349D02*
X27713000Y-29272349D01*
X30710000Y-30513349D02*
X28103000Y-30513349D01*
X30710000Y-30433349D02*
X28064000Y-30433349D01*
X30710000Y-30553349D02*
X28123000Y-30553349D01*
X35815000Y-29032349D02*
X27685000Y-29032349D01*
X35798000Y-29192349D02*
X27702000Y-29192349D01*
X33640000Y-32313349D02*
X29860000Y-32313349D01*
X35767000Y-29393349D02*
X27733000Y-29393349D01*
X35585000Y-30073349D02*
X27915000Y-30073349D01*
X30710000Y-30953349D02*
X28358000Y-30953349D01*
X30710000Y-31113349D02*
X28470000Y-31113349D01*
X34769000Y-31433349D02*
X32790000Y-31433349D01*
X30710000Y-30273349D02*
X27993000Y-30273349D01*
X34150000Y-31993349D02*
X32790000Y-31993349D01*
X35115000Y-30993349D02*
X32790000Y-30993349D01*
X35416000Y-30473349D02*
X32790000Y-30473349D01*
X35821000Y-28952349D02*
X27679000Y-28952349D01*
X34733000Y-31473349D02*
X32790000Y-31473349D01*
X30710000Y-31913349D02*
X29245000Y-31913349D01*
X35571000Y-30113349D02*
X27929000Y-30113349D01*
X35829000Y-28792349D02*
X27671000Y-28792349D01*
X33978000Y-32113349D02*
X32790000Y-32113349D01*
X30710000Y-31833349D02*
X29146000Y-31833349D01*
X30710000Y-30593349D02*
X28144000Y-30593349D01*
X35827000Y-28832349D02*
X27673000Y-28832349D01*
X30710000Y-31153349D02*
X28500000Y-31153349D01*
X35524000Y-30233349D02*
X32790000Y-30233349D01*
X30710000Y-31473349D02*
X28767000Y-31473349D01*
X35267000Y-30753349D02*
X32790000Y-30753349D01*
X34576000Y-31633349D02*
X32790000Y-31633349D01*
X35490000Y-30313349D02*
X32790000Y-30313349D01*
X30710000Y-31673349D02*
X28966000Y-31673349D01*
X30710000Y-31713349D02*
X29009000Y-31713349D01*
X35830000Y-28712349D02*
X27670000Y-28712349D01*
X35774000Y-29352349D02*
X27726000Y-29352349D01*
X35697000Y-29713349D02*
X27803000Y-29713349D01*
X30710000Y-32033349D02*
X29405000Y-32033349D01*
X35219000Y-30833349D02*
X32790000Y-30833349D01*
X35830000Y-28672349D02*
X27670000Y-28672349D01*
X34970000Y-31193349D02*
X32790000Y-31193349D01*
X34095000Y-32033349D02*
X32790000Y-32033349D01*
X34840000Y-31353349D02*
X32790000Y-31353349D01*
X34255000Y-31913349D02*
X32790000Y-31913349D01*
X30710000Y-31953349D02*
X29296000Y-31953349D01*
X35312000Y-30673349D02*
X32790000Y-30673349D01*
X30710000Y-30393349D02*
X28046000Y-30393349D01*
X30710000Y-32073349D02*
X29463000Y-32073349D01*
X35811000Y-29072349D02*
X27689000Y-29072349D01*
X34447000Y-31753349D02*
X32790000Y-31753349D01*
X33784000Y-32233349D02*
X29716000Y-32233349D01*
X30710000Y-31193349D02*
X28530000Y-31193349D01*
X34657000Y-31553349D02*
X32790000Y-31553349D01*
X30710000Y-31073349D02*
X28441000Y-31073349D01*
X35540000Y-30193349D02*
X32790000Y-30193349D01*
X30710000Y-31793349D02*
X29099000Y-31793349D01*
X35760000Y-29433349D02*
X27740000Y-29433349D01*
X30710000Y-31593349D02*
X28883000Y-31593349D01*
X30710000Y-31233349D02*
X28561000Y-31233349D01*
X34617000Y-31593349D02*
X32790000Y-31593349D01*
X30710000Y-31633349D02*
X28924000Y-31633349D01*
X35059000Y-31073349D02*
X32790000Y-31073349D01*
X35030000Y-31113349D02*
X32790000Y-31113349D01*
X35826000Y-28872349D02*
X27674000Y-28872349D01*
X35000000Y-31153349D02*
X32790000Y-31153349D01*
X35377000Y-30553349D02*
X32790000Y-30553349D01*
X35243000Y-30793349D02*
X32790000Y-30793349D01*
X30710000Y-32153349D02*
X29584000Y-32153349D01*
X33481000Y-32393349D02*
X30019000Y-32393349D01*
X35600000Y-30033349D02*
X27900000Y-30033349D01*
X35870000Y-28672349D02*
G75*
G03*
X35870000Y-28672349I-4120000J0D01*
G01*
%TO.C,BattIn1*%
X16580000Y-38592349D02*
X20000000Y-38592349D01*
X16000000Y-37522349D02*
X21000000Y-37522349D01*
X20000000Y-42802349D02*
X20000000Y-37522349D01*
X23200000Y-37522349D02*
X21000000Y-37522349D01*
X16500000Y-38912349D02*
X16580000Y-38592349D01*
X20000000Y-38592349D02*
X20000000Y-38912349D01*
X21000000Y-40242349D02*
X21000000Y-40082349D01*
X23090000Y-41412349D02*
X23690000Y-41712349D01*
X14780000Y-36302349D02*
X23200000Y-36302349D01*
X16000000Y-42802349D02*
X21000000Y-42802349D01*
X16000000Y-44022349D02*
X16000000Y-42802349D01*
X20000000Y-41412349D02*
X20000000Y-41732349D01*
X23690000Y-41712349D02*
X23690000Y-41112349D01*
X20000000Y-41732349D02*
X16580000Y-41732349D01*
X23690000Y-41112349D02*
X23090000Y-41412349D01*
X16500000Y-41412349D02*
X16580000Y-41092349D01*
X23200000Y-42802349D02*
X23200000Y-44022349D01*
X20000000Y-38912349D02*
X20000000Y-39232349D01*
X23200000Y-36302349D02*
X23200000Y-37522349D01*
X14780000Y-44022349D02*
X14780000Y-36302349D01*
X16580000Y-39232349D02*
X16500000Y-38912349D01*
X16580000Y-41732349D02*
X16500000Y-41412349D01*
X23200000Y-44022349D02*
X14780000Y-44022349D01*
X20000000Y-41092349D02*
X20000000Y-41412349D01*
X21000000Y-37522349D02*
X21000000Y-36302349D01*
X21000000Y-42802349D02*
X21000000Y-44022349D01*
X16580000Y-41092349D02*
X20000000Y-41092349D01*
X16000000Y-36302349D02*
X16000000Y-37522349D01*
X21000000Y-42802349D02*
X23200000Y-42802349D01*
X20000000Y-39232349D02*
X16580000Y-39232349D01*
%TD*%
M02*
