M48
; DRILL file {KiCad (6.0.2)} date Thu Mar 17 17:29:21 2022
; FORMAT={-:-/ absolute / metric / decimal}
; #@! TF.CreationDate,2022-03-17T17:29:21-05:00
; #@! TF.GenerationSoftware,Kicad,Pcbnew,(6.0.2)
; #@! TF.FileFunction,Plated,1,2,PTH
FMAT,2
METRIC
; #@! TA.AperFunction,Plated,PTH,ComponentDrill
T1C0.700
; #@! TA.AperFunction,Plated,PTH,ComponentDrill
T2C0.800
; #@! TA.AperFunction,Plated,PTH,ComponentDrill
T3C1.000
; #@! TA.AperFunction,Plated,PTH,ComponentDrill
T4C1.100
%
G90
G05
T1
X36.83Y-52.705
X37.465Y-45.72
X37.465Y-48.26
X39.37Y-52.705
X40.64Y-45.085
X40.64Y-48.895
X43.18Y-45.085
X43.18Y-48.895
X43.18Y-52.705
X45.72Y-52.705
X48.895Y-45.085
X48.895Y-52.705
X48.945Y-56.515
X51.435Y-45.085
X51.435Y-52.705
X51.485Y-56.515
X52.705Y-26.035
X55.245Y-26.035
X55.88Y-42.545
X55.88Y-45.085
X66.675Y-33.605
X66.675Y-36.145
X66.675Y-41.96
X66.675Y-44.5
X71.12Y-31.115
X73.66Y-31.115
T2
X31.75Y-26.172
X31.75Y-31.172
X31.75Y-38.872
X31.75Y-43.872
X42.87Y-15.23
X42.87Y-22.85
X45.085Y-31.115
X45.085Y-38.735
X45.41Y-15.23
X45.41Y-22.85
X47.625Y-31.115
X47.625Y-38.735
X47.95Y-15.23
X47.95Y-22.85
X50.165Y-31.115
X50.165Y-38.735
X50.49Y-15.23
X50.49Y-22.85
X52.705Y-31.115
X52.705Y-38.735
X53.03Y-15.23
X53.03Y-22.85
X55.245Y-31.115
X55.245Y-38.735
X55.57Y-15.23
X55.57Y-22.85
X57.785Y-31.115
X57.785Y-38.735
X58.11Y-15.23
X58.11Y-22.85
X60.325Y-31.115
X60.325Y-38.735
X60.65Y-15.23
X60.65Y-22.85
X63.19Y-15.23
X63.19Y-22.85
T3
X21.59Y-38.912
X21.59Y-41.412
X21.71Y-17.633
X36.71Y-17.633
X71.13Y-20.115
X71.13Y-24.765
X73.67Y-20.115
X73.67Y-24.765
X76.21Y-20.115
X76.21Y-24.765
X78.75Y-20.115
X78.75Y-24.765
T4
X21.59Y-26.172
X21.59Y-28.712
X21.59Y-31.252
T0
M30
